<svg xmlns="http://www.w3.org/2000/svg" xmlns:xlink="http://www.w3.org/1999/xlink" version="1.1" fill-rule="evenodd" fill="none" stroke="none" stroke-linecap="square" stroke-miterlimit="10" overflow="hidden" viewBox="10000 63000 242128 60000"><rect fill="#ffffff" fill-opacity="0" width="100%" height="100%"></rect><g transform="translate(6858 53721) scale(0.68125)"><defs cursor="default"></defs><g id="editor-p"><path fill="#fff" fill-opacity="1" d="M 0 0 L 365760 0 365760 205740 0 205740 Z"></path><g id="editor-p-bg"><g><g><path fill="#FFFFFF" fill-opacity="1" d="M 0 0 L 365760 0 365760 205740 0 205740 Z"></path></g></g></g><g id="editor-g40708a312e_0_0"><g><g></g><g><g><g><g><clipPath id="e1_496"><path d="M 12971.0001 21383 L 101425.24010000001 21383 101425.24010000001 83969 12971.0001 83969 Z"></path></clipPath><g clip-path="url(#e1_496)"><image fill="#000000" width="400" height="300" preserveAspectRatio="none" transform="matrix(221.1356,0,0,208.62,12971.0001,21383)" x="0" y="0" xlink:href="/assets/images/face_orig.png"></image></g></g></g></g><g></g></g></g></g><g id="editor-g40708a312e_0_1"><g><g></g><g><g><g><g><clipPath id="e1_510"><path d="M 101425.4305 21383 L 189879.6705 21383 189879.6705 83969 101425.4305 83969 Z"></path></clipPath><g clip-path="url(#e1_510)"><image fill="#000000" width="400" height="300" preserveAspectRatio="none" transform="matrix(221.1356,0,0,208.62,101425.4305,21383)" x="0" y="0" xlink:href="/assets/images/face1.png"></image></g></g></g></g><g></g></g></g></g><g id="editor-g40708a312e_0_2"><g><g></g><g><g><g><g><clipPath id="e1_524"><path d="M 189879.6667 21383 L 278333.9867 21383 278333.9867 83969 189879.6667 83969 Z"></path></clipPath><g clip-path="url(#e1_524)"><image fill="#000000" width="400" height="300" preserveAspectRatio="none" transform="matrix(221.1358,0,0,208.62,189879.6667,21383)" x="0" y="0" xlink:href="/assets/images/face2.png"></image></g></g></g></g><g></g></g></g></g><g id="editor-g40708a312e_0_4"><g><g></g><g><path fill="#B6D7A8" fill-opacity="1" stroke="#274E13" stroke-opacity="1" stroke-width="381" stroke-linecap="butt" stroke-linejoin="round" stroke-miterlimit="8" d="M 95008 49163 L 95447.125 49163 95447.125 56189 95008 56189 Z M 95886.25 49163 L 96764.5 49163 96764.5 56189 95886.25 56189 Z M 97203.625 49163 L 103366 49163 103366 45650 110392 52676 103366 59702 103366 56189 97203.625 56189 Z"></path></g><g><path fill="#000" fill-opacity="0" stroke="#000" stroke-opacity="0" stroke-width="5592.660550458715" stroke-linecap="round" stroke-linejoin="round" stroke-miterlimit="10" pointer-events="visiblePainted" d="M 95008 49163 L 95447.125 49163 95447.125 56189 95008 56189 Z M 95886.25 49163 L 96764.5 49163 96764.5 56189 95886.25 56189 Z M 97203.625 49163 L 103366 49163 103366 45650 110392 52676 103366 59702 103366 56189 97203.625 56189 Z"></path></g></g></g><g id="editor-g40708a312e_0_5"><g><g></g><g><path fill="#B6D7A8" fill-opacity="1" stroke="#274E13" stroke-opacity="1" stroke-width="381" stroke-linecap="butt" stroke-linejoin="round" stroke-miterlimit="8" d="M 182187.5 49163 L 182626.625 49163 182626.625 56189 182187.5 56189 Z M 183065.75 49163 L 183944 49163 183944 56189 183065.75 56189 Z M 184383.125 49163 L 190545.5 49163 190545.5 45650 197571.5 52676 190545.5 59702 190545.5 56189 184383.125 56189 Z"></path></g><g><path fill="#000" fill-opacity="0" stroke="#000" stroke-opacity="0" stroke-width="5592.660550458715" stroke-linecap="round" stroke-linejoin="round" stroke-miterlimit="10" pointer-events="visiblePainted" d="M 182187.5 49163 L 182626.625 49163 182626.625 56189 182187.5 56189 Z M 183065.75 49163 L 183944 49163 183944 56189 183065.75 56189 Z M 184383.125 49163 L 190545.5 49163 190545.5 45650 197571.5 52676 190545.5 59702 190545.5 56189 184383.125 56189 Z"></path></g></g></g><g id="editor-g40708a312e_0_7"><g><g></g><g><path stroke="#76A5AF" stroke-opacity="1" stroke-width="381" stroke-linecap="butt" stroke-linejoin="round" stroke-miterlimit="8" d="M 231834 36799 L 278334 33787"></path></g><g><path stroke="#000" stroke-opacity="0" stroke-width="5592.660550458715" stroke-linecap="round" stroke-linejoin="round" stroke-miterlimit="10" pointer-events="visiblePainted" d="M 231834 36799 L 278334 33787"></path></g></g></g><g id="editor-g40708a312e_0_9"><g><g></g><g><path stroke="#76A5AF" stroke-opacity="1" stroke-width="381" stroke-linecap="butt" stroke-linejoin="round" stroke-miterlimit="8" d="M 247892 36799 L 354944 33451"></path></g><g><path stroke="#000" stroke-opacity="0" stroke-width="5592.660550458715" stroke-linecap="round" stroke-linejoin="round" stroke-miterlimit="10" pointer-events="visiblePainted" d="M 247892 36799 L 354944 33451"></path></g></g></g><g id="editor-g40708a312e_0_10"><g><g></g><g><path stroke="#76A5AF" stroke-opacity="1" stroke-width="381" stroke-linecap="butt" stroke-linejoin="round" stroke-miterlimit="8" d="M 247892 39810 L 354944 71922"></path></g><g><path stroke="#000" stroke-opacity="0" stroke-width="5592.660550458715" stroke-linecap="round" stroke-linejoin="round" stroke-miterlimit="10" pointer-events="visiblePainted" d="M 247892 39810 L 354944 71922"></path></g></g></g><g id="editor-g40708a312e_0_11"><g><g></g><g><path stroke="#76A5AF" stroke-opacity="1" stroke-width="381" stroke-linecap="butt" stroke-linejoin="round" stroke-miterlimit="8" d="M 232168 39475 L 278668 71923"></path></g><g><path stroke="#000" stroke-opacity="0" stroke-width="5592.660550458715" stroke-linecap="round" stroke-linejoin="round" stroke-miterlimit="10" pointer-events="visiblePainted" d="M 232168 39475 L 278668 71923"></path></g></g></g><g id="editor-g40708a312e_0_3"><g><g></g><g><g><g><g><clipPath id="e1_755"><path d="M 278334 33593.5 L 354664 33593.5 354664 71758.5 278334 71758.5 Z"></path></clipPath><g clip-path="url(#e1_755)"><image fill="#000000" width="400" height="200" preserveAspectRatio="none" transform="matrix(190.825,0,0,190.825,278334,33593.5)" x="0" y="0" xlink:href="/assets/images/eyes_larger.png"></image></g></g></g></g></g></g></g><g id="editor-g40708a312e_0_12"><g><g></g><g><path fill="#B6D7A8" fill-opacity="1" stroke="#274E13" stroke-opacity="1" stroke-width="381" stroke-linecap="butt" stroke-linejoin="round" stroke-miterlimit="8" d="M 271040.5 49163.5 L 271479.625 49163.5 271479.625 56189.5 271040.5 56189.5 Z M 271918.75 49163.5 L 272797 49163.5 272797 56189.5 271918.75 56189.5 Z M 273236.125 49163.5 L 279398.5 49163.5 279398.5 45650.5 286424.5 52676.5 279398.5 59702.5 279398.5 56189.5 273236.125 56189.5 Z"></path></g><g><path fill="#000" fill-opacity="0" stroke="#000" stroke-opacity="0" stroke-width="5592.660550458715" stroke-linecap="round" stroke-linejoin="round" stroke-miterlimit="10" pointer-events="visiblePainted" d="M 271040.5 49163.5 L 271479.625 49163.5 271479.625 56189.5 271040.5 56189.5 Z M 271918.75 49163.5 L 272797 49163.5 272797 56189.5 271918.75 56189.5 Z M 273236.125 49163.5 L 279398.5 49163.5 279398.5 45650.5 286424.5 52676.5 279398.5 59702.5 279398.5 56189.5 273236.125 56189.5 Z"></path></g></g></g><g id="editor-g40708a312e_0_28"><g><g></g><g><path d="M 12966 83969 L 101418 83969 101418 99689 12966 99689 Z"></path></g><g><path fill="#000" fill-opacity="0" stroke="#000" stroke-opacity="0" stroke-width="5592.660550458715" stroke-linecap="round" stroke-linejoin="round" stroke-miterlimit="10" pointer-events="visiblePainted" d="M 12966 83969 L 101418 83969 101418 99689 12966 99689 Z"></path></g><g><g direction="ltr" style="opacity: 1;"><g transform="matrix(381.00000000000006,0,0,380.99999999999966,16623,87638)"><g pointer-events="none"><g id="editor-g40708a312e_0_28-paragraph-0"><g><g class="sketchy-text-background" visibility="visible"></g><g><g></g></g><g class="sketchy-text-content" visibility="visible"><g class="sketchy-text-content-text" transform="translate(0 17.919999999999998)"><text x="46.60983156219241px" style="font-family:Roboto;font-size:18.666666666666664px;fill:#434343;white-space:pre;" y="0px" text-rendering="geometricPrecision">Webcam</text><text x="124.12895082488772px" style="font-family:Roboto;font-size:18.666666666666664px;fill:#434343;white-space:pre;" y="0px" text-rendering="geometricPrecision">Input</text></g></g></g></g></g><rect x="149.54081044747454" y="0.027783112476754468" width="1.7560975609756098" height="22.399999999999995" fill="#434343" transform="" shape-rendering="crispEdges" style="opacity: 0;" class=""></rect><rect style="opacity: 0;"></rect></g><g><path d="M 34381.34582519531 87638 L 80002.6541748047 87638 80002.6541748047 96172.4 34381.34582519531 96172.4 Z" pointer-events="visiblePainted" fill="#000000" stroke="#000000" opacity="0"></path></g><g transform="matrix(381.00000000000006,0,0,380.99999999999966,16623,87638)"></g></g></g></g></g><g id="editor-g40708a312e_0_29"><g><g></g><g><path d="M 101426.5 83969 L 189878.5 83969 189878.5 99689 101426.5 99689 Z"></path></g><g><path fill="#000" fill-opacity="0" stroke="#000" stroke-opacity="0" stroke-width="5592.660550458715" stroke-linecap="round" stroke-linejoin="round" stroke-miterlimit="10" pointer-events="visiblePainted" d="M 101426.5 83969 L 189878.5 83969 189878.5 99689 101426.5 99689 Z"></path></g><g><g direction="ltr" style="opacity: 1;"><g transform="matrix(381.00000000000006,0,0,380.99999999999966,105083.5,87638)"><g pointer-events="none"><g id="editor-g40708a312e_0_29-paragraph-0"><g><g class="sketchy-text-background" visibility="visible"></g><g><g></g></g><g class="sketchy-text-content" visibility="visible"><g class="sketchy-text-content-text" transform="translate(0 17.919999999999998)"><text x="44.55066560760257px" style="font-family:Roboto;font-size:18.666666666666664px;fill:#434343;white-space:pre;" y="0px" text-rendering="geometricPrecision">Face</text><text x="88.97745393768069px" style="font-family:Roboto;font-size:18.666666666666664px;fill:#434343;white-space:pre;" y="0px" text-rendering="geometricPrecision">Detection</text></g></g></g></g></g><rect style="opacity: 0;" x="147.4098009090327" y="0.027783112476754468" width="1.7560975609756098" height="22.399999999999995" fill="#434343" transform="" shape-rendering="crispEdges" class=""></rect><rect style="opacity: 0;"></rect></g><g><path d="M 122057.30359649658 87638 L 169247.69640350342 87638 169247.69640350342 96172.4 122057.30359649658 96172.4 Z" pointer-events="visiblePainted" fill="#000000" stroke="#000000" opacity="0"></path></g><g transform="matrix(381.00000000000006,0,0,380.99999999999966,105083.5,87638)"></g></g></g></g></g><g id="editor-g40708a312e_0_30"><g><g></g><g><path d="M 189880.5 83969 L 278332.5 83969 278332.5 99689 189880.5 99689 Z"></path></g><g><path fill="#000" fill-opacity="0" stroke="#000" stroke-opacity="0" stroke-width="5592.660550458715" stroke-linecap="round" stroke-linejoin="round" stroke-miterlimit="10" pointer-events="visiblePainted" d="M 189880.5 83969 L 278332.5 83969 278332.5 99689 189880.5 99689 Z"></path></g><g><g direction="ltr" style="opacity: 1;"><g transform="matrix(381.00000000000006,0,0,380.99999999999966,193537.5,87638)"><g pointer-events="none"><g id="editor-g40708a312e_0_30-paragraph-0"><g><g class="sketchy-text-background" visibility="visible"></g><g><g></g></g><g class="sketchy-text-content" visibility="visible"><g class="sketchy-text-content-text" transform="translate(0 17.919999999999998)"><text x="38.96089052215335px" style="font-family:Roboto;font-size:18.666666666666664px;fill:#434343;white-space:pre;" y="0px" text-rendering="geometricPrecision">Finding</text><text x="104.53503297820804px" style="font-family:Roboto;font-size:18.666666666666664px;fill:#434343;white-space:pre;" y="0px" text-rendering="geometricPrecision">the</text><text x="135.41329835906743px" style="font-family:Roboto;font-size:18.666666666666664px;fill:#434343;white-space:pre;" y="0px" text-rendering="geometricPrecision">Eyes</text></g></g></g></g></g><rect style="opacity: 0;" x="135.6373151526791" y="0.027783112476754468" width="1.7560975609756098" height="22.399999999999995" fill="#434343" transform="" shape-rendering="crispEdges" class=""></rect><rect style="opacity: 0;"></rect></g><g><path d="M 208381.59928894043 87638 L 259831.40071105957 87638 259831.40071105957 96172.4 208381.59928894043 96172.4 Z" pointer-events="visiblePainted" fill="#000000" stroke="#000000" opacity="0"></path></g><g transform="matrix(381.00000000000006,0,0,380.99999999999966,193537.5,87638)"></g></g></g></g></g><g id="editor-g40708a312e_0_31"><g><g></g><g><path d="M 278617.9992 83969 L 354949.9992 83969 354949.9992 99689 278617.9992 99689 Z"></path></g><g><path fill="#000" fill-opacity="0" stroke="#000" stroke-opacity="0" stroke-width="5592.660550458715" stroke-linecap="round" stroke-linejoin="round" stroke-miterlimit="10" pointer-events="visiblePainted" d="M 278617.9992 83969 L 354949.9992 83969 354949.9992 99689 278617.9992 99689 Z"></path></g><g><g direction="ltr" style="opacity: 1;"><g transform="matrix(381,0,0,381,282274.9992,87638)"><g pointer-events="none"><g id="editor-g40708a312e_0_31-paragraph-0"><g><g class="sketchy-text-background" visibility="visible"></g><g><g></g></g><g class="sketchy-text-content" visibility="visible"><g class="sketchy-text-content-text" transform="translate(0 17.919999999999998)"><text x="27.164570605660984px" style="font-family:Roboto;font-size:18.666666666666664px;fill:#434343;white-space:pre;" y="0px" text-rendering="geometricPrecision">Cropped</text><text x="102.0505111574188px" style="font-family:Roboto;font-size:18.666666666666664px;fill:#434343;white-space:pre;" y="0px" text-rendering="geometricPrecision">Image</text></g></g></g></g></g><rect style="opacity: 0;" x="153.8524443249471" y="0.02778311247681131" width="1.7560975609756098" height="22.399999999999995" fill="#434343" transform="" shape-rendering="crispEdges" class=""></rect><rect style="opacity: 0;"></rect></g><g><path d="M 292624.70060075686 87638 L 340943.2977992432 87638 340943.2977992432 96172.4 292624.70060075686 96172.4 Z" pointer-events="visiblePainted" fill="#000000" stroke="#000000" opacity="0"></path></g><g transform="matrix(381,0,0,381,282274.9992,87638)"></g></g></g></g></g></g></g></svg>
