<svg xmlns="http://www.w3.org/2000/svg" xmlns:xlink="http://www.w3.org/1999/xlink" version="1.1" fill-rule="evenodd" fill="none" stroke="none" stroke-linecap="square" stroke-miterlimit="10" overflow="hidden" viewBox="50000 18000 414731 110000"><rect fill="#ffffff" fill-opacity="0" width="100%" height="100%"></rect><g transform="translate(49530 6858) scale(1.1388888888888888)"><defs cursor="default"></defs><g id="editor-g40708a312e_0_13"><path fill="#fff" fill-opacity="1" d="M 0 0 L 365760 0 365760 205740 0 205740 Z"></path><g id="editor-g40708a312e_0_13-bg"><g><g><path fill="#FFFFFF" fill-opacity="1" d="M 0 0 L 365760 0 365760 205740 0 205740 Z"></path></g></g></g><g id="editor-g40708a312e_0_23"><g><g></g><g><g><g><g><clipPath id="e8_233"><path d="M 14851 35603 L 91181 35603 91181 73768 14851 73768 Z"></path></clipPath><g clip-path="url(#e8_233)"><image fill="#000000" width="400" height="200" preserveAspectRatio="none" transform="matrix(190.825,0,0,190.825,14851,35603)" x="0" y="0" xlink:href="/assets/images/eyes_larger.png"></image></g></g></g></g></g></g></g><g id="editor-g40708a312e_0_27"><g><g></g><g><path fill="#EAD1DC" fill-opacity="1" stroke="#741B47" stroke-opacity="1" stroke-width="381" stroke-linecap="butt" stroke-linejoin="round" stroke-miterlimit="8" d="M 102053 35840.12144 C 102053 30636.390454556007 106271.457454556 26417.933 111475.18844 26417.933 L 186974.81156 26417.933 C 189473.73130466352 26417.933 191870.30180244893 27410.625003365963 193637.3048995415 29177.628100458503 195404.30799663404 30944.63119755104 196397 33341.20169533647 196397 35840.12144 L 196397 73527.74456 C 196397 78731.47554544399 192178.54254544398 82949.933 186974.81156 82949.933 L 111475.18844 82949.933 C 106271.457454556 82949.933 102053 78731.475545444 102053 73527.74456 Z"></path></g><g><g direction="ltr" style="opacity: 1;"><g transform="matrix(381,0,0,380.99999999999983,108469.6647721916,32966.93300000001)"><g pointer-events="none"><g id="editor-g40708a312e_0_27-paragraph-0"><g><g class="sketchy-text-background" visibility="visible"></g><g><g></g></g><g class="sketchy-text-content" visibility="visible"><g class="sketchy-text-content-text" transform="translate(0 30.72)"><text x="9.492821300022044px" style="font-family:Roboto;font-size:32px;fill:#434343;white-space:pre;" y="0px" text-rendering="geometricPrecision">Convolutional</text></g></g></g><g transform="translate(0 38)"><g class="sketchy-text-background" visibility="visible"></g><g><g></g></g><g class="sketchy-text-content" visibility="visible"><g class="sketchy-text-content-text" transform="translate(0 30.72)"><text x="60.578758800022044px" style="font-family:Roboto;font-size:32px;fill:#434343;white-space:pre;" y="0px" text-rendering="geometricPrecision">Neural</text></g></g></g><g transform="translate(0 76)"><g class="sketchy-text-background" visibility="visible"></g><g><g></g></g><g class="sketchy-text-content" visibility="visible"><g class="sketchy-text-content-text" transform="translate(0 30.72)"><text x="47.188133800022044px" style="font-family:Roboto;font-size:32px;fill:#434343;white-space:pre;" y="0px" text-rendering="geometricPrecision">Network</text></g></g></g></g></g><rect x="46.37643769394401" y="75.91015299916782" width="1.7560975609756098" height="38.4" fill="#434343" transform="" shape-rendering="crispEdges" style="opacity: 0;" class=""></rect><rect style="opacity: 0;"></rect></g><g><path d="M 112086.4296875 32966.93300000001 L 186363.5703125 32966.93300000001 186363.5703125 76553.33299999998 112086.4296875 76553.33299999998 Z" pointer-events="visiblePainted" fill="#000000" stroke="#000000" opacity="0"></path></g><g transform="matrix(381,0,0,380.99999999999983,108469.6647721916,32966.93300000001)"></g></g></g></g></g><g id="editor-g40708a312e_0_33"><g><g></g><g><path fill="#CFE2F3" fill-opacity="1" stroke="#0B5394" stroke-opacity="1" stroke-width="381" stroke-linecap="butt" stroke-linejoin="round" stroke-miterlimit="8" d="M 207269 43450.11236 C 207269 40347.314580736114 209784.3145807361 37832 212887.11236 37832 L 252122.88764 37832 C 253612.90367964335 37832 255041.8925415154 38423.9065670675 256095.49298722396 39477.50701277604 257149.0934329325 40531.107458484585 257741 41960.09632035664 257741 43450.11236 L 257741 65921.88764 C 257741 69024.68541926389 255225.6854192639 71540 252122.88764 71540 L 212887.11236 71540 C 209784.3145807361 71540 207269 69024.68541926389 207269 65921.88764 Z"></path></g><g><g direction="ltr" style="opacity: 1;"><g transform="matrix(381,0,0,381.00000000000017,212571.4889291204,47447)"><g pointer-events="none"><g id="editor-g40708a312e_0_33-paragraph-0"><g><g class="sketchy-text-background" visibility="visible"></g><g><g></g></g><g class="sketchy-text-content" visibility="visible"><g class="sketchy-text-content-text" transform="translate(0 30.72)"><text x="18.68611419522204px" style="font-family:Roboto;font-size:32px;fill:#434343;white-space:pre;" y="0px" text-rendering="geometricPrecision">(x,</text><text x="59.68611419522204px" style="font-family:Roboto;font-size:32px;fill:#434343;white-space:pre;" y="0px" text-rendering="geometricPrecision">y)</text></g></g></g></g></g><rect style="opacity: 0;" x="139.89144953697587" y="0.1561039626144236" width="1.7560975609756098" height="38.4" fill="#434343" transform="" shape-rendering="crispEdges" class=""></rect><rect style="opacity: 0;"></rect></g><g><path d="M 219690.89843749997 47447 L 245319.1015625 47447 245319.1015625 62077.40000000001 219690.89843749997 62077.40000000001 Z" pointer-events="visiblePainted" fill="#000000" stroke="#000000" opacity="0"></path></g><g transform="matrix(381,0,0,381.00000000000017,212571.4889291204,47447)"></g></g></g></g></g><g id="editor-g40708a312e_0_39"><g></g><g id="editor-g40708a312e_0_34"><g><g><path fill="#999999" fill-opacity="1" stroke="#595959" stroke-opacity="1" stroke-width="381" stroke-linecap="butt" stroke-linejoin="round" stroke-miterlimit="8" d="M 268613 26420 L 350909 26420 350909 82952 268613 82952 Z"></path></g></g></g><g id="editor-g40708a312e_0_35"><g><g><path fill="#F3F3F3" fill-opacity="1" stroke="#595959" stroke-opacity="1" stroke-width="381" stroke-linecap="butt" stroke-linejoin="round" stroke-miterlimit="8" d="M 274300 30327 L 345220 30327 345220 79047 274300 79047 Z"></path></g></g></g><g id="editor-g40708a312e_0_36"><g><g><path fill="#CC0000" fill-opacity="1" stroke="#660000" stroke-opacity="1" stroke-width="381" stroke-linecap="butt" stroke-linejoin="round" stroke-miterlimit="8" d="M 286678 49673 C 286678 48655.69149081168 287502.6914908117 47831 288520 47831 289008.52877428447 47831 289477.0486818443 48025.0672999531 289822.49069094565 48370.50930905438 290167.9327000469 48715.95131815566 290362 49184.47122571556 290362 49673 290362 50690.30850918832 289537.3085091883 51515 288520 51515 287502.6914908117 51515 286678 50690.30850918832 286678 49673 Z"></path></g></g></g><g id="editor-g40708a312e_0_37"><g><g><path fill="#C9DAF8" fill-opacity="1" stroke="#A4C2F4" stroke-opacity="1" stroke-width="381" stroke-linecap="butt" stroke-linejoin="round" stroke-miterlimit="8" d="M 274634 30765 L 344882 30765 344882 35589 274634 35589 Z"></path></g></g></g><g id="editor-g40708a312e_0_38"><g><g><path fill="#F3F3F3" fill-opacity="1" stroke="#A4C2F4" stroke-opacity="1" stroke-width="381" stroke-linecap="butt" stroke-linejoin="round" stroke-miterlimit="8" d="M 276838.4478 31335 L 330490.4478 31335 330490.4478 35019 276838.4478 35019 Z"></path></g><g><g direction="ltr" style="opacity: 1;"><g transform="matrix(380.99999999999994,0,0,381.00000000000074,280495.4478,31271.999999999996)"><g pointer-events="none"><g id="editor-g40708a312e_0_38-paragraph-0"><g><g class="sketchy-text-background" visibility="visible"></g><g></g><g class="sketchy-text-content" visibility="visible"><g class="sketchy-text-content-text" transform="translate(0 7.68)"><text x="0px" style="font-family:Roboto;font-size:8px;fill:#999999;white-space:pre;" y="0px" text-rendering="geometricPrecision">http://lookie-lookie.com</text></g></g></g></g></g><rect style="opacity: 0;"></rect><rect style="opacity: 1;"></rect></g><g><path d="M 280495.4478 31271.999999999996 L 312672.088425 31271.999999999996 312672.088425 34929.600000000006 280495.4478 34929.600000000006 Z" pointer-events="visiblePainted" fill="#000000" stroke="#000000" opacity="0"></path></g><g transform="matrix(380.99999999999994,0,0,381.00000000000074,280495.4478,31271.999999999996)"></g></g></g></g></g></g><g id="editor-g40708a312e_0_42"><g><g></g><g><path fill="#B6D7A8" fill-opacity="1" stroke="#274E13" stroke-opacity="1" stroke-width="381" stroke-linecap="butt" stroke-linejoin="round" stroke-miterlimit="8" d="M 86431.9795 51173 L 86871.1045 51173 86871.1045 58199 86431.9795 58199 Z M 87310.2295 51173 L 88188.4795 51173 88188.4795 58199 87310.2295 58199 Z M 88627.6045 51173 L 99529.9795 51173 99529.9795 47660 106555.9795 54686 99529.9795 61712 99529.9795 58199 88627.6045 58199 Z"></path></g><g><path fill="#000" fill-opacity="0" stroke="#000" stroke-opacity="0" stroke-width="3345.3658536585367" stroke-linecap="round" stroke-linejoin="round" stroke-miterlimit="10" pointer-events="visiblePainted" d="M 86431.9795 51173 L 86871.1045 51173 86871.1045 58199 86431.9795 58199 Z M 87310.2295 51173 L 88188.4795 51173 88188.4795 58199 87310.2295 58199 Z M 88627.6045 51173 L 99529.9795 51173 99529.9795 47660 106555.9795 54686 99529.9795 61712 99529.9795 58199 88627.6045 58199 Z"></path></g></g></g><g id="editor-g40708a312e_0_43"><g><g></g><g><path fill="#B6D7A8" fill-opacity="1" stroke="#274E13" stroke-opacity="1" stroke-width="381" stroke-linecap="butt" stroke-linejoin="round" stroke-miterlimit="8" d="M 191354.9774 51172 L 191794.1024 51172 191794.1024 58198 191354.9774 58198 Z M 192233.2274 51172 L 193111.4774 51172 193111.4774 58198 192233.2274 58198 Z M 193550.6024 51172 L 204452.9774 51172 204452.9774 47659 211478.9774 54685 204452.9774 61711 204452.9774 58198 193550.6024 58198 Z"></path></g><g><path fill="#000" fill-opacity="0" stroke="#000" stroke-opacity="0" stroke-width="3345.3658536585367" stroke-linecap="round" stroke-linejoin="round" stroke-miterlimit="10" pointer-events="visiblePainted" d="M 191354.9774 51172 L 191794.1024 51172 191794.1024 58198 191354.9774 58198 Z M 192233.2274 51172 L 193111.4774 51172 193111.4774 58198 192233.2274 58198 Z M 193550.6024 51172 L 204452.9774 51172 204452.9774 47659 211478.9774 54685 204452.9774 61711 204452.9774 58198 193550.6024 58198 Z"></path></g></g></g><g id="editor-g40708a312e_0_44"><g><g></g><g><path fill="#B6D7A8" fill-opacity="1" stroke="#274E13" stroke-opacity="1" stroke-width="381" stroke-linecap="butt" stroke-linejoin="round" stroke-miterlimit="8" d="M 252983.9767 51172 L 253423.1017 51172 253423.1017 58198 252983.9767 58198 Z M 253862.2267 51172 L 254740.4767 51172 254740.4767 58198 253862.2267 58198 Z M 255179.6017 51172 L 266081.9767 51172 266081.9767 47659 273107.9767 54685 266081.9767 61711 266081.9767 58198 255179.6017 58198 Z"></path></g><g><path fill="#000" fill-opacity="0" stroke="#000" stroke-opacity="0" stroke-width="3345.3658536585367" stroke-linecap="round" stroke-linejoin="round" stroke-miterlimit="10" pointer-events="visiblePainted" d="M 252983.9767 51172 L 253423.1017 51172 253423.1017 58198 252983.9767 58198 Z M 253862.2267 51172 L 254740.4767 51172 254740.4767 58198 253862.2267 58198 Z M 255179.6017 51172 L 266081.9767 51172 266081.9767 47659 273107.9767 54685 266081.9767 61711 266081.9767 58198 255179.6017 58198 Z"></path></g></g></g><g id="editor-g40708a312e_0_45"><g><g></g><g><path d="M 14852 83969 L 91184 83969 91184 99689 14852 99689 Z"></path></g><g><path fill="#000" fill-opacity="0" stroke="#000" stroke-opacity="0" stroke-width="3345.3658536585367" stroke-linecap="round" stroke-linejoin="round" stroke-miterlimit="10" pointer-events="visiblePainted" d="M 14852 83969 L 91184 83969 91184 99689 14852 99689 Z"></path></g><g><g direction="ltr" style="opacity: 1;"><g transform="matrix(381,0,0,381,18509,87638)"><g pointer-events="none"><g id="editor-g40708a312e_0_45-paragraph-0"><g><g class="sketchy-text-background" visibility="visible"></g><g><g></g></g><g class="sketchy-text-content" visibility="visible"><g class="sketchy-text-content-text" transform="translate(0 17.919999999999998)"><text x="41.18690184345395px" style="font-family:Roboto;font-size:18.666666666666664px;fill:#434343;white-space:pre;" y="0px" text-rendering="geometricPrecision">Input</text><text x="88.02817991962583px" style="font-family:Roboto;font-size:18.666666666666664px;fill:#434343;white-space:pre;" y="0px" text-rendering="geometricPrecision">Image</text></g></g></g></g></g><rect style="opacity: 0;" x="140.20043531143978" y="0.02778311247681131" width="1.7560975609756098" height="22.399999999999995" fill="#434343" transform="" shape-rendering="crispEdges" class=""></rect><rect style="opacity: 0;"></rect></g><g><path d="M 34201.20960235596 87638 L 71834.79039764404 87638 71834.79039764404 96172.4 34201.20960235596 96172.4 Z" pointer-events="visiblePainted" fill="#000000" stroke="#000000" opacity="0"></path></g><g transform="matrix(381,0,0,381,18509,87638)"></g></g></g></g></g><g id="editor-g40708a312e_0_46"><g><g></g><g><path d="M 102053.0007 83969 L 196397.0007 83969 196397.0007 99689 102053.0007 99689 Z"></path></g><g><path fill="#000" fill-opacity="0" stroke="#000" stroke-opacity="0" stroke-width="3345.3658536585367" stroke-linecap="round" stroke-linejoin="round" stroke-miterlimit="10" pointer-events="visiblePainted" d="M 102053.0007 83969 L 196397.0007 83969 196397.0007 99689 102053.0007 99689 Z"></path></g><g><g direction="ltr" style="opacity: 1;"><g transform="matrix(381,0,0,381,105710.0007,87638)"><g pointer-events="none"><g id="editor-g40708a312e_0_46-paragraph-0"><g><g class="sketchy-text-background" visibility="visible"></g><g><g></g></g><g class="sketchy-text-content" visibility="visible"><g class="sketchy-text-content-text" transform="translate(0 17.919999999999998)"><text x="88.27721939687653px" style="font-family:Roboto;font-size:18.666666666666664px;fill:#434343;white-space:pre;" y="0px" text-rendering="geometricPrecision">Model</text></g></g></g></g></g><rect style="opacity: 0;" x="96.48297164074006" y="0.027783112476754468" width="1.7560975609756098" height="22.399999999999995" fill="#434343" transform="" shape-rendering="crispEdges" class=""></rect><rect style="opacity: 0;"></rect></g><g><path d="M 139343.62129020997 87638 L 159106.38010979004 87638 159106.38010979004 96172.4 139343.62129020997 96172.4 Z" pointer-events="visiblePainted" fill="#000000" stroke="#000000" opacity="0"></path></g><g transform="matrix(381,0,0,381,105710.0007,87638)"></g></g></g></g></g><g id="editor-g40708a312e_0_47"><g><g></g><g><path d="M 207268.9735 83969 L 257740.9735 83969 257740.9735 99689 207268.9735 99689 Z"></path></g><g><path fill="#000" fill-opacity="0" stroke="#000" stroke-opacity="0" stroke-width="3345.3658536585367" stroke-linecap="round" stroke-linejoin="round" stroke-miterlimit="10" pointer-events="visiblePainted" d="M 207268.9735 83969 L 257740.9735 83969 257740.9735 99689 207268.9735 99689 Z"></path></g><g><g direction="ltr" style="opacity: 1;"><g transform="matrix(381,0,0,381,210925.9735,87638)"><g pointer-events="none"><g id="editor-g40708a312e_0_47-paragraph-0"><g><g class="sketchy-text-background" visibility="visible"></g><g><g></g><g></g></g><g class="sketchy-text-content" visibility="visible"><g class="sketchy-text-content-text" transform="translate(0 17.919999999999998)"><text x="6.302300280473361px" style="font-family:Roboto;font-size:18.666666666666664px;fill:#434343;white-space:pre;" y="0px" text-rendering="geometricPrecision">Coordinates</text></g></g></g></g></g><rect style="opacity: 0;" x="106.68120392420462" y="0.02778311247681131" width="1.7560975609756098" height="22.399999999999995" fill="#434343" transform="" shape-rendering="crispEdges" class=""></rect><rect style="opacity: 0;"></rect></g><g><path d="M 213327.14990686034 87638 L 251682.79709313964 87638 251682.79709313964 96172.4 213327.14990686034 96172.4 Z" pointer-events="visiblePainted" fill="#000000" stroke="#000000" opacity="0"></path></g><g transform="matrix(381,0,0,381,210925.9735,87638)"></g></g></g></g></g><g id="editor-g40708a312e_0_48"><g><g></g><g><path d="M 268613 83969 L 350909 83969 350909 99689 268613 99689 Z"></path></g><g><path fill="#000" fill-opacity="0" stroke="#000" stroke-opacity="0" stroke-width="3345.3658536585367" stroke-linecap="round" stroke-linejoin="round" stroke-miterlimit="10" pointer-events="visiblePainted" d="M 268613 83969 L 350909 83969 350909 99689 268613 99689 Z"></path></g><g><g direction="ltr" style="opacity: 1;"><g transform="matrix(381,0,0,381,272270,87638)"><g pointer-events="none"><g id="editor-g40708a312e_0_48-paragraph-0"><g><g class="sketchy-text-background" visibility="visible"></g><g><g></g></g><g class="sketchy-text-content" visibility="visible"><g class="sketchy-text-content-text" transform="translate(0 17.919999999999998)"><text x="22.527047825610538px" style="font-family:Roboto;font-size:18.666666666666664px;fill:#434343;white-space:pre;" y="0px" text-rendering="geometricPrecision">Predicted</text><text x="106.26920480803241px" style="font-family:Roboto;font-size:18.666666666666664px;fill:#434343;white-space:pre;" y="0px" text-rendering="geometricPrecision">Position</text></g></g></g></g></g><rect style="opacity: 0;" x="101.96594328148001" y="0.02778311247681131" width="1.7560975609756098" height="22.399999999999995" fill="#434343" transform="" shape-rendering="crispEdges" class=""></rect><rect style="opacity: 0;"></rect></g><g><path d="M 280852.8052215576 87638 L 338669.1947784424 87638 338669.1947784424 96172.4 280852.8052215576 96172.4 Z" pointer-events="visiblePainted" fill="#000000" stroke="#000000" opacity="0"></path></g><g transform="matrix(381,0,0,381,272270,87638)"></g></g></g></g></g></g></g></svg>
