<svg xmlns="http://www.w3.org/2000/svg" xmlns:xlink="http://www.w3.org/1999/xlink" version="1.1" fill-rule="evenodd" fill="none" stroke="none" stroke-linecap="square" stroke-miterlimit="10" overflow="hidden" preserveAspectRatio="none" width="1459px" height="792px" viewBox="0 0 555879 301752"><rect fill="#ffffff" fill-opacity="0" width="100%" height="100%"></rect><g transform="translate(21336 6858) scale(1.4037037037037037)"><defs cursor="default"></defs><g id="editor-g3c5246b155_0_69"><path fill="#fff" fill-opacity="1" d="M 0 0 L 365760 0 365760 205740 0 205740 Z"></path><g id="editor-g3c5246b155_0_69-bg"><g><g><path fill="#FFFFFF" fill-opacity="1" d="M 0 0 L 365760 0 365760 205740 0 205740 Z"></path></g></g></g><g id="editor-g3c5246b155_0_75"><g id="editor-g3c5246b155_0_73"><g><g><path fill="#DD7E6B" fill-opacity="1" d="M 166769.6771 173892.32716000002 L 187331.01314 173892.32716000002 187331.01314 194885.6632 166769.6771 194885.6632 Z"></path><path fill="#b16556" fill-opacity="1" d="M 187331.01314 173892.32716000002 L 194573.6771 166649.6632 194573.6771 187642.99924 187331.01314 194885.6632 Z"></path><path fill="#e49889" fill-opacity="1" d="M 166769.6771 173892.32716000002 L 174012.34106 166649.6632 194573.6771 166649.6632 187331.01314 173892.32716000002 Z"></path><path stroke="#434343" stroke-opacity="1" stroke-width="381" stroke-linecap="butt" stroke-linejoin="round" stroke-miterlimit="8" d="M 166769.6771 173892.32716000002 L 174012.34106 166649.6632 194573.6771 166649.6632 194573.6771 187642.99924 187331.01314 194885.6632 166769.6771 194885.6632 Z M 166769.6771 173892.32716000002 L 187331.01314 173892.32716000002 194573.6771 166649.6632 M 187331.01314 173892.32716000002 L 187331.01314 194885.6632"></path></g><g><path fill="#000" fill-opacity="0" pointer-events="visiblePainted" d="M 166769.6771 173892.32716000002 L 187331.01314 173892.32716000002 187331.01314 194885.6632 166769.6771 194885.6632 Z"></path><path fill="#000" fill-opacity="0" pointer-events="visiblePainted" d="M 187331.01314 173892.32716000002 L 194573.6771 166649.6632 194573.6771 187642.99924 187331.01314 194885.6632 Z"></path><path fill="#000" fill-opacity="0" pointer-events="visiblePainted" d="M 166769.6771 173892.32716000002 L 174012.34106 166649.6632 194573.6771 166649.6632 187331.01314 173892.32716000002 Z"></path><path stroke="#000" stroke-opacity="0" stroke-width="2714.2480211081793" stroke-linecap="round" stroke-linejoin="round" stroke-miterlimit="10" pointer-events="visiblePainted" d="M 166769.6771 173892.32716000002 L 174012.34106 166649.6632 194573.6771 166649.6632 194573.6771 187642.99924 187331.01314 194885.6632 166769.6771 194885.6632 Z M 166769.6771 173892.32716000002 L 187331.01314 173892.32716000002 194573.6771 166649.6632 M 187331.01314 173892.32716000002 L 187331.01314 194885.6632"></path></g></g></g><g id="editor-g3c5246b155_0_74"><g><g><path d="M 164925.91840000002 174738 L 189045.91840000002 174738 189045.91840000002 195798 164925.91840000002 195798 Z"></path></g><g><path fill="#000" fill-opacity="0" stroke="#000" stroke-opacity="0" stroke-width="2714.2480211081793" stroke-linecap="round" stroke-linejoin="round" stroke-miterlimit="10" pointer-events="visiblePainted" d="M 164925.91840000002 174738 L 189045.91840000002 174738 189045.91840000002 195798 164925.91840000002 195798 Z"></path></g><g><g direction="ltr" style="opacity: 1;"><g transform="matrix(381,0,0,380.99999999999994,168582.91840000002,181077)"><g pointer-events="none"><g id="editor-g3c5246b155_0_74-paragraph-0"><g><g class="sketchy-text-background" visibility="visible"></g><g></g><g class="sketchy-text-content" visibility="visible"><g class="sketchy-text-content-text" transform="translate(0 17.919999999999998)"><text x="2.032954719122941px" style="font-family:Merriweather;font-size:18.666666666666664px;fill:#434343;white-space:pre;" y="0px" text-rendering="geometricPrecision">Max</text></g></g></g></g></g><rect style="opacity: 0;"></rect><rect style="opacity: 1;"></rect></g><g><path d="M 169357.47414798586 181077 L 184614.36265201418 181077 184614.36265201418 189611.4 169357.47414798586 189611.4 Z" pointer-events="visiblePainted" fill="#000000" stroke="#000000" opacity="0"></path></g><g transform="matrix(381,0,0,380.99999999999994,168582.91840000002,181077)"></g></g></g></g></g></g><g id="editor-g3c5246b155_0_78"><g id="editor-g3c5246b155_0_76"><g><g><path fill="#DD7E6B" fill-opacity="1" d="M 209441.6771 173892.32716000002 L 230003.01314 173892.32716000002 230003.01314 194885.6632 209441.6771 194885.6632 Z"></path><path fill="#b16556" fill-opacity="1" d="M 230003.01314 173892.32716000002 L 237245.6771 166649.6632 237245.6771 187642.99924 230003.01314 194885.6632 Z"></path><path fill="#e49889" fill-opacity="1" d="M 209441.6771 173892.32716000002 L 216684.34106 166649.6632 237245.6771 166649.6632 230003.01314 173892.32716000002 Z"></path><path stroke="#434343" stroke-opacity="1" stroke-width="381" stroke-linecap="butt" stroke-linejoin="round" stroke-miterlimit="8" d="M 209441.6771 173892.32716000002 L 216684.34106 166649.6632 237245.6771 166649.6632 237245.6771 187642.99924 230003.01314 194885.6632 209441.6771 194885.6632 Z M 209441.6771 173892.32716000002 L 230003.01314 173892.32716000002 237245.6771 166649.6632 M 230003.01314 173892.32716000002 L 230003.01314 194885.6632"></path></g><g><path fill="#000" fill-opacity="0" pointer-events="visiblePainted" d="M 209441.6771 173892.32716000002 L 230003.01314 173892.32716000002 230003.01314 194885.6632 209441.6771 194885.6632 Z"></path><path fill="#000" fill-opacity="0" pointer-events="visiblePainted" d="M 230003.01314 173892.32716000002 L 237245.6771 166649.6632 237245.6771 187642.99924 230003.01314 194885.6632 Z"></path><path fill="#000" fill-opacity="0" pointer-events="visiblePainted" d="M 209441.6771 173892.32716000002 L 216684.34106 166649.6632 237245.6771 166649.6632 230003.01314 173892.32716000002 Z"></path><path stroke="#000" stroke-opacity="0" stroke-width="2714.2480211081793" stroke-linecap="round" stroke-linejoin="round" stroke-miterlimit="10" pointer-events="visiblePainted" d="M 209441.6771 173892.32716000002 L 216684.34106 166649.6632 237245.6771 166649.6632 237245.6771 187642.99924 230003.01314 194885.6632 209441.6771 194885.6632 Z M 209441.6771 173892.32716000002 L 230003.01314 173892.32716000002 237245.6771 166649.6632 M 230003.01314 173892.32716000002 L 230003.01314 194885.6632"></path></g></g></g><g id="editor-g3c5246b155_0_77"><g><g><path d="M 207690.91840000002 174738 L 231810.91840000002 174738 231810.91840000002 195798 207690.91840000002 195798 Z"></path></g><g><path fill="#000" fill-opacity="0" stroke="#000" stroke-opacity="0" stroke-width="2714.2480211081793" stroke-linecap="round" stroke-linejoin="round" stroke-miterlimit="10" pointer-events="visiblePainted" d="M 207690.91840000002 174738 L 231810.91840000002 174738 231810.91840000002 195798 207690.91840000002 195798 Z"></path></g><g><g direction="ltr" style="opacity: 1;"><g transform="matrix(381,0,0,380.99999999999994,211347.91840000002,181077)"><g pointer-events="none"><g id="editor-g3c5246b155_0_77-paragraph-0"><g><g class="sketchy-text-background" visibility="visible"></g><g></g><g class="sketchy-text-content" visibility="visible"><g class="sketchy-text-content-text" transform="translate(0 17.919999999999998)"><text x="4.636012580451066px" style="font-family:Merriweather;font-size:18.666666666666664px;fill:#434343;white-space:pre;" y="0px" text-rendering="geometricPrecision">Avg</text></g></g></g></g></g><rect style="opacity: 0;"></rect><rect style="opacity: 1;"></rect></g><g><path d="M 213114.23919315188 181077 L 226387.59760684817 181077 226387.59760684817 189611.4 213114.23919315188 189611.4 Z" pointer-events="visiblePainted" fill="#000000" stroke="#000000" opacity="0"></path></g><g transform="matrix(381,0,0,380.99999999999994,211347.91840000002,181077)"></g></g></g></g></g></g><g id="editor-g3c5246b155_0_79"><g><g></g><g><path stroke="#434343" stroke-opacity="1" stroke-width="762" stroke-linecap="butt" stroke-linejoin="round" stroke-miterlimit="8" d="M 111039.7552 148356.9999 L 176061.89995941968 169401.18478927074"></path><path fill="#434343" fill-opacity="1" stroke="#434343" stroke-opacity="1" stroke-width="762" stroke-linecap="butt" stroke-linejoin="miter" stroke-miterlimit="10" d="M 175674.31995217112 170598.7262226774 L 179351.8489522951 170465.96502896457 176449.47996666824 168203.6433558641 Z"></path></g><g><path stroke="#000" stroke-opacity="0" stroke-width="2714.2480211081793" stroke-linecap="round" stroke-linejoin="round" stroke-miterlimit="10" pointer-events="visiblePainted" d="M 111039.7552 148356.9999 L 176061.89995941968 169401.18478927074"></path></g></g></g><g id="editor-g3c5246b155_0_80"><g><g></g><g><path stroke="#434343" stroke-opacity="1" stroke-width="762" stroke-linecap="butt" stroke-linejoin="round" stroke-miterlimit="8" d="M 157783.0052 148356.9999 L 177169.23139097274 167589.04083494697"></path><path fill="#434343" fill-opacity="1" stroke="#434343" stroke-opacity="1" stroke-width="762" stroke-linecap="butt" stroke-linejoin="miter" stroke-miterlimit="10" d="M 176282.757202521 168482.62197841035 L 179624.12464224573 170024.40948453962 178055.70557942448 166695.4596914836 Z"></path></g><g><path stroke="#000" stroke-opacity="0" stroke-width="2714.2480211081793" stroke-linecap="round" stroke-linejoin="round" stroke-miterlimit="10" pointer-events="visiblePainted" d="M 157783.0052 148356.9999 L 177169.23139097274 167589.04083494697"></path></g></g></g><g id="editor-g3c5246b155_0_81"><g><g></g><g><path stroke="#434343" stroke-opacity="1" stroke-width="762" stroke-linecap="butt" stroke-linejoin="round" stroke-miterlimit="8" d="M 204526.2552 148356.9999 L 183752.78939443865 167693.8926971171"></path><path fill="#434343" fill-opacity="1" stroke="#434343" stroke-opacity="1" stroke-width="762" stroke-linecap="butt" stroke-linejoin="miter" stroke-miterlimit="10" d="M 182895.1815572504 166772.57161066687 L 181221.68750858642 170049.95818389792 184610.39723162688 168615.2137835673 Z"></path></g><g><path stroke="#000" stroke-opacity="0" stroke-width="2714.2480211081793" stroke-linecap="round" stroke-linejoin="round" stroke-miterlimit="10" pointer-events="visiblePainted" d="M 204526.2552 148356.9999 L 183752.78939443865 167693.8926971171"></path></g></g></g><g id="editor-g3c5246b155_0_82"><g><g></g><g><path stroke="#434343" stroke-opacity="1" stroke-width="762" stroke-linecap="butt" stroke-linejoin="round" stroke-miterlimit="8" d="M 251269.5052 148356.9999 L 184767.95566314185 169428.0243171823"></path><path fill="#434343" fill-opacity="1" stroke="#434343" stroke-opacity="1" stroke-width="762" stroke-linecap="butt" stroke-linejoin="miter" stroke-miterlimit="10" d="M 184387.76474011553 168228.11656706448 L 181471.50580018078 170472.50487494696 185148.14658616818 170627.93206730013 Z"></path></g><g><path stroke="#000" stroke-opacity="0" stroke-width="2714.2480211081793" stroke-linecap="round" stroke-linejoin="round" stroke-miterlimit="10" pointer-events="visiblePainted" d="M 251269.5052 148356.9999 L 184767.95566314185 169428.0243171823"></path></g></g></g><g id="editor-g3c5246b155_0_83"><g><g></g><g><path stroke="#434343" stroke-opacity="1" stroke-width="762" stroke-linecap="butt" stroke-linejoin="round" stroke-miterlimit="8" d="M 298012.7552 148356.9999 L 184903.64171829878 169951.607177986"></path><path fill="#434343" fill-opacity="1" stroke="#434343" stroke-opacity="1" stroke-width="762" stroke-linecap="butt" stroke-linejoin="miter" stroke-miterlimit="10" d="M 184667.59632080272 168715.23898158764 L 181507.0257941274 170600.08354473344 185139.68711579483 171187.97537438438 Z"></path></g><g><path stroke="#000" stroke-opacity="0" stroke-width="2714.2480211081793" stroke-linecap="round" stroke-linejoin="round" stroke-miterlimit="10" pointer-events="visiblePainted" d="M 298012.7552 148356.9999 L 184903.64171829878 169951.607177986"></path></g></g></g><g id="editor-g3c5246b155_0_84"><g><g></g><g><path stroke="#434343" stroke-opacity="1" stroke-width="762" stroke-linecap="butt" stroke-linejoin="round" stroke-miterlimit="8" d="M 111039.7552 148356.9999 L 218600.87304968497 169910.69503727756"></path><path fill="#434343" fill-opacity="1" stroke="#434343" stroke-opacity="1" stroke-width="762" stroke-linecap="butt" stroke-linejoin="miter" stroke-miterlimit="10" d="M 218353.56429262453 171144.85958280045 L 221991.43498793463 170590.1146995315 218848.18180674542 168676.53049175467 Z"></path></g><g><path stroke="#000" stroke-opacity="0" stroke-width="2714.2480211081793" stroke-linecap="round" stroke-linejoin="round" stroke-miterlimit="10" pointer-events="visiblePainted" d="M 111039.7552 148356.9999 L 218600.87304968497 169910.69503727756"></path></g></g></g><g id="editor-g3c5246b155_0_85"><g><g></g><g><path stroke="#434343" stroke-opacity="1" stroke-width="762" stroke-linecap="butt" stroke-linejoin="round" stroke-miterlimit="8" d="M 157783.0052 148356.9999 L 218763.4024000218 169322.51316005894"></path><path fill="#434343" fill-opacity="1" stroke="#434343" stroke-opacity="1" stroke-width="762" stroke-linecap="butt" stroke-linejoin="miter" stroke-miterlimit="10" d="M 218354.1636178476 170512.8271379274 L 222033.4957458143 170446.79552866932 219172.64118219598 168132.19918219047 Z"></path></g><g><path stroke="#000" stroke-opacity="0" stroke-width="2714.2480211081793" stroke-linecap="round" stroke-linejoin="round" stroke-miterlimit="10" pointer-events="visiblePainted" d="M 157783.0052 148356.9999 L 218763.4024000218 169322.51316005894"></path></g></g></g><g id="editor-g3c5246b155_0_86"><g><g></g><g><path stroke="#434343" stroke-opacity="1" stroke-width="762" stroke-linecap="butt" stroke-linejoin="round" stroke-miterlimit="8" d="M 204526.2552 148356.9999 L 220165.9951188291 167284.524730614"></path><path fill="#434343" fill-opacity="1" stroke="#434343" stroke-opacity="1" stroke-width="762" stroke-linecap="butt" stroke-linejoin="miter" stroke-miterlimit="10" d="M 219195.68580669904 168086.2875294131 L 222368.64017047494 169950.20965404823 221136.30443095916 166482.76193181492 Z"></path></g><g><path stroke="#000" stroke-opacity="0" stroke-width="2714.2480211081793" stroke-linecap="round" stroke-linejoin="round" stroke-miterlimit="10" pointer-events="visiblePainted" d="M 204526.2552 148356.9999 L 220165.9951188291 167284.524730614"></path></g></g></g><g id="editor-g3c5246b155_0_87"><g><g></g><g><path stroke="#434343" stroke-opacity="1" stroke-width="762" stroke-linecap="butt" stroke-linejoin="round" stroke-miterlimit="8" d="M 251269.5052 148356.9999 L 226657.7190453147 167960.5128397259"></path><path fill="#434343" fill-opacity="1" stroke="#434343" stroke-opacity="1" stroke-width="762" stroke-linecap="butt" stroke-linejoin="miter" stroke-miterlimit="10" d="M 225873.51334454096 166975.9595574611 L 223952.90233579595 170114.92410558782 227441.92474608845 168945.06612199073 Z"></path></g><g><path stroke="#000" stroke-opacity="0" stroke-width="2714.2480211081793" stroke-linecap="round" stroke-linejoin="round" stroke-miterlimit="10" pointer-events="visiblePainted" d="M 251269.5052 148356.9999 L 226657.7190453147 167960.5128397259"></path></g></g></g><g id="editor-g3c5246b155_0_88"><g><g></g><g><path stroke="#434343" stroke-opacity="1" stroke-width="762" stroke-linecap="butt" stroke-linejoin="round" stroke-miterlimit="8" d="M 298012.7552 148356.9999 L 227464.361454388 169496.6611264638"></path><path fill="#434343" fill-opacity="1" stroke="#434343" stroke-opacity="1" stroke-width="762" stroke-linecap="butt" stroke-linejoin="miter" stroke-miterlimit="10" d="M 227103.06665972123 168290.9290591739 L 224151.91072007513 170489.22924368022 227825.6562490548 170702.39319375367 Z"></path></g><g><path stroke="#000" stroke-opacity="0" stroke-width="2714.2480211081793" stroke-linecap="round" stroke-linejoin="round" stroke-miterlimit="10" pointer-events="visiblePainted" d="M 298012.7552 148356.9999 L 227464.361454388 169496.6611264638"></path></g></g></g><g id="editor-g3c5246b155_0_89"><g><g><path fill="#EA9999" fill-opacity="1" d="M 97399.7691 130706.82716 L 117961.10514 130706.82716 117961.10514 151700.1632 97399.7691 151700.1632 Z"></path><path fill="#bb7a7a" fill-opacity="1" d="M 117961.10514 130706.82716 L 125203.7691 123464.1632 125203.7691 144457.49924 117961.10514 151700.1632 Z"></path><path fill="#eeadad" fill-opacity="1" d="M 97399.7691 130706.82716 L 104642.43306000001 123464.1632 125203.7691 123464.1632 117961.10514 130706.82716 Z"></path><path stroke="#434343" stroke-opacity="1" stroke-width="381" stroke-linecap="butt" stroke-linejoin="round" stroke-miterlimit="8" d="M 97399.7691 130706.82716 L 104642.43306000001 123464.1632 125203.7691 123464.1632 125203.7691 144457.49924 117961.10514 151700.1632 97399.7691 151700.1632 Z M 97399.7691 130706.82716 L 117961.10514 130706.82716 125203.7691 123464.1632 M 117961.10514 130706.82716 L 117961.10514 151700.1632"></path></g><g><path fill="#000" fill-opacity="0" pointer-events="visiblePainted" d="M 97399.7691 130706.82716 L 117961.10514 130706.82716 117961.10514 151700.1632 97399.7691 151700.1632 Z"></path><path fill="#000" fill-opacity="0" pointer-events="visiblePainted" d="M 117961.10514 130706.82716 L 125203.7691 123464.1632 125203.7691 144457.49924 117961.10514 151700.1632 Z"></path><path fill="#000" fill-opacity="0" pointer-events="visiblePainted" d="M 97399.7691 130706.82716 L 104642.43306000001 123464.1632 125203.7691 123464.1632 117961.10514 130706.82716 Z"></path><path stroke="#000" stroke-opacity="0" stroke-width="2714.2480211081793" stroke-linecap="round" stroke-linejoin="round" stroke-miterlimit="10" pointer-events="visiblePainted" d="M 97399.7691 130706.82716 L 104642.43306000001 123464.1632 125203.7691 123464.1632 125203.7691 144457.49924 117961.10514 151700.1632 97399.7691 151700.1632 Z M 97399.7691 130706.82716 L 117961.10514 130706.82716 125203.7691 123464.1632 M 117961.10514 130706.82716 L 117961.10514 151700.1632"></path></g></g></g><g id="editor-g3c5246b155_0_90"><g><g><path fill="#EA9999" fill-opacity="1" d="M 144143.2053 130706.82716 L 164704.54134 130706.82716 164704.54134 151700.1632 144143.2053 151700.1632 Z"></path><path fill="#bb7a7a" fill-opacity="1" d="M 164704.54134 130706.82716 L 171947.2053 123464.1632 171947.2053 144457.49924 164704.54134 151700.1632 Z"></path><path fill="#eeadad" fill-opacity="1" d="M 144143.2053 130706.82716 L 151385.86926 123464.1632 171947.2053 123464.1632 164704.54134 130706.82716 Z"></path><path stroke="#434343" stroke-opacity="1" stroke-width="381" stroke-linecap="butt" stroke-linejoin="round" stroke-miterlimit="8" d="M 144143.2053 130706.82716 L 151385.86926 123464.1632 171947.2053 123464.1632 171947.2053 144457.49924 164704.54134 151700.1632 144143.2053 151700.1632 Z M 144143.2053 130706.82716 L 164704.54134 130706.82716 171947.2053 123464.1632 M 164704.54134 130706.82716 L 164704.54134 151700.1632"></path></g><g><path fill="#000" fill-opacity="0" pointer-events="visiblePainted" d="M 144143.2053 130706.82716 L 164704.54134 130706.82716 164704.54134 151700.1632 144143.2053 151700.1632 Z"></path><path fill="#000" fill-opacity="0" pointer-events="visiblePainted" d="M 164704.54134 130706.82716 L 171947.2053 123464.1632 171947.2053 144457.49924 164704.54134 151700.1632 Z"></path><path fill="#000" fill-opacity="0" pointer-events="visiblePainted" d="M 144143.2053 130706.82716 L 151385.86926 123464.1632 171947.2053 123464.1632 164704.54134 130706.82716 Z"></path><path stroke="#000" stroke-opacity="0" stroke-width="2714.2480211081793" stroke-linecap="round" stroke-linejoin="round" stroke-miterlimit="10" pointer-events="visiblePainted" d="M 144143.2053 130706.82716 L 151385.86926 123464.1632 171947.2053 123464.1632 171947.2053 144457.49924 164704.54134 151700.1632 144143.2053 151700.1632 Z M 144143.2053 130706.82716 L 164704.54134 130706.82716 171947.2053 123464.1632 M 164704.54134 130706.82716 L 164704.54134 151700.1632"></path></g></g></g><g id="editor-g3c5246b155_0_91"><g><g><path fill="#EA9999" fill-opacity="1" d="M 190886.6415 130706.82716 L 211447.97754 130706.82716 211447.97754 151700.1632 190886.6415 151700.1632 Z"></path><path fill="#bb7a7a" fill-opacity="1" d="M 211447.97754 130706.82716 L 218690.6415 123464.1632 218690.6415 144457.49924 211447.97754 151700.1632 Z"></path><path fill="#eeadad" fill-opacity="1" d="M 190886.6415 130706.82716 L 198129.30546 123464.1632 218690.6415 123464.1632 211447.97754 130706.82716 Z"></path><path stroke="#434343" stroke-opacity="1" stroke-width="381" stroke-linecap="butt" stroke-linejoin="round" stroke-miterlimit="8" d="M 190886.6415 130706.82716 L 198129.30546 123464.1632 218690.6415 123464.1632 218690.6415 144457.49924 211447.97754 151700.1632 190886.6415 151700.1632 Z M 190886.6415 130706.82716 L 211447.97754 130706.82716 218690.6415 123464.1632 M 211447.97754 130706.82716 L 211447.97754 151700.1632"></path></g><g><path fill="#000" fill-opacity="0" pointer-events="visiblePainted" d="M 190886.6415 130706.82716 L 211447.97754 130706.82716 211447.97754 151700.1632 190886.6415 151700.1632 Z"></path><path fill="#000" fill-opacity="0" pointer-events="visiblePainted" d="M 211447.97754 130706.82716 L 218690.6415 123464.1632 218690.6415 144457.49924 211447.97754 151700.1632 Z"></path><path fill="#000" fill-opacity="0" pointer-events="visiblePainted" d="M 190886.6415 130706.82716 L 198129.30546 123464.1632 218690.6415 123464.1632 211447.97754 130706.82716 Z"></path><path stroke="#000" stroke-opacity="0" stroke-width="2714.2480211081793" stroke-linecap="round" stroke-linejoin="round" stroke-miterlimit="10" pointer-events="visiblePainted" d="M 190886.6415 130706.82716 L 198129.30546 123464.1632 218690.6415 123464.1632 218690.6415 144457.49924 211447.97754 151700.1632 190886.6415 151700.1632 Z M 190886.6415 130706.82716 L 211447.97754 130706.82716 218690.6415 123464.1632 M 211447.97754 130706.82716 L 211447.97754 151700.1632"></path></g></g></g><g id="editor-g3c5246b155_0_92"><g><g><path fill="#EA9999" fill-opacity="1" d="M 237630.0777 130706.82716 L 258191.41374 130706.82716 258191.41374 151700.1632 237630.0777 151700.1632 Z"></path><path fill="#bb7a7a" fill-opacity="1" d="M 258191.41374 130706.82716 L 265434.0777 123464.1632 265434.0777 144457.49924 258191.41374 151700.1632 Z"></path><path fill="#eeadad" fill-opacity="1" d="M 237630.0777 130706.82716 L 244872.74166 123464.1632 265434.0777 123464.1632 258191.41374 130706.82716 Z"></path><path stroke="#434343" stroke-opacity="1" stroke-width="381" stroke-linecap="butt" stroke-linejoin="round" stroke-miterlimit="8" d="M 237630.0777 130706.82716 L 244872.74166 123464.1632 265434.0777 123464.1632 265434.0777 144457.49924 258191.41374 151700.1632 237630.0777 151700.1632 Z M 237630.0777 130706.82716 L 258191.41374 130706.82716 265434.0777 123464.1632 M 258191.41374 130706.82716 L 258191.41374 151700.1632"></path></g><g><path fill="#000" fill-opacity="0" pointer-events="visiblePainted" d="M 237630.0777 130706.82716 L 258191.41374 130706.82716 258191.41374 151700.1632 237630.0777 151700.1632 Z"></path><path fill="#000" fill-opacity="0" pointer-events="visiblePainted" d="M 258191.41374 130706.82716 L 265434.0777 123464.1632 265434.0777 144457.49924 258191.41374 151700.1632 Z"></path><path fill="#000" fill-opacity="0" pointer-events="visiblePainted" d="M 237630.0777 130706.82716 L 244872.74166 123464.1632 265434.0777 123464.1632 258191.41374 130706.82716 Z"></path><path stroke="#000" stroke-opacity="0" stroke-width="2714.2480211081793" stroke-linecap="round" stroke-linejoin="round" stroke-miterlimit="10" pointer-events="visiblePainted" d="M 237630.0777 130706.82716 L 244872.74166 123464.1632 265434.0777 123464.1632 265434.0777 144457.49924 258191.41374 151700.1632 237630.0777 151700.1632 Z M 237630.0777 130706.82716 L 258191.41374 130706.82716 265434.0777 123464.1632 M 258191.41374 130706.82716 L 258191.41374 151700.1632"></path></g></g></g><g id="editor-g3c5246b155_0_93"><g><g><path fill="#EA9999" fill-opacity="1" d="M 284373.5139 130706.82716 L 304934.84994000004 130706.82716 304934.84994000004 151700.1632 284373.5139 151700.1632 Z"></path><path fill="#bb7a7a" fill-opacity="1" d="M 304934.84994000004 130706.82716 L 312177.5139 123464.1632 312177.5139 144457.49924 304934.84994000004 151700.1632 Z"></path><path fill="#eeadad" fill-opacity="1" d="M 284373.5139 130706.82716 L 291616.17786 123464.1632 312177.5139 123464.1632 304934.84994000004 130706.82716 Z"></path><path stroke="#434343" stroke-opacity="1" stroke-width="381" stroke-linecap="butt" stroke-linejoin="round" stroke-miterlimit="8" d="M 284373.5139 130706.82716 L 291616.17786 123464.1632 312177.5139 123464.1632 312177.5139 144457.49924 304934.84994000004 151700.1632 284373.5139 151700.1632 Z M 284373.5139 130706.82716 L 304934.84994000004 130706.82716 312177.5139 123464.1632 M 304934.84994000004 130706.82716 L 304934.84994000004 151700.1632"></path></g><g><path fill="#000" fill-opacity="0" pointer-events="visiblePainted" d="M 284373.5139 130706.82716 L 304934.84994000004 130706.82716 304934.84994000004 151700.1632 284373.5139 151700.1632 Z"></path><path fill="#000" fill-opacity="0" pointer-events="visiblePainted" d="M 304934.84994000004 130706.82716 L 312177.5139 123464.1632 312177.5139 144457.49924 304934.84994000004 151700.1632 Z"></path><path fill="#000" fill-opacity="0" pointer-events="visiblePainted" d="M 284373.5139 130706.82716 L 291616.17786 123464.1632 312177.5139 123464.1632 304934.84994000004 130706.82716 Z"></path><path stroke="#000" stroke-opacity="0" stroke-width="2714.2480211081793" stroke-linecap="round" stroke-linejoin="round" stroke-miterlimit="10" pointer-events="visiblePainted" d="M 284373.5139 130706.82716 L 291616.17786 123464.1632 312177.5139 123464.1632 312177.5139 144457.49924 304934.84994000004 151700.1632 284373.5139 151700.1632 Z M 284373.5139 130706.82716 L 304934.84994000004 130706.82716 312177.5139 123464.1632 M 304934.84994000004 130706.82716 L 304934.84994000004 151700.1632"></path></g></g></g><g id="editor-g3c5246b155_0_94"><g><g></g><g><path stroke="#434343" stroke-opacity="1" stroke-width="762" stroke-linecap="butt" stroke-linejoin="round" stroke-miterlimit="8" d="M 110069.4058 93040.3264 L 110007.07855691374 122500.33663210095"></path><path fill="#434343" fill-opacity="1" stroke="#434343" stroke-opacity="1" stroke-width="762" stroke-linecap="butt" stroke-linejoin="miter" stroke-miterlimit="10" d="M 108748.38214580278 122497.67366367124 L 109999.76270957936 125958.2938054827 111265.77496802469 122502.99960053066 Z"></path></g><g><path stroke="#000" stroke-opacity="0" stroke-width="2714.2480211081793" stroke-linecap="round" stroke-linejoin="round" stroke-miterlimit="10" pointer-events="visiblePainted" d="M 110069.4058 93040.3264 L 110007.07855691374 122500.33663210095"></path></g></g></g><g id="editor-g3c5246b155_0_95"><g><g></g><g><path stroke="#434343" stroke-opacity="1" stroke-width="762" stroke-linecap="butt" stroke-linejoin="round" stroke-miterlimit="8" d="M 203207.577 93040.3264 L 203404.94722194652 122500.42900212332"></path><path fill="#434343" fill-opacity="1" stroke="#434343" stroke-opacity="1" stroke-width="762" stroke-linecap="butt" stroke-linejoin="miter" stroke-miterlimit="10" d="M 202146.27624086136 122508.86156511366 L 203428.11360378814 125958.31631279683 204663.61820303168 122491.99643913297 Z"></path></g><g><path stroke="#000" stroke-opacity="0" stroke-width="2714.2480211081793" stroke-linecap="round" stroke-linejoin="round" stroke-miterlimit="10" pointer-events="visiblePainted" d="M 203207.577 93040.3264 L 203404.94722194652 122500.42900212332"></path></g></g></g><g id="editor-g3c5246b155_0_96"><g><g></g><g><path stroke="#434343" stroke-opacity="1" stroke-width="762" stroke-linecap="butt" stroke-linejoin="round" stroke-miterlimit="8" d="M 156902.8586 93040.1632 L 156736.6522656693 122500.2359601157"></path><path fill="#434343" fill-opacity="1" stroke="#434343" stroke-opacity="1" stroke-width="762" stroke-linecap="butt" stroke-linejoin="miter" stroke-miterlimit="10" d="M 155477.97306889822 122493.13480808877 L 156717.1436062547 125958.14584135498 157995.3314624404 122507.33711214262 Z"></path></g><g><path stroke="#000" stroke-opacity="0" stroke-width="2714.2480211081793" stroke-linecap="round" stroke-linejoin="round" stroke-miterlimit="10" pointer-events="visiblePainted" d="M 156902.8586 93040.1632 L 156736.6522656693 122500.2359601157"></path></g></g></g><g id="editor-g3c5246b155_0_97"><g><g></g><g><path stroke="#434343" stroke-opacity="1" stroke-width="762" stroke-linecap="butt" stroke-linejoin="round" stroke-miterlimit="8" d="M 250072.1322 93040.3264 L 250144.84732605398 122500.34032700941"></path><path fill="#434343" fill-opacity="1" stroke="#434343" stroke-opacity="1" stroke-width="762" stroke-linecap="butt" stroke-linejoin="miter" stroke-miterlimit="10" d="M 248886.15193217364 122503.44712099995 L 250153.3824743796 125958.29470580153 251403.5427199343 122497.23353301888 Z"></path></g><g><path stroke="#000" stroke-opacity="0" stroke-width="2714.2480211081793" stroke-linecap="round" stroke-linejoin="round" stroke-miterlimit="10" pointer-events="visiblePainted" d="M 250072.1322 93040.3264 L 250144.84732605398 122500.34032700941"></path></g></g></g><g id="editor-g3c5246b155_0_98"><g><g></g><g><path stroke="#434343" stroke-opacity="1" stroke-width="762" stroke-linecap="butt" stroke-linejoin="round" stroke-miterlimit="8" d="M 296656.769 93040.3264 L 296843.7512487855 122500.41848643542"></path><path fill="#434343" fill-opacity="1" stroke="#434343" stroke-opacity="1" stroke-width="762" stroke-linecap="butt" stroke-linejoin="miter" stroke-miterlimit="10" d="M 295585.0773726675 122508.40724869569 L 296865.6983978522 125958.31375049596 298102.42512490356 122492.42972417515 Z"></path></g><g><path stroke="#000" stroke-opacity="0" stroke-width="2714.2480211081793" stroke-linecap="round" stroke-linejoin="round" stroke-miterlimit="10" pointer-events="visiblePainted" d="M 296656.769 93040.3264 L 296843.7512487855 122500.41848643542"></path></g></g></g><g id="editor-g3c5246b155_0_99"><g><g></g><g><path stroke="#434343" stroke-opacity="1" stroke-width="762" stroke-linecap="butt" stroke-linejoin="round" stroke-miterlimit="8" stroke-dasharray="3048,2286" d="M 78011.1565 82223.9982 L 92915.1565 82223.9982"></path><path fill="#434343" fill-opacity="1" stroke="#434343" stroke-opacity="1" stroke-width="762" stroke-linecap="butt" stroke-linejoin="miter" stroke-miterlimit="10" d="M 92915.1565 83482.69742807018 L 96373.1214122807 82223.9982 92915.1565 80965.29897192982 Z"></path></g><g><path stroke="#000" stroke-opacity="0" stroke-width="2714.2480211081793" stroke-linecap="round" stroke-linejoin="round" stroke-miterlimit="10" pointer-events="visiblePainted" d="M 78011.1565 82223.9982 L 92915.1565 82223.9982"></path></g></g></g><g id="editor-g3c5246b155_0_107"><g id="editor-g3c5246b155_0_100"><g><g><path fill="#B6D7A8" fill-opacity="1" stroke="#666666" stroke-opacity="1" stroke-width="381" stroke-linecap="butt" stroke-linejoin="round" stroke-miterlimit="8" d="M 99732.0701 79984.9342 C 99732.0701 72462.8159073046 105829.95180730459 66364.9342 113352.0701 66364.9342 116964.31869161458 66364.9342 120428.61898529854 67799.89436577699 122982.86445976078 70354.13984023922 125537.109934223 72908.38531470146 126972.0701 76372.6856083854 126972.0701 79984.9342 126972.0701 87507.05249269541 120874.1883926954 93604.9342 113352.0701 93604.9342 105829.95180730459 93604.9342 99732.0701 87507.05249269541 99732.0701 79984.9342 Z"></path></g></g></g><g id="editor-g3c5246b155_0_101"><g><g><path fill="#B6D7A8" fill-opacity="1" stroke="#666666" stroke-opacity="1" stroke-width="381" stroke-linecap="butt" stroke-linejoin="round" stroke-miterlimit="8" d="M 99172.2333 80544.771 C 99172.2333 73022.65270730459 105270.1150073046 66924.771 112792.2333 66924.771 116404.48189161459 66924.771 119868.78218529855 68359.73116577698 122423.02765976079 70913.97664023921 124977.27313422301 73468.22211470145 126412.2333 76932.5224083854 126412.2333 80544.771 126412.2333 88066.8892926954 120314.35159269541 94164.771 112792.2333 94164.771 105270.1150073046 94164.771 99172.2333 88066.8892926954 99172.2333 80544.771 Z"></path></g></g></g><g id="editor-g3c5246b155_0_102"><g><g><path fill="#B6D7A8" fill-opacity="1" stroke="#666666" stroke-opacity="1" stroke-width="381" stroke-linecap="butt" stroke-linejoin="round" stroke-miterlimit="8" d="M 98612.3965 81104.6078 C 98612.3965 73582.48950730459 104710.2782073046 67484.6078 112232.3965 67484.6078 115844.64509161458 67484.6078 119308.94538529855 68919.56796577698 121863.19085976078 71473.81344023922 124417.43633422302 74028.05891470145 125852.3965 77492.3592083854 125852.3965 81104.6078 125852.3965 88626.7260926954 119754.51479269541 94724.6078 112232.3965 94724.6078 104710.2782073046 94724.6078 98612.3965 88626.7260926954 98612.3965 81104.6078 Z"></path></g></g></g><g id="editor-g3c5246b155_0_103"><g><g><path fill="#B6D7A8" fill-opacity="1" stroke="#666666" stroke-opacity="1" stroke-width="381" stroke-linecap="butt" stroke-linejoin="round" stroke-miterlimit="8" d="M 98052.5597 81664.4446 C 98052.5597 74142.3263073046 104150.44140730459 68044.4446 111672.5597 68044.4446 115284.80829161458 68044.4446 118749.10858529854 69479.40476577698 121303.35405976078 72033.65024023922 123857.599534223 74587.89571470146 125292.5597 78052.1960083854 125292.5597 81664.4446 125292.5597 89186.56289269541 119194.6779926954 95284.4446 111672.5597 95284.4446 104150.44140730459 95284.4446 98052.5597 89186.56289269541 98052.5597 81664.4446 Z"></path></g></g></g><g id="editor-g3c5246b155_0_104"><g><g><path fill="#B6D7A8" fill-opacity="1" stroke="#666666" stroke-opacity="1" stroke-width="381" stroke-linecap="butt" stroke-linejoin="round" stroke-miterlimit="8" d="M 97492.72290000001 82224.2814 C 97492.72290000001 74702.1631073046 103590.6046073046 68604.2814 111112.72290000001 68604.2814 114724.97149161459 68604.2814 118189.27178529855 70039.24156577699 120743.51725976079 72593.48704023923 123297.76273422301 75147.73251470146 124732.72290000001 78612.03280838541 124732.72290000001 82224.2814 124732.72290000001 89746.39969269541 118634.84119269541 95844.2814 111112.72290000001 95844.2814 103590.6046073046 95844.2814 97492.72290000001 89746.39969269541 97492.72290000001 82224.2814 Z"></path></g></g></g><g id="editor-g3c5246b155_0_105"><g><g><path fill="#B6D7A8" fill-opacity="1" stroke="#666666" stroke-opacity="1" stroke-width="381" stroke-linecap="butt" stroke-linejoin="round" stroke-miterlimit="8" d="M 96932.8861 82784.1182 C 96932.8861 75261.99990730459 103030.7678073046 69164.1182 110552.8861 69164.1182 114165.13469161458 69164.1182 117629.43498529855 70599.07836577698 120183.68045976078 73153.32384023922 122737.92593422302 75707.56931470145 124172.8861 79171.8696083854 124172.8861 82784.1182 124172.8861 90306.2364926954 118075.00439269541 96404.1182 110552.8861 96404.1182 103030.7678073046 96404.1182 96932.8861 90306.2364926954 96932.8861 82784.1182 Z"></path></g></g></g><g id="editor-g3c5246b155_0_106"><g><g><path fill="#B6D7A8" fill-opacity="1" stroke="#666666" stroke-opacity="1" stroke-width="381" stroke-linecap="butt" stroke-linejoin="round" stroke-miterlimit="8" d="M 96373.0493 83343.955 C 96373.0493 75821.8367073046 102470.93100730459 69723.955 109993.0493 69723.955 113605.29789161458 69723.955 117069.59818529854 71158.91516577698 119623.84365976078 73713.16064023922 122178.089134223 76267.40611470146 123613.0493 79731.7064083854 123613.0493 83343.955 123613.0493 90866.07329269541 117515.1675926954 96963.955 109993.0493 96963.955 102470.93100730459 96963.955 96373.0493 90866.07329269541 96373.0493 83343.955 Z"></path></g></g></g></g><g id="editor-g3c5246b155_0_108"><g><g></g><g><path stroke="#434343" stroke-opacity="1" stroke-width="762" stroke-linecap="butt" stroke-linejoin="round" stroke-miterlimit="8" d="M 124732.1565 82223.9982 L 139636.15650000004 82223.9982"></path><path fill="#434343" fill-opacity="1" stroke="#434343" stroke-opacity="1" stroke-width="762" stroke-linecap="butt" stroke-linejoin="miter" stroke-miterlimit="10" d="M 139636.15650000004 83482.69742807018 L 143094.12141228074 82223.9982 139636.15650000004 80965.29897192982 Z"></path></g><g><path stroke="#000" stroke-opacity="0" stroke-width="2714.2480211081793" stroke-linecap="round" stroke-linejoin="round" stroke-miterlimit="10" pointer-events="visiblePainted" d="M 124732.1565 82223.9982 L 139636.15650000004 82223.9982"></path></g></g></g><g id="editor-g3c5246b155_0_109"><g><g></g><g><path stroke="#434343" stroke-opacity="1" stroke-width="762" stroke-linecap="butt" stroke-linejoin="round" stroke-miterlimit="8" d="M 111189.0794 34568.3264 L 111126.75215691375 64028.336632100574"></path><path fill="#434343" fill-opacity="1" stroke="#434343" stroke-opacity="1" stroke-width="762" stroke-linecap="butt" stroke-linejoin="miter" stroke-miterlimit="10" d="M 109868.05574580279 64025.67366367087 L 111119.43630957938 67486.29380548232 112385.4485680247 64030.99960053028 Z"></path></g><g><path stroke="#000" stroke-opacity="0" stroke-width="2714.2480211081793" stroke-linecap="round" stroke-linejoin="round" stroke-miterlimit="10" pointer-events="visiblePainted" d="M 111189.0794 34568.3264 L 111126.75215691375 64028.336632100574"></path></g></g></g><g id="editor-g3c5246b155_0_117"><g id="editor-g3c5246b155_0_110"><g><g><path fill="#B6D7A8" fill-opacity="1" stroke="#666666" stroke-opacity="1" stroke-width="381" stroke-linecap="butt" stroke-linejoin="round" stroke-miterlimit="8" d="M 146452.6701 79984.9342 C 146452.6701 72462.8159073046 152550.55180730458 66364.9342 160072.6701 66364.9342 163684.91869161458 66364.9342 167149.21898529853 67799.89436577699 169703.46445976075 70354.13984023922 172257.709934223 72908.38531470146 173692.6701 76372.6856083854 173692.6701 79984.9342 173692.6701 87507.05249269541 167594.7883926954 93604.9342 160072.6701 93604.9342 152550.55180730458 93604.9342 146452.6701 87507.05249269541 146452.6701 79984.9342 Z"></path></g></g></g><g id="editor-g3c5246b155_0_111"><g><g><path fill="#B6D7A8" fill-opacity="1" stroke="#666666" stroke-opacity="1" stroke-width="381" stroke-linecap="butt" stroke-linejoin="round" stroke-miterlimit="8" d="M 145892.8333 80544.771 C 145892.8333 73022.65270730459 151990.7150073046 66924.771 159512.8333 66924.771 163125.0818916146 66924.771 166589.38218529854 68359.73116577698 169143.62765976076 70913.97664023921 171697.87313422302 73468.22211470145 173132.8333 76932.5224083854 173132.8333 80544.771 173132.8333 88066.8892926954 167034.9515926954 94164.771 159512.8333 94164.771 151990.7150073046 94164.771 145892.8333 88066.8892926954 145892.8333 80544.771 Z"></path></g></g></g><g id="editor-g3c5246b155_0_112"><g><g><path fill="#B6D7A8" fill-opacity="1" stroke="#666666" stroke-opacity="1" stroke-width="381" stroke-linecap="butt" stroke-linejoin="round" stroke-miterlimit="8" d="M 145332.9965 81104.6078 C 145332.9965 73582.48950730459 151430.8782073046 67484.6078 158952.9965 67484.6078 162565.2450916146 67484.6078 166029.54538529855 68919.56796577698 168583.79085976077 71473.81344023922 171138.03633422303 74028.05891470145 172572.9965 77492.3592083854 172572.9965 81104.6078 172572.9965 88626.7260926954 166475.1147926954 94724.6078 158952.9965 94724.6078 151430.8782073046 94724.6078 145332.9965 88626.7260926954 145332.9965 81104.6078 Z"></path></g></g></g><g id="editor-g3c5246b155_0_113"><g><g><path fill="#B6D7A8" fill-opacity="1" stroke="#666666" stroke-opacity="1" stroke-width="381" stroke-linecap="butt" stroke-linejoin="round" stroke-miterlimit="8" d="M 144773.1597 81664.4446 C 144773.1597 74142.3263073046 150871.04140730458 68044.4446 158393.1597 68044.4446 162005.40829161459 68044.4446 165469.70858529853 69479.40476577698 168023.95405976076 72033.65024023922 170578.199534223 74587.89571470146 172013.1597 78052.1960083854 172013.1597 81664.4446 172013.1597 89186.56289269541 165915.2779926954 95284.4446 158393.1597 95284.4446 150871.04140730458 95284.4446 144773.1597 89186.56289269541 144773.1597 81664.4446 Z"></path></g></g></g><g id="editor-g3c5246b155_0_114"><g><g><path fill="#B6D7A8" fill-opacity="1" stroke="#666666" stroke-opacity="1" stroke-width="381" stroke-linecap="butt" stroke-linejoin="round" stroke-miterlimit="8" d="M 144213.3229 82224.2814 C 144213.3229 74702.1631073046 150311.2046073046 68604.2814 157833.3229 68604.2814 161445.5714916146 68604.2814 164909.87178529854 70039.24156577699 167464.11725976077 72593.48704023923 170018.36273422302 75147.73251470146 171453.3229 78612.03280838541 171453.3229 82224.2814 171453.3229 89746.39969269541 165355.4411926954 95844.2814 157833.3229 95844.2814 150311.2046073046 95844.2814 144213.3229 89746.39969269541 144213.3229 82224.2814 Z"></path></g></g></g><g id="editor-g3c5246b155_0_115"><g><g><path fill="#B6D7A8" fill-opacity="1" stroke="#666666" stroke-opacity="1" stroke-width="381" stroke-linecap="butt" stroke-linejoin="round" stroke-miterlimit="8" d="M 143653.4861 82784.1182 C 143653.4861 75261.99990730459 149751.3678073046 69164.1182 157273.4861 69164.1182 160885.7346916146 69164.1182 164350.03498529855 70599.07836577698 166904.28045976078 73153.32384023922 169458.52593422303 75707.56931470145 170893.4861 79171.8696083854 170893.4861 82784.1182 170893.4861 90306.2364926954 164795.60439269542 96404.1182 157273.4861 96404.1182 149751.3678073046 96404.1182 143653.4861 90306.2364926954 143653.4861 82784.1182 Z"></path></g></g></g><g id="editor-g3c5246b155_0_116"><g><g><path fill="#B6D7A8" fill-opacity="1" stroke="#666666" stroke-opacity="1" stroke-width="381" stroke-linecap="butt" stroke-linejoin="round" stroke-miterlimit="8" d="M 143093.6493 83343.955 C 143093.6493 75821.8367073046 149191.53100730458 69723.955 156713.6493 69723.955 160325.8978916146 69723.955 163790.19818529853 71158.91516577698 166344.44365976076 73713.16064023922 168898.689134223 76267.40611470146 170333.6493 79731.7064083854 170333.6493 83343.955 170333.6493 90866.07329269541 164235.7675926954 96963.955 156713.6493 96963.955 149191.53100730458 96963.955 143093.6493 90866.07329269541 143093.6493 83343.955 Z"></path></g></g></g></g><g id="editor-g3c5246b155_0_118"><g><g></g><g><path stroke="#434343" stroke-opacity="1" stroke-width="762" stroke-linecap="butt" stroke-linejoin="round" stroke-miterlimit="8" d="M 171453.3229 82224.2814 L 186357.3229 82224.2814"></path><path fill="#434343" fill-opacity="1" stroke="#434343" stroke-opacity="1" stroke-width="762" stroke-linecap="butt" stroke-linejoin="miter" stroke-miterlimit="10" d="M 186357.3229 83482.98062807019 L 189815.2878122807 82224.2814 186357.3229 80965.58217192983 Z"></path></g><g><path stroke="#000" stroke-opacity="0" stroke-width="2714.2480211081793" stroke-linecap="round" stroke-linejoin="round" stroke-miterlimit="10" pointer-events="visiblePainted" d="M 171453.3229 82224.2814 L 186357.3229 82224.2814"></path></g></g></g><g id="editor-g3c5246b155_0_119"><g><g></g><g><path stroke="#434343" stroke-opacity="1" stroke-width="762" stroke-linecap="butt" stroke-linejoin="round" stroke-miterlimit="8" d="M 158022.5322 34568.3264 L 157856.3258656693 64028.39916011407"></path><path fill="#434343" fill-opacity="1" stroke="#434343" stroke-opacity="1" stroke-width="762" stroke-linecap="butt" stroke-linejoin="miter" stroke-miterlimit="10" d="M 156597.6466688982 64021.29800808716 L 157836.8172062547 67486.30904135336 159115.00506244038 64035.50031214099 Z"></path></g><g><path stroke="#000" stroke-opacity="0" stroke-width="2714.2480211081793" stroke-linecap="round" stroke-linejoin="round" stroke-miterlimit="10" pointer-events="visiblePainted" d="M 158022.5322 34568.3264 L 157856.3258656693 64028.39916011407"></path></g></g></g><g id="editor-g3c5246b155_0_127"><g id="editor-g3c5246b155_0_120"><g><g><path fill="#B6D7A8" fill-opacity="1" stroke="#666666" stroke-opacity="1" stroke-width="381" stroke-linecap="butt" stroke-linejoin="round" stroke-miterlimit="8" d="M 193173.2701 79984.4342 C 193173.2701 72462.3159073046 199271.1518073046 66364.4342 206793.2701 66364.4342 210405.5186916146 66364.4342 213869.81898529854 67799.39436577699 216424.06445976076 70353.63984023922 218978.309934223 72907.88531470146 220413.2701 76372.1856083854 220413.2701 79984.4342 220413.2701 87506.55249269541 214315.3883926954 93604.4342 206793.2701 93604.4342 199271.1518073046 93604.4342 193173.2701 87506.55249269541 193173.2701 79984.4342 Z"></path></g></g></g><g id="editor-g3c5246b155_0_121"><g><g><path fill="#B6D7A8" fill-opacity="1" stroke="#666666" stroke-opacity="1" stroke-width="381" stroke-linecap="butt" stroke-linejoin="round" stroke-miterlimit="8" d="M 192613.4333 80544.271 C 192613.4333 73022.15270730459 198711.3150073046 66924.271 206233.4333 66924.271 209845.6818916146 66924.271 213309.98218529855 68359.23116577698 215864.22765976077 70913.47664023921 218418.47313422302 73467.72211470145 219853.4333 76932.0224083854 219853.4333 80544.271 219853.4333 88066.3892926954 213755.5515926954 94164.271 206233.4333 94164.271 198711.3150073046 94164.271 192613.4333 88066.3892926954 192613.4333 80544.271 Z"></path></g></g></g><g id="editor-g3c5246b155_0_122"><g><g><path fill="#B6D7A8" fill-opacity="1" stroke="#666666" stroke-opacity="1" stroke-width="381" stroke-linecap="butt" stroke-linejoin="round" stroke-miterlimit="8" d="M 192053.59649999999 81104.1078 C 192053.59649999999 73581.98950730459 198151.47820730458 67484.1078 205673.59649999999 67484.1078 209285.84509161458 67484.1078 212750.14538529853 68919.06796577698 215304.39085976075 71473.31344023922 217858.636334223 74027.55891470145 219293.59649999999 77491.8592083854 219293.59649999999 81104.1078 219293.59649999999 88626.2260926954 213195.7147926954 94724.1078 205673.59649999999 94724.1078 198151.47820730458 94724.1078 192053.59649999999 88626.2260926954 192053.59649999999 81104.1078 Z"></path></g></g></g><g id="editor-g3c5246b155_0_123"><g><g><path fill="#B6D7A8" fill-opacity="1" stroke="#666666" stroke-opacity="1" stroke-width="381" stroke-linecap="butt" stroke-linejoin="round" stroke-miterlimit="8" d="M 191493.7597 81663.9446 C 191493.7597 74141.8263073046 197591.6414073046 68043.9446 205113.7597 68043.9446 208726.0082916146 68043.9446 212190.30858529854 69478.90476577698 214744.55405976076 72033.15024023922 217298.799534223 74587.39571470146 218733.7597 78051.6960083854 218733.7597 81663.9446 218733.7597 89186.06289269541 212635.8779926954 95283.9446 205113.7597 95283.9446 197591.6414073046 95283.9446 191493.7597 89186.06289269541 191493.7597 81663.9446 Z"></path></g></g></g><g id="editor-g3c5246b155_0_124"><g><g><path fill="#B6D7A8" fill-opacity="1" stroke="#666666" stroke-opacity="1" stroke-width="381" stroke-linecap="butt" stroke-linejoin="round" stroke-miterlimit="8" d="M 190933.9229 82223.7814 C 190933.9229 74701.6631073046 197031.8046073046 68603.7814 204553.9229 68603.7814 208166.1714916146 68603.7814 211630.47178529855 70038.74156577699 214184.71725976077 72592.98704023923 216738.96273422302 75147.23251470146 218173.9229 78611.53280838541 218173.9229 82223.7814 218173.9229 89745.89969269541 212076.0411926954 95843.7814 204553.9229 95843.7814 197031.8046073046 95843.7814 190933.9229 89745.89969269541 190933.9229 82223.7814 Z"></path></g></g></g><g id="editor-g3c5246b155_0_125"><g><g><path fill="#B6D7A8" fill-opacity="1" stroke="#666666" stroke-opacity="1" stroke-width="381" stroke-linecap="butt" stroke-linejoin="round" stroke-miterlimit="8" d="M 190374.08610000001 82783.6182 C 190374.08610000001 75261.49990730459 196471.9678073046 69163.6182 203994.08610000001 69163.6182 207606.3346916146 69163.6182 211070.63498529856 70598.57836577698 213624.88045976078 73152.82384023922 216179.12593422303 75707.06931470145 217614.08610000001 79171.3696083854 217614.08610000001 82783.6182 217614.08610000001 90305.7364926954 211516.20439269542 96403.6182 203994.08610000001 96403.6182 196471.9678073046 96403.6182 190374.08610000001 90305.7364926954 190374.08610000001 82783.6182 Z"></path></g></g></g><g id="editor-g3c5246b155_0_126"><g><g><path fill="#B6D7A8" fill-opacity="1" stroke="#666666" stroke-opacity="1" stroke-width="381" stroke-linecap="butt" stroke-linejoin="round" stroke-miterlimit="8" d="M 189814.2493 83343.455 C 189814.2493 75821.3367073046 195912.1310073046 69723.455 203434.2493 69723.455 207046.4978916146 69723.455 210510.79818529854 71158.41516577698 213065.04365976076 73712.66064023922 215619.289134223 76266.90611470146 217054.2493 79731.2064083854 217054.2493 83343.455 217054.2493 90865.57329269541 210956.3675926954 96963.455 203434.2493 96963.455 195912.1310073046 96963.455 189814.2493 90865.57329269541 189814.2493 83343.455 Z"></path></g></g></g></g><g id="editor-g3c5246b155_0_128"><g><g></g><g><path stroke="#434343" stroke-opacity="1" stroke-width="762" stroke-linecap="butt" stroke-linejoin="round" stroke-miterlimit="8" d="M 218173.9229 82223.7814 L 233077.92289999835 82223.7814"></path><path fill="#434343" fill-opacity="1" stroke="#434343" stroke-opacity="1" stroke-width="762" stroke-linecap="butt" stroke-linejoin="miter" stroke-miterlimit="10" d="M 233077.92289999835 83482.48062807019 L 236535.88781227905 82223.7814 233077.92289999835 80965.08217192983 Z"></path></g><g><path stroke="#000" stroke-opacity="0" stroke-width="2714.2480211081793" stroke-linecap="round" stroke-linejoin="round" stroke-miterlimit="10" pointer-events="visiblePainted" d="M 218173.9229 82223.7814 L 233077.92289999835 82223.7814"></path></g></g></g><g id="editor-g3c5246b155_0_129"><g><g></g><g><path stroke="#434343" stroke-opacity="1" stroke-width="762" stroke-linecap="butt" stroke-linejoin="round" stroke-miterlimit="8" d="M 204327.2506 34568.3264 L 204524.62082194653 64028.42900212668"></path><path fill="#434343" fill-opacity="1" stroke="#434343" stroke-opacity="1" stroke-width="762" stroke-linecap="butt" stroke-linejoin="miter" stroke-miterlimit="10" d="M 203265.94984086137 64036.861565117026 L 204547.78720378815 67486.31631280019 205783.2918030317 64019.99643913633 Z"></path></g><g><path stroke="#000" stroke-opacity="0" stroke-width="2714.2480211081793" stroke-linecap="round" stroke-linejoin="round" stroke-miterlimit="10" pointer-events="visiblePainted" d="M 204327.2506 34568.3264 L 204524.62082194653 64028.42900212668"></path></g></g></g><g id="editor-g3c5246b155_0_137"><g id="editor-g3c5246b155_0_130"><g><g><path fill="#B6D7A8" fill-opacity="1" stroke="#666666" stroke-opacity="1" stroke-width="381" stroke-linecap="butt" stroke-linejoin="round" stroke-miterlimit="8" d="M 239893.8701 79984.4342 C 239893.8701 72462.3159073046 245991.7518073046 66364.4342 253513.8701 66364.4342 257126.1186916146 66364.4342 260590.41898529854 67799.39436577699 263144.66445976077 70353.63984023922 265698.909934223 72907.88531470146 267133.8701 76372.1856083854 267133.8701 79984.4342 267133.8701 87506.55249269541 261035.9883926954 93604.4342 253513.8701 93604.4342 245991.7518073046 93604.4342 239893.8701 87506.55249269541 239893.8701 79984.4342 Z"></path></g></g></g><g id="editor-g3c5246b155_0_131"><g><g><path fill="#B6D7A8" fill-opacity="1" stroke="#666666" stroke-opacity="1" stroke-width="381" stroke-linecap="butt" stroke-linejoin="round" stroke-miterlimit="8" d="M 239334.0333 80544.271 C 239334.0333 73022.15270730459 245431.9150073046 66924.271 252954.0333 66924.271 256566.2818916146 66924.271 260030.58218529855 68359.23116577698 262584.8276597608 70913.47664023921 265139.073134223 73467.72211470145 266574.0333 76932.0224083854 266574.0333 80544.271 266574.0333 88066.3892926954 260476.15159269542 94164.271 252954.0333 94164.271 245431.9150073046 94164.271 239334.0333 88066.3892926954 239334.0333 80544.271 Z"></path></g></g></g><g id="editor-g3c5246b155_0_132"><g><g><path fill="#B6D7A8" fill-opacity="1" stroke="#666666" stroke-opacity="1" stroke-width="381" stroke-linecap="butt" stroke-linejoin="round" stroke-miterlimit="8" d="M 238774.1965 81104.1078 C 238774.1965 73581.98950730459 244872.07820730458 67484.1078 252394.1965 67484.1078 256006.4450916146 67484.1078 259470.74538529853 68919.06796577698 262024.99085976076 71473.31344023922 264579.236334223 74027.55891470145 266014.19649999996 77491.8592083854 266014.19649999996 81104.1078 266014.19649999996 88626.2260926954 259916.3147926954 94724.1078 252394.1965 94724.1078 244872.07820730458 94724.1078 238774.1965 88626.2260926954 238774.1965 81104.1078 Z"></path></g></g></g><g id="editor-g3c5246b155_0_133"><g><g><path fill="#B6D7A8" fill-opacity="1" stroke="#666666" stroke-opacity="1" stroke-width="381" stroke-linecap="butt" stroke-linejoin="round" stroke-miterlimit="8" d="M 238214.35969999997 81663.9446 C 238214.35969999997 74141.8263073046 244312.24140730457 68043.9446 251834.35969999997 68043.9446 255446.60829161457 68043.9446 258910.90858529852 69478.90476577698 261465.15405976074 72033.15024023922 264019.39953422296 74587.39571470146 265454.3597 78051.6960083854 265454.3597 81663.9446 265454.3597 89186.06289269541 259356.47799269538 95283.9446 251834.35969999997 95283.9446 244312.24140730457 95283.9446 238214.35969999997 89186.06289269541 238214.35969999997 81663.9446 Z"></path></g></g></g><g id="editor-g3c5246b155_0_134"><g><g><path fill="#B6D7A8" fill-opacity="1" stroke="#666666" stroke-opacity="1" stroke-width="381" stroke-linecap="butt" stroke-linejoin="round" stroke-miterlimit="8" d="M 237654.52289999998 82223.7814 C 237654.52289999998 74701.6631073046 243752.40460730458 68603.7814 251274.52289999998 68603.7814 254886.77149161458 68603.7814 258351.07178529853 70038.74156577699 260905.31725976075 72592.98704023923 263459.562734223 75147.23251470146 264894.5229 78611.53280838541 264894.5229 82223.7814 264894.5229 89745.89969269541 258796.6411926954 95843.7814 251274.52289999998 95843.7814 243752.40460730458 95843.7814 237654.52289999998 89745.89969269541 237654.52289999998 82223.7814 Z"></path></g></g></g><g id="editor-g3c5246b155_0_135"><g><g><path fill="#B6D7A8" fill-opacity="1" stroke="#666666" stroke-opacity="1" stroke-width="381" stroke-linecap="butt" stroke-linejoin="round" stroke-miterlimit="8" d="M 237094.6861 82783.6182 C 237094.6861 75261.49990730459 243192.5678073046 69163.6182 250714.6861 69163.6182 254326.9346916146 69163.6182 257791.23498529854 70598.57836577698 260345.48045976076 73152.82384023922 262899.725934223 75707.06931470145 264334.6861 79171.3696083854 264334.6861 82783.6182 264334.6861 90305.7364926954 258236.8043926954 96403.6182 250714.6861 96403.6182 243192.5678073046 96403.6182 237094.6861 90305.7364926954 237094.6861 82783.6182 Z"></path></g></g></g><g id="editor-g3c5246b155_0_136"><g><g><path fill="#B6D7A8" fill-opacity="1" stroke="#666666" stroke-opacity="1" stroke-width="381" stroke-linecap="butt" stroke-linejoin="round" stroke-miterlimit="8" d="M 236534.8493 83343.455 C 236534.8493 75821.3367073046 242632.7310073046 69723.455 250154.8493 69723.455 253767.0978916146 69723.455 257231.39818529855 71158.41516577698 259785.64365976077 73712.66064023922 262339.889134223 76266.90611470146 263774.8493 79731.2064083854 263774.8493 83343.455 263774.8493 90865.57329269541 257676.9675926954 96963.455 250154.8493 96963.455 242632.7310073046 96963.455 236534.8493 90865.57329269541 236534.8493 83343.455 Z"></path></g></g></g></g><g id="editor-g3c5246b155_0_138"><g><g></g><g><path stroke="#434343" stroke-opacity="1" stroke-width="762" stroke-linecap="butt" stroke-linejoin="round" stroke-miterlimit="8" d="M 264894.5229 82223.7814 L 279798.5229 82223.7814"></path><path fill="#434343" fill-opacity="1" stroke="#434343" stroke-opacity="1" stroke-width="762" stroke-linecap="butt" stroke-linejoin="miter" stroke-miterlimit="10" d="M 279798.5229 83482.48062807019 L 283256.48781228065 82223.7814 279798.5229 80965.08217192983 Z"></path></g><g><path stroke="#000" stroke-opacity="0" stroke-width="2714.2480211081793" stroke-linecap="round" stroke-linejoin="round" stroke-miterlimit="10" pointer-events="visiblePainted" d="M 264894.5229 82223.7814 L 279798.5229 82223.7814"></path></g></g></g><g id="editor-g3c5246b155_0_139"><g><g></g><g><path stroke="#434343" stroke-opacity="1" stroke-width="762" stroke-linecap="butt" stroke-linejoin="round" stroke-miterlimit="8" d="M 251191.8058 34568.3264 L 251264.52092605399 64028.34032700944"></path><path fill="#434343" fill-opacity="1" stroke="#434343" stroke-opacity="1" stroke-width="762" stroke-linecap="butt" stroke-linejoin="miter" stroke-miterlimit="10" d="M 250005.82553217365 64031.447120999976 L 251273.05607437962 67486.29470580156 252523.21631993432 64025.23353301891 Z"></path></g><g><path stroke="#000" stroke-opacity="0" stroke-width="2714.2480211081793" stroke-linecap="round" stroke-linejoin="round" stroke-miterlimit="10" pointer-events="visiblePainted" d="M 251191.8058 34568.3264 L 251264.52092605399 64028.34032700944"></path></g></g></g><g id="editor-g3c5246b155_0_147"><g id="editor-g3c5246b155_0_140"><g><g><path fill="#B6D7A8" fill-opacity="1" stroke="#666666" stroke-opacity="1" stroke-width="381" stroke-linecap="butt" stroke-linejoin="round" stroke-miterlimit="8" d="M 286614.4701 79984.4342 C 286614.4701 72462.3159073046 292712.35180730454 66364.4342 300234.4701 66364.4342 303846.7186916146 66364.4342 307311.0189852985 67799.39436577699 309865.26445976074 70353.63984023922 312419.50993422297 72907.88531470146 313854.4701 76372.1856083854 313854.4701 79984.4342 313854.4701 87506.55249269541 307756.5883926954 93604.4342 300234.4701 93604.4342 292712.3518073046 93604.4342 286614.4701 87506.55249269541 286614.4701 79984.4342 Z"></path></g></g></g><g id="editor-g3c5246b155_0_141"><g><g><path fill="#B6D7A8" fill-opacity="1" stroke="#666666" stroke-opacity="1" stroke-width="381" stroke-linecap="butt" stroke-linejoin="round" stroke-miterlimit="8" d="M 286054.6333 80544.271 C 286054.6333 73022.15270730459 292152.51500730455 66924.271 299674.6333 66924.271 303286.8818916146 66924.271 306751.18218529853 68359.23116577698 309305.42765976075 70913.47664023921 311859.673134223 73467.72211470145 313294.6333 76932.0224083854 313294.6333 80544.271 313294.6333 88066.3892926954 307196.7515926954 94164.271 299674.6333 94164.271 292152.5150073046 94164.271 286054.6333 88066.3892926954 286054.6333 80544.271 Z"></path></g></g></g><g id="editor-g3c5246b155_0_142"><g><g><path fill="#B6D7A8" fill-opacity="1" stroke="#666666" stroke-opacity="1" stroke-width="381" stroke-linecap="butt" stroke-linejoin="round" stroke-miterlimit="8" d="M 285494.7965 81104.1078 C 285494.7965 73581.98950730459 291592.67820730456 67484.1078 299114.7965 67484.1078 302727.0450916146 67484.1078 306191.34538529854 68919.06796577698 308745.59085976076 71473.31344023922 311299.836334223 74027.55891470145 312734.7965 77491.8592083854 312734.7965 81104.1078 312734.7965 88626.2260926954 306636.91479269543 94724.1078 299114.7965 94724.1078 291592.6782073046 94724.1078 285494.7965 88626.2260926954 285494.7965 81104.1078 Z"></path></g></g></g><g id="editor-g3c5246b155_0_143"><g><g><path fill="#B6D7A8" fill-opacity="1" stroke="#666666" stroke-opacity="1" stroke-width="381" stroke-linecap="butt" stroke-linejoin="round" stroke-miterlimit="8" d="M 284934.9597 81663.9446 C 284934.9597 74141.8263073046 291032.8414073046 68043.9446 298554.9597 68043.9446 302167.2082916146 68043.9446 305631.50858529855 69478.90476577698 308185.7540597608 72033.15024023922 310739.999534223 74587.39571470146 312174.9597 78051.6960083854 312174.9597 81663.9446 312174.9597 89186.06289269541 306077.07799269544 95283.9446 298554.9597 95283.9446 291032.84140730463 95283.9446 284934.9597 89186.06289269541 284934.9597 81663.9446 Z"></path></g></g></g><g id="editor-g3c5246b155_0_144"><g><g><path fill="#B6D7A8" fill-opacity="1" stroke="#666666" stroke-opacity="1" stroke-width="381" stroke-linecap="butt" stroke-linejoin="round" stroke-miterlimit="8" d="M 284375.1229 82223.7814 C 284375.1229 74701.6631073046 290473.0046073046 68603.7814 297995.1229 68603.7814 301607.3714916146 68603.7814 305071.67178529856 70038.74156577699 307625.9172597608 72592.98704023923 310180.162734223 75147.23251470146 311615.1229 78611.53280838541 311615.1229 82223.7814 311615.1229 89745.89969269541 305517.24119269545 95843.7814 297995.1229 95843.7814 290473.00460730464 95843.7814 284375.1229 89745.89969269541 284375.1229 82223.7814 Z"></path></g></g></g><g id="editor-g3c5246b155_0_145"><g><g><path fill="#B6D7A8" fill-opacity="1" stroke="#666666" stroke-opacity="1" stroke-width="381" stroke-linecap="butt" stroke-linejoin="round" stroke-miterlimit="8" d="M 283815.2861 82783.6182 C 283815.2861 75261.49990730459 289913.1678073046 69163.6182 297435.2861 69163.6182 301047.5346916146 69163.6182 304511.83498529857 70598.57836577698 307066.0804597608 73152.82384023922 309620.325934223 75707.06931470145 311055.2861 79171.3696083854 311055.2861 82783.6182 311055.2861 90305.7364926954 304957.40439269546 96403.6182 297435.2861 96403.6182 289913.16780730465 96403.6182 283815.2861 90305.7364926954 283815.2861 82783.6182 Z"></path></g></g></g><g id="editor-g3c5246b155_0_146"><g><g><path fill="#B6D7A8" fill-opacity="1" stroke="#666666" stroke-opacity="1" stroke-width="381" stroke-linecap="butt" stroke-linejoin="round" stroke-miterlimit="8" d="M 283255.4493 83343.455 C 283255.4493 75821.3367073046 289353.33100730454 69723.455 296875.4493 69723.455 300487.6978916146 69723.455 303951.9981852985 71158.41516577698 306506.24365976074 73712.66064023922 309060.48913422297 76266.90611470146 310495.4493 79731.2064083854 310495.4493 83343.455 310495.4493 90865.57329269541 304397.5675926954 96963.455 296875.4493 96963.455 289353.3310073046 96963.455 283255.4493 90865.57329269541 283255.4493 83343.455 Z"></path></g></g></g></g><g id="editor-g3c5246b155_0_148"><g><g></g><g><path stroke="#434343" stroke-opacity="1" stroke-width="762" stroke-linecap="butt" stroke-linejoin="round" stroke-miterlimit="8" d="M 311615.5229 82223.7814 L 326519.5229 82223.7814"></path><path fill="#434343" fill-opacity="1" stroke="#434343" stroke-opacity="1" stroke-width="762" stroke-linecap="butt" stroke-linejoin="miter" stroke-miterlimit="10" d="M 326519.5229 83482.48062807019 L 329977.48781228065 82223.7814 326519.5229 80965.08217192983 Z"></path></g><g><path stroke="#000" stroke-opacity="0" stroke-width="2714.2480211081793" stroke-linecap="round" stroke-linejoin="round" stroke-miterlimit="10" pointer-events="visiblePainted" d="M 311615.5229 82223.7814 L 326519.5229 82223.7814"></path></g></g></g><g id="editor-g3c5246b155_0_149"><g><g></g><g><path stroke="#434343" stroke-opacity="1" stroke-width="762" stroke-linecap="butt" stroke-linejoin="round" stroke-miterlimit="8" d="M 297776.4426 34568.3264 L 297963.42484878557 64028.418486432114"></path><path fill="#434343" fill-opacity="1" stroke="#434343" stroke-opacity="1" stroke-width="762" stroke-linecap="butt" stroke-linejoin="miter" stroke-miterlimit="10" d="M 296704.75097266753 64036.407248692376 L 297985.3719978522 67486.31375049266 299222.0987249036 64020.42972417185 Z"></path></g><g><path stroke="#000" stroke-opacity="0" stroke-width="2714.2480211081793" stroke-linecap="round" stroke-linejoin="round" stroke-miterlimit="10" pointer-events="visiblePainted" d="M 297776.4426 34568.3264 L 297963.42484878557 64028.418486432114"></path></g></g></g><g id="editor-g3c5246b155_0_150"><g><g><path fill="#F9CB9C" fill-opacity="1" d="M 99327.4594 19736.1072 L 120811.35220000001 19736.1072 120811.35220000001 41784 99327.4594 41784 Z"></path><path fill="#c7a27d" fill-opacity="1" d="M 120811.35220000001 19736.1072 L 135087.4594 5460 135087.4594 27507.8928 120811.35220000001 41784 Z"></path><path fill="#fad5b0" fill-opacity="1" d="M 99327.4594 19736.1072 L 113603.5666 5460 135087.4594 5460 120811.35220000001 19736.1072 Z"></path><path stroke="#434343" stroke-opacity="1" stroke-width="381" stroke-linecap="butt" stroke-linejoin="round" stroke-miterlimit="8" d="M 99327.4594 19736.1072 L 113603.5666 5460 135087.4594 5460 135087.4594 27507.8928 120811.35220000001 41784 99327.4594 41784 Z M 99327.4594 19736.1072 L 120811.35220000001 19736.1072 135087.4594 5460 M 120811.35220000001 19736.1072 L 120811.35220000001 41784"></path></g><g><path fill="#000" fill-opacity="0" pointer-events="visiblePainted" d="M 99327.4594 19736.1072 L 120811.35220000001 19736.1072 120811.35220000001 41784 99327.4594 41784 Z"></path><path fill="#000" fill-opacity="0" pointer-events="visiblePainted" d="M 120811.35220000001 19736.1072 L 135087.4594 5460 135087.4594 27507.8928 120811.35220000001 41784 Z"></path><path fill="#000" fill-opacity="0" pointer-events="visiblePainted" d="M 99327.4594 19736.1072 L 113603.5666 5460 135087.4594 5460 120811.35220000001 19736.1072 Z"></path><path stroke="#000" stroke-opacity="0" stroke-width="2714.2480211081793" stroke-linecap="round" stroke-linejoin="round" stroke-miterlimit="10" pointer-events="visiblePainted" d="M 99327.4594 19736.1072 L 113603.5666 5460 135087.4594 5460 135087.4594 27507.8928 120811.35220000001 41784 99327.4594 41784 Z M 99327.4594 19736.1072 L 120811.35220000001 19736.1072 135087.4594 5460 M 120811.35220000001 19736.1072 L 120811.35220000001 41784"></path></g></g></g><g id="editor-g3c5246b155_0_151"><g><g><path fill="#F9CB9C" fill-opacity="1" d="M 146160.9122 19736.1072 L 167644.805 19736.1072 167644.805 41784 146160.9122 41784 Z"></path><path fill="#c7a27d" fill-opacity="1" d="M 167644.805 19736.1072 L 181920.9122 5460 181920.9122 27507.8928 167644.805 41784 Z"></path><path fill="#fad5b0" fill-opacity="1" d="M 146160.9122 19736.1072 L 160437.0194 5460 181920.9122 5460 167644.805 19736.1072 Z"></path><path stroke="#434343" stroke-opacity="1" stroke-width="381" stroke-linecap="butt" stroke-linejoin="round" stroke-miterlimit="8" d="M 146160.9122 19736.1072 L 160437.0194 5460 181920.9122 5460 181920.9122 27507.8928 167644.805 41784 146160.9122 41784 Z M 146160.9122 19736.1072 L 167644.805 19736.1072 181920.9122 5460 M 167644.805 19736.1072 L 167644.805 41784"></path></g><g><path fill="#000" fill-opacity="0" pointer-events="visiblePainted" d="M 146160.9122 19736.1072 L 167644.805 19736.1072 167644.805 41784 146160.9122 41784 Z"></path><path fill="#000" fill-opacity="0" pointer-events="visiblePainted" d="M 167644.805 19736.1072 L 181920.9122 5460 181920.9122 27507.8928 167644.805 41784 Z"></path><path fill="#000" fill-opacity="0" pointer-events="visiblePainted" d="M 146160.9122 19736.1072 L 160437.0194 5460 181920.9122 5460 167644.805 19736.1072 Z"></path><path stroke="#000" stroke-opacity="0" stroke-width="2714.2480211081793" stroke-linecap="round" stroke-linejoin="round" stroke-miterlimit="10" pointer-events="visiblePainted" d="M 146160.9122 19736.1072 L 160437.0194 5460 181920.9122 5460 181920.9122 27507.8928 167644.805 41784 146160.9122 41784 Z M 146160.9122 19736.1072 L 167644.805 19736.1072 181920.9122 5460 M 167644.805 19736.1072 L 167644.805 41784"></path></g></g></g><g id="editor-g3c5246b155_0_152"><g><g><path fill="#F9CB9C" fill-opacity="1" d="M 192465.6306 19736.1072 L 213949.5234 19736.1072 213949.5234 41784 192465.6306 41784 Z"></path><path fill="#c7a27d" fill-opacity="1" d="M 213949.5234 19736.1072 L 228225.6306 5460 228225.6306 27507.8928 213949.5234 41784 Z"></path><path fill="#fad5b0" fill-opacity="1" d="M 192465.6306 19736.1072 L 206741.7378 5460 228225.6306 5460 213949.5234 19736.1072 Z"></path><path stroke="#434343" stroke-opacity="1" stroke-width="381" stroke-linecap="butt" stroke-linejoin="round" stroke-miterlimit="8" d="M 192465.6306 19736.1072 L 206741.7378 5460 228225.6306 5460 228225.6306 27507.8928 213949.5234 41784 192465.6306 41784 Z M 192465.6306 19736.1072 L 213949.5234 19736.1072 228225.6306 5460 M 213949.5234 19736.1072 L 213949.5234 41784"></path></g><g><path fill="#000" fill-opacity="0" pointer-events="visiblePainted" d="M 192465.6306 19736.1072 L 213949.5234 19736.1072 213949.5234 41784 192465.6306 41784 Z"></path><path fill="#000" fill-opacity="0" pointer-events="visiblePainted" d="M 213949.5234 19736.1072 L 228225.6306 5460 228225.6306 27507.8928 213949.5234 41784 Z"></path><path fill="#000" fill-opacity="0" pointer-events="visiblePainted" d="M 192465.6306 19736.1072 L 206741.7378 5460 228225.6306 5460 213949.5234 19736.1072 Z"></path><path stroke="#000" stroke-opacity="0" stroke-width="2714.2480211081793" stroke-linecap="round" stroke-linejoin="round" stroke-miterlimit="10" pointer-events="visiblePainted" d="M 192465.6306 19736.1072 L 206741.7378 5460 228225.6306 5460 228225.6306 27507.8928 213949.5234 41784 192465.6306 41784 Z M 192465.6306 19736.1072 L 213949.5234 19736.1072 228225.6306 5460 M 213949.5234 19736.1072 L 213949.5234 41784"></path></g></g></g><g id="editor-g3c5246b155_0_153"><g><g><path fill="#F9CB9C" fill-opacity="1" d="M 239330.1858 19736.1072 L 260814.0786 19736.1072 260814.0786 41784 239330.1858 41784 Z"></path><path fill="#c7a27d" fill-opacity="1" d="M 260814.0786 19736.1072 L 275090.1858 5460 275090.1858 27507.8928 260814.0786 41784 Z"></path><path fill="#fad5b0" fill-opacity="1" d="M 239330.1858 19736.1072 L 253606.293 5460 275090.1858 5460 260814.0786 19736.1072 Z"></path><path stroke="#434343" stroke-opacity="1" stroke-width="381" stroke-linecap="butt" stroke-linejoin="round" stroke-miterlimit="8" d="M 239330.1858 19736.1072 L 253606.293 5460 275090.1858 5460 275090.1858 27507.8928 260814.0786 41784 239330.1858 41784 Z M 239330.1858 19736.1072 L 260814.0786 19736.1072 275090.1858 5460 M 260814.0786 19736.1072 L 260814.0786 41784"></path></g><g><path fill="#000" fill-opacity="0" pointer-events="visiblePainted" d="M 239330.1858 19736.1072 L 260814.0786 19736.1072 260814.0786 41784 239330.1858 41784 Z"></path><path fill="#000" fill-opacity="0" pointer-events="visiblePainted" d="M 260814.0786 19736.1072 L 275090.1858 5460 275090.1858 27507.8928 260814.0786 41784 Z"></path><path fill="#000" fill-opacity="0" pointer-events="visiblePainted" d="M 239330.1858 19736.1072 L 253606.293 5460 275090.1858 5460 260814.0786 19736.1072 Z"></path><path stroke="#000" stroke-opacity="0" stroke-width="2714.2480211081793" stroke-linecap="round" stroke-linejoin="round" stroke-miterlimit="10" pointer-events="visiblePainted" d="M 239330.1858 19736.1072 L 253606.293 5460 275090.1858 5460 275090.1858 27507.8928 260814.0786 41784 239330.1858 41784 Z M 239330.1858 19736.1072 L 260814.0786 19736.1072 275090.1858 5460 M 260814.0786 19736.1072 L 260814.0786 41784"></path></g></g></g><g id="editor-g3c5246b155_0_154"><g><g><path fill="#F9CB9C" fill-opacity="1" d="M 285914.8226 19736.1072 L 307398.7154 19736.1072 307398.7154 41784 285914.8226 41784 Z"></path><path fill="#c7a27d" fill-opacity="1" d="M 307398.7154 19736.1072 L 321674.8226 5460 321674.8226 27507.8928 307398.7154 41784 Z"></path><path fill="#fad5b0" fill-opacity="1" d="M 285914.8226 19736.1072 L 300190.92980000004 5460 321674.8226 5460 307398.7154 19736.1072 Z"></path><path stroke="#434343" stroke-opacity="1" stroke-width="381" stroke-linecap="butt" stroke-linejoin="round" stroke-miterlimit="8" d="M 285914.8226 19736.1072 L 300190.92980000004 5460 321674.8226 5460 321674.8226 27507.8928 307398.7154 41784 285914.8226 41784 Z M 285914.8226 19736.1072 L 307398.7154 19736.1072 321674.8226 5460 M 307398.7154 19736.1072 L 307398.7154 41784"></path></g><g><path fill="#000" fill-opacity="0" pointer-events="visiblePainted" d="M 285914.8226 19736.1072 L 307398.7154 19736.1072 307398.7154 41784 285914.8226 41784 Z"></path><path fill="#000" fill-opacity="0" pointer-events="visiblePainted" d="M 307398.7154 19736.1072 L 321674.8226 5460 321674.8226 27507.8928 307398.7154 41784 Z"></path><path fill="#000" fill-opacity="0" pointer-events="visiblePainted" d="M 285914.8226 19736.1072 L 300190.92980000004 5460 321674.8226 5460 307398.7154 19736.1072 Z"></path><path stroke="#000" stroke-opacity="0" stroke-width="2714.2480211081793" stroke-linecap="round" stroke-linejoin="round" stroke-miterlimit="10" pointer-events="visiblePainted" d="M 285914.8226 19736.1072 L 300190.92980000004 5460 321674.8226 5460 321674.8226 27507.8928 307398.7154 41784 285914.8226 41784 Z M 285914.8226 19736.1072 L 307398.7154 19736.1072 321674.8226 5460 M 307398.7154 19736.1072 L 307398.7154 41784"></path></g></g></g><g id="editor-g3c5246b155_0_155"><g><g><path d="M 5491.3229 13656 L 93499.3229 13656 93499.3229 47880 5491.3229 47880 Z"></path></g><g><path fill="#000" fill-opacity="0" stroke="#000" stroke-opacity="0" stroke-width="2714.2480211081793" stroke-linecap="round" stroke-linejoin="round" stroke-miterlimit="10" pointer-events="visiblePainted" d="M 5491.3229 13656 L 93499.3229 13656 93499.3229 47880 5491.3229 47880 Z"></path></g><g><g direction="ltr" style="opacity: 1;"><g transform="matrix(381,0,0,381,9148.322900000001,17313)"><g pointer-events="none"><g id="editor-g3c5246b155_0_155-paragraph-0"><g><g class="sketchy-text-background" visibility="visible"></g><g></g><g class="sketchy-text-content" visibility="visible"><g class="sketchy-text-content-text" transform="translate(0 25.599999999999998)"><text x="0px" style="font-family:Merriweather;font-size:26.666666666666664px;fill:#434343;white-space:pre;" y="0px" text-rendering="geometricPrecision">Compressed</text></g></g></g><g transform="translate(0 32)"><g class="sketchy-text-background" visibility="visible"></g><g></g><g class="sketchy-text-content" visibility="visible"><g class="sketchy-text-content-text" transform="translate(0 25.599999999999998)"><text x="0px" style="font-family:Merriweather;font-size:26.666666666666664px;fill:#434343;white-space:pre;" y="0px" text-rendering="geometricPrecision">Sequence</text></g></g></g></g></g><rect style="opacity: 0;"></rect><rect style="opacity: 1;"></rect></g><g><path d="M 9148.322900000001 17313 L 70712.65229147949 17313 70712.65229147949 41697 9148.322900000001 41697 Z" pointer-events="visiblePainted" fill="#000000" stroke="#000000" opacity="0"></path></g><g transform="matrix(381,0,0,381,9148.322900000001,17313)"></g></g></g></g></g><g id="editor-g3c5246b155_0_156"><g><g></g><g><path d="M 122630 74660.9333 L 144182 74660.9333 144182 80768.9333 122630 80768.9333 Z"></path></g><g><path fill="#000" fill-opacity="0" stroke="#000" stroke-opacity="0" stroke-width="2714.2480211081793" stroke-linecap="round" stroke-linejoin="round" stroke-miterlimit="10" pointer-events="visiblePainted" d="M 122630 74660.9333 L 144182 74660.9333 144182 80768.9333 122630 80768.9333 Z"></path></g><g><g direction="ltr" style="opacity: 1;"><g transform="matrix(381,0,0,381,126287,74666.9333)"><g pointer-events="none"><g id="editor-g3c5246b155_0_156-paragraph-0"><g><g class="sketchy-text-background" visibility="visible"></g><g></g><g class="sketchy-text-content" visibility="visible"><g class="sketchy-text-content-text" transform="translate(0 12.799999999999999)"><text x="3.8718182421106064px" style="font-family:Merriweather;font-size:13.333333333333332px;fill:#434343;white-space:pre;" y="0px" text-rendering="geometricPrecision">State</text></g></g></g></g></g><rect style="opacity: 0;"></rect><rect style="opacity: 1;"></rect></g><g><path d="M 127762.16275024414 74666.9333 L 140525 74666.9333 140525 80762.9333 127762.16275024414 80762.9333 Z" pointer-events="visiblePainted" fill="#000000" stroke="#000000" opacity="0"></path></g><g transform="matrix(381,0,0,381,126287,74666.9333)"></g></g></g></g></g><g id="editor-g3c5246b155_0_157"><g><g></g><g><path d="M 5491.3229 65112 L 93499.3229 65112 93499.3229 99336 5491.3229 99336 Z"></path></g><g><path fill="#000" fill-opacity="0" stroke="#000" stroke-opacity="0" stroke-width="2714.2480211081793" stroke-linecap="round" stroke-linejoin="round" stroke-miterlimit="10" pointer-events="visiblePainted" d="M 5491.3229 65112 L 93499.3229 65112 93499.3229 99336 5491.3229 99336 Z"></path></g><g><g direction="ltr" style="opacity: 1;"><g transform="matrix(381,0,0,381,9148.322900000001,68769)"><g pointer-events="none"><g id="editor-g3c5246b155_0_157-paragraph-0"><g><g class="sketchy-text-background" visibility="visible"></g><g></g><g class="sketchy-text-content" visibility="visible"><g class="sketchy-text-content-text" transform="translate(0 30.72)"><text x="0px" style="font-family:Merriweather;font-size:32px;fill:#434343;white-space:pre;" y="0px" text-rendering="geometricPrecision">LSTM</text></g></g></g><g transform="translate(0 38)"><g class="sketchy-text-background" visibility="visible"></g><g></g><g class="sketchy-text-content" visibility="visible"><g class="sketchy-text-content-text" transform="translate(0 23.04)"><text x="0px" style="font-family:Merriweather;font-size:24px;fill:#666666;white-space:pre;" y="0px" text-rendering="geometricPrecision">75</text><text x="34.05598449707031px" style="font-family:Merriweather;font-size:24px;fill:#666666;white-space:pre;" y="0px" text-rendering="geometricPrecision">units</text></g></g></g></g></g><rect style="opacity: 0;"></rect><rect style="opacity: 1;"></rect></g><g><path d="M 9148.322900000001 68769 L 45358.5429012207 68769 45358.5429012207 94219.8 9148.322900000001 94219.8 Z" pointer-events="visiblePainted" fill="#000000" stroke="#000000" opacity="0"></path></g><g transform="matrix(381,0,0,381,9148.322900000001,68769)"></g></g></g></g></g><g id="editor-g3c5246b155_0_158"><g><g><path d="M 84919.3523 95716.8368 L 113251.3523 95716.8368 113251.3523 104116.8368 84919.3523 104116.8368 Z"></path></g><g><path fill="#000" fill-opacity="0" stroke="#000" stroke-opacity="0" stroke-width="2714.2480211081793" stroke-linecap="round" stroke-linejoin="round" stroke-miterlimit="10" pointer-events="visiblePainted" d="M 84919.3523 95716.8368 L 113251.3523 95716.8368 113251.3523 104116.8368 84919.3523 104116.8368 Z"></path></g><g><g direction="ltr" style="opacity: 1;"><g transform="matrix(381,0,0,381,88576.3523,96868.8368)"><g pointer-events="none"><g id="editor-g3c5246b155_0_158-paragraph-0"><g><g class="sketchy-text-background" visibility="visible"></g><g></g><g class="sketchy-text-content" visibility="visible"><g class="sketchy-text-content-text" transform="translate(0 12.799999999999999)"><text x="1.3692601121316734px" style="font-family:Merriweather;font-size:13.333333333333332px;fill:#434343;white-space:pre;" y="0px" text-rendering="geometricPrecision">Outputs</text></g></g></g></g></g><rect style="opacity: 0;"></rect><rect style="opacity: 1;"></rect></g><g><path d="M 89098.04040272217 96868.8368 L 109072.66419727783 96868.8368 109072.66419727783 102964.8368 89098.04040272217 102964.8368 Z" pointer-events="visiblePainted" fill="#000000" stroke="#000000" opacity="0"></path></g><g transform="matrix(381,0,0,381,88576.3523,96868.8368)"></g></g></g></g></g><g id="editor-g3c5246b155_0_159"><g><g></g><g><path stroke="#434343" stroke-opacity="1" stroke-width="762" stroke-linecap="butt" stroke-linejoin="round" stroke-miterlimit="8" d="M 109993.0493 96963.955 C 109993.0493 101726.74732 119266.0493 106987.53964 128539.0493 106489.53964 133175.5493 106240.53964 137812.0493 104551.84156 141289.4243 102081.04444 143028.1118 100845.64588 144477.01805 99414.72256 145491.252425 97870.47436 L 145746.67881847423 97351.67645203385"></path><path fill="#434343" fill-opacity="1" stroke="#434343" stroke-opacity="1" stroke-width="762" stroke-linecap="butt" stroke-linejoin="miter" stroke-miterlimit="10" d="M 146950.24015202932 97720.13793321686 L 146758.93563491106 94045.18927193747 144543.11748491914 96983.21497085084 Z"></path></g><g><path stroke="#000" stroke-opacity="0" stroke-width="2714.2480211081793" stroke-linecap="round" stroke-linejoin="round" stroke-miterlimit="10" pointer-events="visiblePainted" d="M 109993.0493 96963.955 C 109993.0493 101726.74732 119266.0493 106987.53964 128539.0493 106489.53964 133175.5493 106240.53964 137812.0493 104551.84156 141289.4243 102081.04444 143028.1118 100845.64588 144477.01805 99414.72256 145491.252425 97870.47436 L 145746.67881847423 97351.67645203385"></path></g></g></g><g id="editor-g3c5246b155_0_160"><g><g></g><g><path stroke="#434343" stroke-opacity="1" stroke-width="762" stroke-linecap="butt" stroke-linejoin="round" stroke-miterlimit="8" d="M 156600.2661 96963.3886 C 156600.2661 101726.18092000001 165873.2661 106986.97324 175146.2661 106488.97324 179782.7661 106239.97324 184419.2661 104551.27516 187896.6411 102080.47804000002 189635.3286 100845.07948000001 191084.23485 99414.15616000001 192098.469225 97869.90796000001 L 192353.8956184731 97351.11005203614"></path><path fill="#434343" fill-opacity="1" stroke="#434343" stroke-opacity="1" stroke-width="762" stroke-linecap="butt" stroke-linejoin="miter" stroke-miterlimit="10" d="M 193557.45695202815 97719.57153321925 L 193366.15243491024 94044.62287193986 191150.33428491803 96982.64857085302 Z"></path></g><g><path stroke="#000" stroke-opacity="0" stroke-width="2714.2480211081793" stroke-linecap="round" stroke-linejoin="round" stroke-miterlimit="10" pointer-events="visiblePainted" d="M 156600.2661 96963.3886 C 156600.2661 101726.18092000001 165873.2661 106986.97324 175146.2661 106488.97324 179782.7661 106239.97324 184419.2661 104551.27516 187896.6411 102080.47804000002 189635.3286 100845.07948000001 191084.23485 99414.15616000001 192098.469225 97869.90796000001 L 192353.8956184731 97351.11005203614"></path></g></g></g><g id="editor-g3c5246b155_0_161"><g><g></g><g><path stroke="#434343" stroke-opacity="1" stroke-width="762" stroke-linecap="butt" stroke-linejoin="round" stroke-miterlimit="8" d="M 203336.2661 96963.3886 C 203336.2661 101726.18092000001 212609.2661 106986.97324 221882.2661 106488.97324 226518.7661 106239.97324 231155.2661 104551.27516 234632.6411 102080.47804000002 236371.3286 100845.07948000001 237820.23485 99414.15616000001 238834.469225 97869.90796000001 L 239089.8956184731 97351.11005203614"></path><path fill="#434343" fill-opacity="1" stroke="#434343" stroke-opacity="1" stroke-width="762" stroke-linecap="butt" stroke-linejoin="miter" stroke-miterlimit="10" d="M 240293.45695202815 97719.57153321925 L 240102.15243491024 94044.62287193986 237886.33428491803 96982.64857085302 Z"></path></g><g><path stroke="#000" stroke-opacity="0" stroke-width="2714.2480211081793" stroke-linecap="round" stroke-linejoin="round" stroke-miterlimit="10" pointer-events="visiblePainted" d="M 203336.2661 96963.3886 C 203336.2661 101726.18092000001 212609.2661 106986.97324 221882.2661 106488.97324 226518.7661 106239.97324 231155.2661 104551.27516 234632.6411 102080.47804000002 236371.3286 100845.07948000001 237820.23485 99414.15616000001 238834.469225 97869.90796000001 L 239089.8956184731 97351.11005203614"></path></g></g></g><g id="editor-g3c5246b155_0_162"><g><g></g><g><path stroke="#434343" stroke-opacity="1" stroke-width="762" stroke-linecap="butt" stroke-linejoin="round" stroke-miterlimit="8" d="M 249996.7661 96963.3886 C 249996.7661 101726.18092000001 259269.7661 106986.97324 268542.7661 106488.97324 273179.2661 106239.97324 277815.7661 104551.27516 281293.1411 102080.47804000002 283031.8286 100845.07948000001 284480.73485 99414.15616000001 285494.969225 97869.90796000001 L 285750.3956184739 97351.11005203462"></path><path fill="#434343" fill-opacity="1" stroke="#434343" stroke-opacity="1" stroke-width="762" stroke-linecap="butt" stroke-linejoin="miter" stroke-miterlimit="10" d="M 286953.95695202897 97719.57153321766 L 286762.65243491076 94044.62287193828 284546.8342849188 96982.64857085158 Z"></path></g><g><path stroke="#000" stroke-opacity="0" stroke-width="2714.2480211081793" stroke-linecap="round" stroke-linejoin="round" stroke-miterlimit="10" pointer-events="visiblePainted" d="M 249996.7661 96963.3886 C 249996.7661 101726.18092000001 259269.7661 106986.97324 268542.7661 106488.97324 273179.2661 106239.97324 277815.7661 104551.27516 281293.1411 102080.47804000002 283031.8286 100845.07948000001 284480.73485 99414.15616000001 285494.969225 97869.90796000001 L 285750.3956184739 97351.11005203462"></path></g></g></g><g id="editor-g3c5246b155_0_163"><g><g><path d="M 5491.3229 124939 L 93499.3229 124939 93499.3229 159163 5491.3229 159163 Z"></path></g><g><path fill="#000" fill-opacity="0" stroke="#000" stroke-opacity="0" stroke-width="2714.2480211081793" stroke-linecap="round" stroke-linejoin="round" stroke-miterlimit="10" pointer-events="visiblePainted" d="M 5491.3229 124939 L 93499.3229 124939 93499.3229 159163 5491.3229 159163 Z"></path></g><g><g direction="ltr" style="opacity: 1;"><g transform="matrix(381,0,0,381,9148.322900000001,128596)"><g pointer-events="none"><g id="editor-g3c5246b155_0_163-paragraph-0"><g><g class="sketchy-text-background" visibility="visible"></g><g></g><g class="sketchy-text-content" visibility="visible"><g class="sketchy-text-content-text" transform="translate(0 30.72)"><text x="0px" style="font-family:Merriweather;font-size:32px;fill:#434343;white-space:pre;" y="0px" text-rendering="geometricPrecision">Outputs</text></g></g></g></g></g><rect style="opacity: 0;"></rect><rect style="opacity: 1;"></rect></g><g><path d="M 9148.322900000001 128596 L 57099.43671530762 128596 57099.43671530762 143226.4 9148.322900000001 143226.4 Z" pointer-events="visiblePainted" fill="#000000" stroke="#000000" opacity="0"></path></g><g transform="matrix(381,0,0,381,9148.322900000001,128596)"></g></g></g></g></g><g id="editor-g3c5246b155_0_164"><g><g><path d="M 5491.2468 168642 L 126103.24680000001 168642 126103.24680000001 202866 5491.2468 202866 Z"></path></g><g><path fill="#000" fill-opacity="0" stroke="#000" stroke-opacity="0" stroke-width="2714.2480211081793" stroke-linecap="round" stroke-linejoin="round" stroke-miterlimit="10" pointer-events="visiblePainted" d="M 5491.2468 168642 L 126103.24680000001 168642 126103.24680000001 202866 5491.2468 202866 Z"></path></g><g><g direction="ltr" style="opacity: 1;"><g transform="matrix(381,0,0,381,9148.2468,172299)"><g pointer-events="none"><g id="editor-g3c5246b155_0_164-paragraph-0"><g><g class="sketchy-text-background" visibility="visible"></g><g></g><g class="sketchy-text-content" visibility="visible"><g class="sketchy-text-content-text" transform="translate(0 30.72)"><text x="0px" style="font-family:Merriweather;font-size:32px;fill:#434343;white-space:pre;" y="0px" text-rendering="geometricPrecision">Aggregation</text></g></g></g><g transform="translate(0 38)"><g class="sketchy-text-background" visibility="visible"></g><g></g><g class="sketchy-text-content" visibility="visible"></g></g></g></g><rect style="opacity: 0;"></rect><rect style="opacity: 1;"></rect></g><g><path d="M 9148.2468 172299 L 83373.11154609374 172299 83373.11154609374 197749.8 9148.2468 197749.8 Z" pointer-events="visiblePainted" fill="#000000" stroke="#000000" opacity="0"></path></g><g transform="matrix(381,0,0,381,9148.2468,172299)"></g></g></g></g></g><g id="editor-g3c5246b155_0_167"><g id="editor-g3c5246b155_0_165"><g><g><path fill="#DD7E6B" fill-opacity="1" d="M 329416.6771 74789.32716 L 349978.01314 74789.32716 349978.01314 95782.6632 329416.6771 95782.6632 Z"></path><path fill="#b16556" fill-opacity="1" d="M 349978.01314 74789.32716 L 357220.6771 67546.6632 357220.6771 88539.99923999999 349978.01314 95782.6632 Z"></path><path fill="#e49889" fill-opacity="1" d="M 329416.6771 74789.32716 L 336659.34105999995 67546.6632 357220.6771 67546.6632 349978.01314 74789.32716 Z"></path><path stroke="#434343" stroke-opacity="1" stroke-width="381" stroke-linecap="butt" stroke-linejoin="round" stroke-miterlimit="8" d="M 329416.6771 74789.32716 L 336659.34105999995 67546.6632 357220.6771 67546.6632 357220.6771 88539.99923999999 349978.01314 95782.6632 329416.6771 95782.6632 Z M 329416.6771 74789.32716 L 349978.01314 74789.32716 357220.6771 67546.6632 M 349978.01314 74789.32716 L 349978.01314 95782.6632"></path></g><g><path fill="#000" fill-opacity="0" pointer-events="visiblePainted" d="M 329416.6771 74789.32716 L 349978.01314 74789.32716 349978.01314 95782.6632 329416.6771 95782.6632 Z"></path><path fill="#000" fill-opacity="0" pointer-events="visiblePainted" d="M 349978.01314 74789.32716 L 357220.6771 67546.6632 357220.6771 88539.99923999999 349978.01314 95782.6632 Z"></path><path fill="#000" fill-opacity="0" pointer-events="visiblePainted" d="M 329416.6771 74789.32716 L 336659.34105999995 67546.6632 357220.6771 67546.6632 349978.01314 74789.32716 Z"></path><path stroke="#000" stroke-opacity="0" stroke-width="2714.2480211081793" stroke-linecap="round" stroke-linejoin="round" stroke-miterlimit="10" pointer-events="visiblePainted" d="M 329416.6771 74789.32716 L 336659.34105999995 67546.6632 357220.6771 67546.6632 357220.6771 88539.99923999999 349978.01314 95782.6632 329416.6771 95782.6632 Z M 329416.6771 74789.32716 L 349978.01314 74789.32716 357220.6771 67546.6632 M 349978.01314 74789.32716 L 349978.01314 95782.6632"></path></g></g></g><g id="editor-g3c5246b155_0_166"><g><g><path d="M 327713.9184 74661 L 351833.9184 74661 351833.9184 95721 327713.9184 95721 Z"></path></g><g><path fill="#000" fill-opacity="0" stroke="#000" stroke-opacity="0" stroke-width="2714.2480211081793" stroke-linecap="round" stroke-linejoin="round" stroke-miterlimit="10" pointer-events="visiblePainted" d="M 327713.9184 74661 L 351833.9184 74661 351833.9184 95721 327713.9184 95721 Z"></path></g><g><g direction="ltr" style="opacity: 1;"><g transform="matrix(381,0,0,380.99999999999994,331370.9184,77190)"><g pointer-events="none"><g id="editor-g3c5246b155_0_166-paragraph-0"><g><g class="sketchy-text-background" visibility="visible"></g><g></g><g class="sketchy-text-content" visibility="visible"><g class="sketchy-text-content-text" transform="translate(0 16.639999999999997)"><text x="0.3059802318182534px" style="font-family:Merriweather;font-size:17.333333333333332px;fill:#434343;white-space:pre;" y="0px" text-rendering="geometricPrecision">Final</text></g></g></g><g transform="translate(0 21)"><g class="sketchy-text-background" visibility="visible"></g><g></g><g class="sketchy-text-content" visibility="visible"><g class="sketchy-text-content-text" transform="translate(0 16.639999999999997)"><text x="0.28000214343934715px" style="font-family:Merriweather;font-size:17.333333333333332px;fill:#434343;white-space:pre;" y="0px" text-rendering="geometricPrecision">State</text></g></g></g></g></g><rect style="opacity: 0;"></rect><rect style="opacity: 1;"></rect></g><g><path d="M 331477.5992166504 77190 L 348070.23758334963 77190 348070.23758334963 93115.79999999999 331477.5992166504 93115.79999999999 Z" pointer-events="visiblePainted" fill="#000000" stroke="#000000" opacity="0"></path></g><g transform="matrix(381,0,0,380.99999999999994,331370.9184,77190)"></g></g></g></g></g></g></g></g></svg>
