<svg xmlns="http://www.w3.org/2000/svg" xmlns:xlink="http://www.w3.org/1999/xlink" version="1.1" fill-rule="evenodd" fill="none" stroke="none" stroke-linecap="square" stroke-miterlimit="10" overflow="hidden" preserveAspectRatio="none" width="1459px" height="792px" viewBox="0 0 555879 301752"><rect fill="#ffffff" fill-opacity="0" width="100%" height="100%"></rect><g transform="translate(21336 6858) scale(1.4037037037037037)"><defs cursor="default"></defs><g id="editor-g3c5246b155_0_9"><path fill="#fff" fill-opacity="1" d="M 0 0 L 365760 0 365760 205740 0 205740 Z"></path><g id="editor-g3c5246b155_0_9-bg"><g><g><path fill="#FFFFFF" fill-opacity="1" d="M 0 0 L 365760 0 365760 205740 0 205740 Z"></path></g></g></g><g id="editor-g3c5246b155_0_13"><g><g><path stroke="#76A5AF" stroke-opacity="1" stroke-width="1524" stroke-linecap="butt" stroke-linejoin="round" stroke-miterlimit="8" d="M 123584.9701 12473 L 158360.9701 12473 158360.9701 34865 123584.9701 34865 Z"></path></g><g><path fill="#000" fill-opacity="0" stroke="#000" stroke-opacity="0" stroke-width="2714.2480211081793" stroke-linecap="round" stroke-linejoin="round" stroke-miterlimit="10" pointer-events="visiblePainted" d="M 123584.9701 12473 L 158360.9701 12473 158360.9701 34865 123584.9701 34865 Z"></path></g><g><g direction="ltr" style="opacity: 1;"><g transform="matrix(381,0,0,380.99999999999994,127241.9701,16130)"><g pointer-events="none"><g id="editor-g3c5246b155_0_13-paragraph-0"><g><g class="sketchy-text-background" visibility="visible"></g><g></g><g class="sketchy-text-content" visibility="visible"><g class="sketchy-text-content-text" transform="translate(0 30.72)"><text x="4.935381431279218px" style="font-family:Merriweather;font-size:32px;fill:#434343;white-space:pre;" y="0px" text-rendering="geometricPrecision">Hey</text></g></g></g></g></g><rect style="opacity: 0;"></rect><rect style="opacity: 1;"></rect></g><g><path d="M 129122.35042531739 16130 L 152823.58977468262 16130 152823.58977468262 30760.399999999998 129122.35042531739 30760.399999999998 Z" pointer-events="visiblePainted" fill="#000000" stroke="#000000" opacity="0"></path></g><g transform="matrix(381,0,0,380.99999999999994,127241.9701,16130)"></g></g></g></g></g><g id="editor-g3c5246b155_0_14"><g><g><path stroke="#76A5AF" stroke-opacity="1" stroke-width="1524" stroke-linecap="butt" stroke-linejoin="round" stroke-miterlimit="8" d="M 163692.764 12473 L 206568.764 12473 206568.764 34865 163692.764 34865 Z"></path></g><g><path fill="#000" fill-opacity="0" stroke="#000" stroke-opacity="0" stroke-width="2714.2480211081793" stroke-linecap="round" stroke-linejoin="round" stroke-miterlimit="10" pointer-events="visiblePainted" d="M 163692.764 12473 L 206568.764 12473 206568.764 34865 163692.764 34865 Z"></path></g><g><g direction="ltr" style="opacity: 1;"><g transform="matrix(380.99999999999994,0,0,380.99999999999994,167349.764,16130)"><g pointer-events="none"><g id="editor-g3c5246b155_0_14-paragraph-0"><g><g class="sketchy-text-background" visibility="visible"></g><g></g><g class="sketchy-text-content" visibility="visible"><g class="sketchy-text-content-text" transform="translate(0 30.72)"><text x="4.877314409871737px" style="font-family:Merriweather;font-size:32px;fill:#434343;white-space:pre;" y="0px" text-rendering="geometricPrecision">there</text></g></g></g></g></g><rect style="opacity: 0;"></rect><rect style="opacity: 1;"></rect></g><g><path d="M 169208.02079016113 16130 L 201053.50720983886 16130 201053.50720983886 30760.399999999998 169208.02079016113 30760.399999999998 Z" pointer-events="visiblePainted" fill="#000000" stroke="#000000" opacity="0"></path></g><g transform="matrix(380.99999999999994,0,0,380.99999999999994,167349.764,16130)"></g></g></g></g></g><g id="editor-g3c5246b155_0_15"><g><g><path stroke="#76A5AF" stroke-opacity="1" stroke-width="1524" stroke-linecap="butt" stroke-linejoin="round" stroke-miterlimit="8" d="M 211900.5579 12473 L 246676.5579 12473 246676.5579 34865 211900.5579 34865 Z"></path></g><g><path fill="#000" fill-opacity="0" stroke="#000" stroke-opacity="0" stroke-width="2714.2480211081793" stroke-linecap="round" stroke-linejoin="round" stroke-miterlimit="10" pointer-events="visiblePainted" d="M 211900.5579 12473 L 246676.5579 12473 246676.5579 34865 211900.5579 34865 Z"></path></g><g><g direction="ltr" style="opacity: 1;"><g transform="matrix(381,0,0,380.99999999999994,215557.5579,16130)"><g pointer-events="none"><g id="editor-g3c5246b155_0_15-paragraph-0"><g><g class="sketchy-text-background" visibility="visible"></g><g></g><g class="sketchy-text-content" visibility="visible"><g class="sketchy-text-content-text" transform="translate(0 30.72)"><text x="2.3433785626268744px" style="font-family:Merriweather;font-size:32px;fill:#434343;white-space:pre;" y="0px" text-rendering="geometricPrecision">how</text></g></g></g></g></g><rect style="opacity: 0;"></rect><rect style="opacity: 1;"></rect></g><g><path d="M 216450.38513236085 16130 L 242126.73066763917 16130 242126.73066763917 30760.399999999998 216450.38513236085 30760.399999999998 Z" pointer-events="visiblePainted" fill="#000000" stroke="#000000" opacity="0"></path></g><g transform="matrix(381,0,0,380.99999999999994,215557.5579,16130)"></g></g></g></g></g><g id="editor-g3c5246b155_0_16"><g><g><path stroke="#76A5AF" stroke-opacity="1" stroke-width="1524" stroke-linecap="butt" stroke-linejoin="round" stroke-miterlimit="8" d="M 252008.3517 12473 L 278792.3517 12473 278792.3517 34865 252008.3517 34865 Z"></path></g><g><path fill="#000" fill-opacity="0" stroke="#000" stroke-opacity="0" stroke-width="2714.2480211081793" stroke-linecap="round" stroke-linejoin="round" stroke-miterlimit="10" pointer-events="visiblePainted" d="M 252008.3517 12473 L 278792.3517 12473 278792.3517 34865 252008.3517 34865 Z"></path></g><g><g direction="ltr" style="opacity: 1;"><g transform="matrix(380.99999999999994,0,0,380.99999999999994,255665.3517,16130)"><g pointer-events="none"><g id="editor-g3c5246b155_0_16-paragraph-0"><g><g class="sketchy-text-background" visibility="visible"></g><g></g><g class="sketchy-text-content" visibility="visible"><g class="sketchy-text-content-text" transform="translate(0 30.72)"><text x="0.543193126287985px" style="font-family:Merriweather;font-size:32px;fill:#434343;white-space:pre;" y="0px" text-rendering="geometricPrecision">are</text></g></g></g></g></g><rect style="opacity: 0;"></rect><rect style="opacity: 1;"></rect></g><g><path d="M 255872.30828111572 16130 L 274928.3951188843 16130 274928.3951188843 30760.399999999998 255872.30828111572 30760.399999999998 Z" pointer-events="visiblePainted" fill="#000000" stroke="#000000" opacity="0"></path></g><g transform="matrix(380.99999999999994,0,0,380.99999999999994,255665.3517,16130)"></g></g></g></g></g><g id="editor-g3c5246b155_0_17"><g><g><path stroke="#76A5AF" stroke-opacity="1" stroke-width="1524" stroke-linecap="butt" stroke-linejoin="round" stroke-miterlimit="8" d="M 284124.1456 12473 L 317040.1456 12473 317040.1456 34865 284124.1456 34865 Z"></path></g><g><path fill="#000" fill-opacity="0" stroke="#000" stroke-opacity="0" stroke-width="2714.2480211081793" stroke-linecap="round" stroke-linejoin="round" stroke-miterlimit="10" pointer-events="visiblePainted" d="M 284124.1456 12473 L 317040.1456 12473 317040.1456 34865 284124.1456 34865 Z"></path></g><g><g direction="ltr" style="opacity: 1;"><g transform="matrix(381,0,0,380.99999999999994,287781.1456,16130)"><g pointer-events="none"><g id="editor-g3c5246b155_0_17-paragraph-0"><g><g class="sketchy-text-background" visibility="visible"></g><g></g><g class="sketchy-text-content" visibility="visible"><g class="sketchy-text-content-text" transform="translate(0 30.72)"><text x="4.606428431713674px" style="font-family:Merriweather;font-size:32px;fill:#434343;white-space:pre;" y="0px" text-rendering="geometricPrecision">you</text></g></g></g></g></g><rect style="opacity: 0;"></rect><rect style="opacity: 1;"></rect></g><g><path d="M 289536.1948324829 16130 L 311628.0963675171 16130 311628.0963675171 30760.399999999998 289536.1948324829 30760.399999999998 Z" pointer-events="visiblePainted" fill="#000000" stroke="#000000" opacity="0"></path></g><g transform="matrix(381,0,0,380.99999999999994,287781.1456,16130)"></g></g></g></g></g><g id="editor-g3c5246b155_0_18"><g><g><path stroke="#76A5AF" stroke-opacity="1" stroke-width="1524" stroke-linecap="butt" stroke-linejoin="round" stroke-miterlimit="8" d="M 322371.9395 12472.9626 L 338067.9395 12472.9626 338067.9395 34864.9626 322371.9395 34864.9626 Z"></path></g><g><path fill="#000" fill-opacity="0" stroke="#000" stroke-opacity="0" stroke-width="2714.2480211081793" stroke-linecap="round" stroke-linejoin="round" stroke-miterlimit="10" pointer-events="visiblePainted" d="M 322371.9395 12472.9626 L 338067.9395 12472.9626 338067.9395 34864.9626 322371.9395 34864.9626 Z"></path></g><g><g direction="ltr" style="opacity: 1;"><g transform="matrix(381,0,0,380.99999999999994,326028.9395,16129.9626)"><g pointer-events="none"><g id="editor-g3c5246b155_0_18-paragraph-0"><g><g class="sketchy-text-background" visibility="visible"></g><g></g><g class="sketchy-text-content" visibility="visible"><g class="sketchy-text-content-text" transform="translate(0 30.72)"><text x="3.2080001831054688px" style="font-family:Merriweather;font-size:32px;fill:#434343;white-space:pre;" y="0px" text-rendering="geometricPrecision">?</text></g></g></g></g></g><rect style="opacity: 0;"></rect><rect style="opacity: 1;"></rect></g><g><path d="M 327251.18756976316 16129.9626 L 333188.6914302368 16129.9626 333188.6914302368 30760.3626 327251.18756976316 30760.3626 Z" pointer-events="visiblePainted" fill="#000000" stroke="#000000" opacity="0"></path></g><g transform="matrix(381,0,0,380.99999999999994,326028.9395,16129.9626)"></g></g></g></g></g><g id="editor-g3c5246b155_0_19"><g><g><path d="M 6243.4039 12473.9556 L 78183.4039 12473.9556 78183.4039 46697.9556 6243.4039 46697.9556 Z"></path></g><g><path fill="#000" fill-opacity="0" stroke="#000" stroke-opacity="0" stroke-width="2714.2480211081793" stroke-linecap="round" stroke-linejoin="round" stroke-miterlimit="10" pointer-events="visiblePainted" d="M 6243.4039 12473.9556 L 78183.4039 12473.9556 78183.4039 46697.9556 6243.4039 46697.9556 Z"></path></g><g><g direction="ltr" style="opacity: 1;"><g transform="matrix(381,0,0,381,9900.403900000001,16130.9556)"><g pointer-events="none"><g id="editor-g3c5246b155_0_19-paragraph-0"><g><g class="sketchy-text-background" visibility="visible"></g><g></g><g class="sketchy-text-content" visibility="visible"><g class="sketchy-text-content-text" transform="translate(0 30.72)"><text x="0px" style="font-family:Merriweather;font-size:32px;fill:#434343;white-space:pre;" y="0px" text-rendering="geometricPrecision">Text</text></g></g></g><g transform="translate(0 38)"><g class="sketchy-text-background" visibility="visible"></g><g></g><g class="sketchy-text-content" visibility="visible"><g class="sketchy-text-content-text" transform="translate(0 23.04)"><text x="0px" style="font-family:Merriweather;font-size:24px;fill:#666666;white-space:pre;" y="0px" text-rendering="geometricPrecision">raw</text></g></g></g></g></g><rect style="opacity: 0;"></rect><rect style="opacity: 1;"></rect></g><g><path d="M 9900.403900000001 16130.9556 L 37186.08724960938 16130.9556 37186.08724960938 41581.7556 9900.403900000001 41581.7556 Z" pointer-events="visiblePainted" fill="#000000" stroke="#000000" opacity="0"></path></g><g transform="matrix(381,0,0,381,9900.403900000001,16130.9556)"></g></g></g></g></g><g id="editor-g3c5246b155_0_20"><g><g><path d="M 6243.4039 50180.6914 L 98019.4039 50180.6914 98019.4039 81116.6914 6243.4039 81116.6914 Z"></path></g><g><path fill="#000" fill-opacity="0" stroke="#000" stroke-opacity="0" stroke-width="2714.2480211081793" stroke-linecap="round" stroke-linejoin="round" stroke-miterlimit="10" pointer-events="visiblePainted" d="M 6243.4039 50180.6914 L 98019.4039 50180.6914 98019.4039 81116.6914 6243.4039 81116.6914 Z"></path></g><g><g direction="ltr" style="opacity: 1;"><g transform="matrix(381.00000000000006,0,0,380.99999999999983,9900.403900000001,53837.6914)"><g pointer-events="none"><g id="editor-g3c5246b155_0_20-paragraph-0"><g><g class="sketchy-text-background" visibility="visible"></g><g></g><g class="sketchy-text-content" visibility="visible"><g class="sketchy-text-content-text" transform="translate(0 30.72)"><text x="0px" style="font-family:Merriweather;font-size:32px;fill:#434343;white-space:pre;" y="0px" text-rendering="geometricPrecision">Embeddings</text></g></g></g><g transform="translate(0 38)"><g class="sketchy-text-background" visibility="visible"></g><g></g><g class="sketchy-text-content" visibility="visible"><g class="sketchy-text-content-text" transform="translate(0 21.759999999999998)"><text x="0px" style="font-family:Merriweather;font-size:22.666666666666664px;fill:#666666;white-space:pre;" y="0px" text-rendering="geometricPrecision">200</text><text x="48.06182861328125px" style="font-family:Merriweather;font-size:22.666666666666664px;fill:#666666;white-space:pre;" y="0px" text-rendering="geometricPrecision">dimensions</text></g></g></g></g></g><rect style="opacity: 0;"></rect><rect style="opacity: 1;"></rect></g><g><path d="M 9900.403900000001 53837.6914 L 84856.79376206057 53837.6914 84856.79376206057 78678.8914 9900.403900000001 78678.8914 Z" pointer-events="visiblePainted" fill="#000000" stroke="#000000" opacity="0"></path></g><g transform="matrix(381.00000000000006,0,0,380.99999999999983,9900.403900000001,53837.6914)"></g></g></g></g></g><g id="editor-g3c5246b155_0_21"><g><g><path d="M 6243.4039 94768.6275 L 115971.4039 94768.6275 115971.4039 125704.6275 6243.4039 125704.6275 Z"></path></g><g><path fill="#000" fill-opacity="0" stroke="#000" stroke-opacity="0" stroke-width="2714.2480211081793" stroke-linecap="round" stroke-linejoin="round" stroke-miterlimit="10" pointer-events="visiblePainted" d="M 6243.4039 94768.6275 L 115971.4039 94768.6275 115971.4039 125704.6275 6243.4039 125704.6275 Z"></path></g><g><g direction="ltr" style="opacity: 1;"><g transform="matrix(381,0,0,381,9900.403900000001,98425.6275)"><g pointer-events="none"><g id="editor-g3c5246b155_0_21-paragraph-0"><g><g class="sketchy-text-background" visibility="visible"></g><g></g><g class="sketchy-text-content" visibility="visible"><g class="sketchy-text-content-text" transform="translate(0 30.72)"><text x="0px" style="font-family:Merriweather;font-size:32px;fill:#434343;white-space:pre;" y="0px" text-rendering="geometricPrecision">Convolutions</text></g></g></g><g transform="translate(0 38)"><g class="sketchy-text-background" visibility="visible"></g><g></g><g class="sketchy-text-content" visibility="visible"><g class="sketchy-text-content-text" transform="translate(0 23.04)"><text x="0px" style="font-family:Merriweather;font-size:24px;fill:#666666;white-space:pre;" y="0px" text-rendering="geometricPrecision">100</text><text x="47.111968994140625px" style="font-family:Merriweather;font-size:24px;fill:#666666;white-space:pre;" y="0px" text-rendering="geometricPrecision">filters</text><text x="124.31991577148438px" style="font-family:Merriweather;font-size:24px;fill:#666666;white-space:pre;" y="0px" text-rendering="geometricPrecision">of</text><text x="154.19989013671875px" style="font-family:Merriweather;font-size:24px;fill:#666666;white-space:pre;" y="0px" text-rendering="geometricPrecision">3</text></g></g></g></g></g><rect style="opacity: 0;"></rect><rect style="opacity: 1;"></rect></g><g><path d="M 9900.403900000001 98425.6275 L 90160.30143723145 98425.6275 90160.30143723145 123876.4275 9900.403900000001 123876.4275 Z" pointer-events="visiblePainted" fill="#000000" stroke="#000000" opacity="0"></path></g><g transform="matrix(381,0,0,381,9900.403900000001,98425.6275)"></g></g></g></g></g><g id="editor-g3c5246b155_0_22"><g><g><path d="M 6243.4039 142537.8834 L 115971.4039 142537.8834 115971.4039 173473.8834 6243.4039 173473.8834 Z"></path></g><g><path fill="#000" fill-opacity="0" stroke="#000" stroke-opacity="0" stroke-width="2714.2480211081793" stroke-linecap="round" stroke-linejoin="round" stroke-miterlimit="10" pointer-events="visiblePainted" d="M 6243.4039 142537.8834 L 115971.4039 142537.8834 115971.4039 173473.8834 6243.4039 173473.8834 Z"></path></g><g><g direction="ltr" style="opacity: 1;"><g transform="matrix(381,0,0,381,9900.403900000001,146194.8834)"><g pointer-events="none"><g id="editor-g3c5246b155_0_22-paragraph-0"><g><g class="sketchy-text-background" visibility="visible"></g><g></g><g class="sketchy-text-content" visibility="visible"><g class="sketchy-text-content-text" transform="translate(0 30.72)"><text x="0px" style="font-family:Merriweather;font-size:32px;fill:#434343;white-space:pre;" y="0px" text-rendering="geometricPrecision">Max</text><text x="76.2559814453125px" style="font-family:Merriweather;font-size:32px;fill:#434343;white-space:pre;" y="0px" text-rendering="geometricPrecision">Pooling</text></g></g></g><g transform="translate(0 38)"><g class="sketchy-text-background" visibility="visible"></g><g></g><g class="sketchy-text-content" visibility="visible"><g class="sketchy-text-content-text" transform="translate(0 23.04)"><text x="0px" style="font-family:Merriweather;font-size:24px;fill:#666666;white-space:pre;" y="0px" text-rendering="geometricPrecision">of</text><text x="29.879974365234375px" style="font-family:Merriweather;font-size:24px;fill:#666666;white-space:pre;" y="0px" text-rendering="geometricPrecision">3</text><text x="49.00794982910156px" style="font-family:Merriweather;font-size:24px;fill:#666666;white-space:pre;" y="0px" text-rendering="geometricPrecision">each</text></g></g></g></g></g><rect style="opacity: 0;"></rect><rect style="opacity: 1;"></rect></g><g><path d="M 9900.403900000001 146194.8834 L 85307.894134375 146194.8834 85307.894134375 171645.68339999998 9900.403900000001 171645.68339999998 Z" pointer-events="visiblePainted" fill="#000000" stroke="#000000" opacity="0"></path></g><g transform="matrix(381,0,0,381,9900.403900000001,146194.8834)"></g></g></g></g></g><g id="editor-g3c5246b155_0_23"><g><g><path fill="#A4C2F4" fill-opacity="1" d="M 129626.404 60369.651920000004 L 144073.69348 60369.651920000004 144073.69348 74816.94140000001 129626.404 74816.94140000001 Z"></path><path fill="#839bc3" fill-opacity="1" d="M 144073.69348 60369.651920000004 L 154262.40399999998 50180.9414 154262.40399999998 64628.23088 144073.69348 74816.94140000001 Z"></path><path fill="#b6cef6" fill-opacity="1" d="M 129626.404 60369.651920000004 L 139815.11452 50180.9414 154262.40399999998 50180.9414 144073.69348 60369.651920000004 Z"></path><path stroke="#434343" stroke-opacity="1" stroke-width="381" stroke-linecap="butt" stroke-linejoin="round" stroke-miterlimit="8" d="M 129626.404 60369.651920000004 L 139815.11452 50180.9414 154262.40399999998 50180.9414 154262.40399999998 64628.23088 144073.69348 74816.94140000001 129626.404 74816.94140000001 Z M 129626.404 60369.651920000004 L 144073.69348 60369.651920000004 154262.40399999998 50180.9414 M 144073.69348 60369.651920000004 L 144073.69348 74816.94140000001"></path></g><g><path fill="#000" fill-opacity="0" pointer-events="visiblePainted" d="M 129626.404 60369.651920000004 L 144073.69348 60369.651920000004 144073.69348 74816.94140000001 129626.404 74816.94140000001 Z"></path><path fill="#000" fill-opacity="0" pointer-events="visiblePainted" d="M 144073.69348 60369.651920000004 L 154262.40399999998 50180.9414 154262.40399999998 64628.23088 144073.69348 74816.94140000001 Z"></path><path fill="#000" fill-opacity="0" pointer-events="visiblePainted" d="M 129626.404 60369.651920000004 L 139815.11452 50180.9414 154262.40399999998 50180.9414 144073.69348 60369.651920000004 Z"></path><path stroke="#000" stroke-opacity="0" stroke-width="2714.2480211081793" stroke-linecap="round" stroke-linejoin="round" stroke-miterlimit="10" pointer-events="visiblePainted" d="M 129626.404 60369.651920000004 L 139815.11452 50180.9414 154262.40399999998 50180.9414 154262.40399999998 64628.23088 144073.69348 74816.94140000001 129626.404 74816.94140000001 Z M 129626.404 60369.651920000004 L 144073.69348 60369.651920000004 154262.40399999998 50180.9414 M 144073.69348 60369.651920000004 L 144073.69348 74816.94140000001"></path></g></g></g><g id="editor-g3c5246b155_0_24"><g><g><path fill="#A4C2F4" fill-opacity="1" d="M 166346.7707 60369.651920000004 L 180794.06018 60369.651920000004 180794.06018 74816.94140000001 166346.7707 74816.94140000001 Z"></path><path fill="#839bc3" fill-opacity="1" d="M 180794.06018 60369.651920000004 L 190982.7707 50180.9414 190982.7707 64628.23088 180794.06018 74816.94140000001 Z"></path><path fill="#b6cef6" fill-opacity="1" d="M 166346.7707 60369.651920000004 L 176535.48122 50180.9414 190982.7707 50180.9414 180794.06018 60369.651920000004 Z"></path><path stroke="#434343" stroke-opacity="1" stroke-width="381" stroke-linecap="butt" stroke-linejoin="round" stroke-miterlimit="8" d="M 166346.7707 60369.651920000004 L 176535.48122 50180.9414 190982.7707 50180.9414 190982.7707 64628.23088 180794.06018 74816.94140000001 166346.7707 74816.94140000001 Z M 166346.7707 60369.651920000004 L 180794.06018 60369.651920000004 190982.7707 50180.9414 M 180794.06018 60369.651920000004 L 180794.06018 74816.94140000001"></path></g><g><path fill="#000" fill-opacity="0" pointer-events="visiblePainted" d="M 166346.7707 60369.651920000004 L 180794.06018 60369.651920000004 180794.06018 74816.94140000001 166346.7707 74816.94140000001 Z"></path><path fill="#000" fill-opacity="0" pointer-events="visiblePainted" d="M 180794.06018 60369.651920000004 L 190982.7707 50180.9414 190982.7707 64628.23088 180794.06018 74816.94140000001 Z"></path><path fill="#000" fill-opacity="0" pointer-events="visiblePainted" d="M 166346.7707 60369.651920000004 L 176535.48122 50180.9414 190982.7707 50180.9414 180794.06018 60369.651920000004 Z"></path><path stroke="#000" stroke-opacity="0" stroke-width="2714.2480211081793" stroke-linecap="round" stroke-linejoin="round" stroke-miterlimit="10" pointer-events="visiblePainted" d="M 166346.7707 60369.651920000004 L 176535.48122 50180.9414 190982.7707 50180.9414 190982.7707 64628.23088 180794.06018 74816.94140000001 166346.7707 74816.94140000001 Z M 166346.7707 60369.651920000004 L 180794.06018 60369.651920000004 190982.7707 50180.9414 M 180794.06018 60369.651920000004 L 180794.06018 74816.94140000001"></path></g></g></g><g id="editor-g3c5246b155_0_25"><g><g><path fill="#A4C2F4" fill-opacity="1" d="M 203067.1372 60369.651920000004 L 217514.42668 60369.651920000004 217514.42668 74816.94140000001 203067.1372 74816.94140000001 Z"></path><path fill="#839bc3" fill-opacity="1" d="M 217514.42668 60369.651920000004 L 227703.1372 50180.9414 227703.1372 64628.23088 217514.42668 74816.94140000001 Z"></path><path fill="#b6cef6" fill-opacity="1" d="M 203067.1372 60369.651920000004 L 213255.84772 50180.9414 227703.1372 50180.9414 217514.42668 60369.651920000004 Z"></path><path stroke="#434343" stroke-opacity="1" stroke-width="381" stroke-linecap="butt" stroke-linejoin="round" stroke-miterlimit="8" d="M 203067.1372 60369.651920000004 L 213255.84772 50180.9414 227703.1372 50180.9414 227703.1372 64628.23088 217514.42668 74816.94140000001 203067.1372 74816.94140000001 Z M 203067.1372 60369.651920000004 L 217514.42668 60369.651920000004 227703.1372 50180.9414 M 217514.42668 60369.651920000004 L 217514.42668 74816.94140000001"></path></g><g><path fill="#000" fill-opacity="0" pointer-events="visiblePainted" d="M 203067.1372 60369.651920000004 L 217514.42668 60369.651920000004 217514.42668 74816.94140000001 203067.1372 74816.94140000001 Z"></path><path fill="#000" fill-opacity="0" pointer-events="visiblePainted" d="M 217514.42668 60369.651920000004 L 227703.1372 50180.9414 227703.1372 64628.23088 217514.42668 74816.94140000001 Z"></path><path fill="#000" fill-opacity="0" pointer-events="visiblePainted" d="M 203067.1372 60369.651920000004 L 213255.84772 50180.9414 227703.1372 50180.9414 217514.42668 60369.651920000004 Z"></path><path stroke="#000" stroke-opacity="0" stroke-width="2714.2480211081793" stroke-linecap="round" stroke-linejoin="round" stroke-miterlimit="10" pointer-events="visiblePainted" d="M 203067.1372 60369.651920000004 L 213255.84772 50180.9414 227703.1372 50180.9414 227703.1372 64628.23088 217514.42668 74816.94140000001 203067.1372 74816.94140000001 Z M 203067.1372 60369.651920000004 L 217514.42668 60369.651920000004 227703.1372 50180.9414 M 217514.42668 60369.651920000004 L 217514.42668 74816.94140000001"></path></g></g></g><g id="editor-g3c5246b155_0_26"><g><g><path fill="#A4C2F4" fill-opacity="1" d="M 239787.5039 60369.651920000004 L 254234.79338000002 60369.651920000004 254234.79338000002 74816.94140000001 239787.5039 74816.94140000001 Z"></path><path fill="#839bc3" fill-opacity="1" d="M 254234.79338000002 60369.651920000004 L 264423.5039 50180.9414 264423.5039 64628.23088 254234.79338000002 74816.94140000001 Z"></path><path fill="#b6cef6" fill-opacity="1" d="M 239787.5039 60369.651920000004 L 249976.21442 50180.9414 264423.5039 50180.9414 254234.79338000002 60369.651920000004 Z"></path><path stroke="#434343" stroke-opacity="1" stroke-width="381" stroke-linecap="butt" stroke-linejoin="round" stroke-miterlimit="8" d="M 239787.5039 60369.651920000004 L 249976.21442 50180.9414 264423.5039 50180.9414 264423.5039 64628.23088 254234.79338000002 74816.94140000001 239787.5039 74816.94140000001 Z M 239787.5039 60369.651920000004 L 254234.79338000002 60369.651920000004 264423.5039 50180.9414 M 254234.79338000002 60369.651920000004 L 254234.79338000002 74816.94140000001"></path></g><g><path fill="#000" fill-opacity="0" pointer-events="visiblePainted" d="M 239787.5039 60369.651920000004 L 254234.79338000002 60369.651920000004 254234.79338000002 74816.94140000001 239787.5039 74816.94140000001 Z"></path><path fill="#000" fill-opacity="0" pointer-events="visiblePainted" d="M 254234.79338000002 60369.651920000004 L 264423.5039 50180.9414 264423.5039 64628.23088 254234.79338000002 74816.94140000001 Z"></path><path fill="#000" fill-opacity="0" pointer-events="visiblePainted" d="M 239787.5039 60369.651920000004 L 249976.21442 50180.9414 264423.5039 50180.9414 254234.79338000002 60369.651920000004 Z"></path><path stroke="#000" stroke-opacity="0" stroke-width="2714.2480211081793" stroke-linecap="round" stroke-linejoin="round" stroke-miterlimit="10" pointer-events="visiblePainted" d="M 239787.5039 60369.651920000004 L 249976.21442 50180.9414 264423.5039 50180.9414 264423.5039 64628.23088 254234.79338000002 74816.94140000001 239787.5039 74816.94140000001 Z M 239787.5039 60369.651920000004 L 254234.79338000002 60369.651920000004 264423.5039 50180.9414 M 254234.79338000002 60369.651920000004 L 254234.79338000002 74816.94140000001"></path></g></g></g><g id="editor-g3c5246b155_0_27"><g><g><path fill="#A4C2F4" fill-opacity="1" d="M 276507.8705 60369.651920000004 L 290955.15998 60369.651920000004 290955.15998 74816.94140000001 276507.8705 74816.94140000001 Z"></path><path fill="#839bc3" fill-opacity="1" d="M 290955.15998 60369.651920000004 L 301143.8705 50180.9414 301143.8705 64628.23088 290955.15998 74816.94140000001 Z"></path><path fill="#b6cef6" fill-opacity="1" d="M 276507.8705 60369.651920000004 L 286696.58102000004 50180.9414 301143.8705 50180.9414 290955.15998 60369.651920000004 Z"></path><path stroke="#434343" stroke-opacity="1" stroke-width="381" stroke-linecap="butt" stroke-linejoin="round" stroke-miterlimit="8" d="M 276507.8705 60369.651920000004 L 286696.58102000004 50180.9414 301143.8705 50180.9414 301143.8705 64628.23088 290955.15998 74816.94140000001 276507.8705 74816.94140000001 Z M 276507.8705 60369.651920000004 L 290955.15998 60369.651920000004 301143.8705 50180.9414 M 290955.15998 60369.651920000004 L 290955.15998 74816.94140000001"></path></g><g><path fill="#000" fill-opacity="0" pointer-events="visiblePainted" d="M 276507.8705 60369.651920000004 L 290955.15998 60369.651920000004 290955.15998 74816.94140000001 276507.8705 74816.94140000001 Z"></path><path fill="#000" fill-opacity="0" pointer-events="visiblePainted" d="M 290955.15998 60369.651920000004 L 301143.8705 50180.9414 301143.8705 64628.23088 290955.15998 74816.94140000001 Z"></path><path fill="#000" fill-opacity="0" pointer-events="visiblePainted" d="M 276507.8705 60369.651920000004 L 286696.58102000004 50180.9414 301143.8705 50180.9414 290955.15998 60369.651920000004 Z"></path><path stroke="#000" stroke-opacity="0" stroke-width="2714.2480211081793" stroke-linecap="round" stroke-linejoin="round" stroke-miterlimit="10" pointer-events="visiblePainted" d="M 276507.8705 60369.651920000004 L 286696.58102000004 50180.9414 301143.8705 50180.9414 301143.8705 64628.23088 290955.15998 74816.94140000001 276507.8705 74816.94140000001 Z M 276507.8705 60369.651920000004 L 290955.15998 60369.651920000004 301143.8705 50180.9414 M 290955.15998 60369.651920000004 L 290955.15998 74816.94140000001"></path></g></g></g><g id="editor-g3c5246b155_0_28"><g><g><path fill="#A4C2F4" fill-opacity="1" d="M 313228.2373 60369.651920000004 L 327675.52677999996 60369.651920000004 327675.52677999996 74816.94140000001 313228.2373 74816.94140000001 Z"></path><path fill="#839bc3" fill-opacity="1" d="M 327675.52677999996 60369.651920000004 L 337864.2373 50180.9414 337864.2373 64628.23088 327675.52677999996 74816.94140000001 Z"></path><path fill="#b6cef6" fill-opacity="1" d="M 313228.2373 60369.651920000004 L 323416.94782 50180.9414 337864.2373 50180.9414 327675.52677999996 60369.651920000004 Z"></path><path stroke="#434343" stroke-opacity="1" stroke-width="381" stroke-linecap="butt" stroke-linejoin="round" stroke-miterlimit="8" d="M 313228.2373 60369.651920000004 L 323416.94782 50180.9414 337864.2373 50180.9414 337864.2373 64628.23088 327675.52677999996 74816.94140000001 313228.2373 74816.94140000001 Z M 313228.2373 60369.651920000004 L 327675.52677999996 60369.651920000004 337864.2373 50180.9414 M 327675.52677999996 60369.651920000004 L 327675.52677999996 74816.94140000001"></path></g><g><path fill="#000" fill-opacity="0" pointer-events="visiblePainted" d="M 313228.2373 60369.651920000004 L 327675.52677999996 60369.651920000004 327675.52677999996 74816.94140000001 313228.2373 74816.94140000001 Z"></path><path fill="#000" fill-opacity="0" pointer-events="visiblePainted" d="M 327675.52677999996 60369.651920000004 L 337864.2373 50180.9414 337864.2373 64628.23088 327675.52677999996 74816.94140000001 Z"></path><path fill="#000" fill-opacity="0" pointer-events="visiblePainted" d="M 313228.2373 60369.651920000004 L 323416.94782 50180.9414 337864.2373 50180.9414 327675.52677999996 60369.651920000004 Z"></path><path stroke="#000" stroke-opacity="0" stroke-width="2714.2480211081793" stroke-linecap="round" stroke-linejoin="round" stroke-miterlimit="10" pointer-events="visiblePainted" d="M 313228.2373 60369.651920000004 L 323416.94782 50180.9414 337864.2373 50180.9414 337864.2373 64628.23088 327675.52677999996 74816.94140000001 313228.2373 74816.94140000001 Z M 313228.2373 60369.651920000004 L 327675.52677999996 60369.651920000004 337864.2373 50180.9414 M 327675.52677999996 60369.651920000004 L 327675.52677999996 74816.94140000001"></path></g></g></g><g id="editor-g3c5246b155_0_29"><g><g></g><g><path stroke="#595959" stroke-opacity="1" stroke-width="762" stroke-linecap="butt" stroke-linejoin="round" stroke-miterlimit="8" d="M 140972.9701 34865 L 137575.58491962976 55851.75438455457"></path><path fill="#595959" fill-opacity="1" stroke="#595959" stroke-opacity="1" stroke-width="762" stroke-linecap="butt" stroke-linejoin="miter" stroke-miterlimit="10" d="M 136333.06112867346 55650.611709689176 L 137022.99515351604 59265.2812827862 138818.10871058606 56052.89705941997 Z"></path></g><g><path stroke="#000" stroke-opacity="0" stroke-width="2714.2480211081793" stroke-linecap="round" stroke-linejoin="round" stroke-miterlimit="10" pointer-events="visiblePainted" d="M 140972.9701 34865 L 137575.58491962976 55851.75438455457"></path></g></g></g><g id="editor-g3c5246b155_0_30"><g><g></g><g><path stroke="#595959" stroke-opacity="1" stroke-width="762" stroke-linecap="butt" stroke-linejoin="round" stroke-miterlimit="8" d="M 185130.764 34865 L 175461.94511125682 56200.659541619134"></path><path fill="#595959" fill-opacity="1" stroke="#595959" stroke-opacity="1" stroke-width="762" stroke-linecap="butt" stroke-linejoin="miter" stroke-miterlimit="10" d="M 174315.4770184339 55681.10717767162 L 174034.60345206037 59350.297159264504 176608.41320407973 56720.21190556665 Z"></path></g><g><path stroke="#000" stroke-opacity="0" stroke-width="2714.2480211081793" stroke-linecap="round" stroke-linejoin="round" stroke-miterlimit="10" pointer-events="visiblePainted" d="M 185130.764 34865 L 175461.94511125682 56200.659541619134"></path></g></g></g><g id="editor-g3c5246b155_0_31"><g><g></g><g><path stroke="#595959" stroke-opacity="1" stroke-width="762" stroke-linecap="butt" stroke-linejoin="round" stroke-miterlimit="8" d="M 229288.5579 34865 L 213023.87267186918 56698.51617800252"></path><path fill="#595959" fill-opacity="1" stroke="#595959" stroke-opacity="1" stroke-width="762" stroke-linecap="butt" stroke-linejoin="miter" stroke-miterlimit="10" d="M 212014.4675195332 55946.5687162859 L 210958.08294187847 59471.607255848576 214033.27782420514 57450.46363971914 Z"></path></g><g><path stroke="#000" stroke-opacity="0" stroke-width="2714.2480211081793" stroke-linecap="round" stroke-linejoin="round" stroke-miterlimit="10" pointer-events="visiblePainted" d="M 229288.5579 34865 L 213023.87267186918 56698.51617800252"></path></g></g></g><g id="editor-g3c5246b155_0_32"><g><g></g><g><path stroke="#595959" stroke-opacity="1" stroke-width="762" stroke-linecap="butt" stroke-linejoin="round" stroke-miterlimit="8" d="M 265400.3517 34865 L 249690.09120938834 56656.32085022832"></path><path fill="#595959" fill-opacity="1" stroke="#595959" stroke-opacity="1" stroke-width="762" stroke-linecap="butt" stroke-linejoin="miter" stroke-miterlimit="10" d="M 248669.069428335 55920.224206193634 L 247667.8476818205 59461.325743231995 250711.11299044167 57392.41749426301 Z"></path></g><g><path stroke="#000" stroke-opacity="0" stroke-width="2714.2480211081793" stroke-linecap="round" stroke-linejoin="round" stroke-miterlimit="10" pointer-events="visiblePainted" d="M 265400.3517 34865 L 249690.09120938834 56656.32085022832"></path></g></g></g><g id="editor-g3c5246b155_0_33"><g><g></g><g><path stroke="#595959" stroke-opacity="1" stroke-width="762" stroke-linecap="butt" stroke-linejoin="round" stroke-miterlimit="8" d="M 300582.1456 34865 L 286254.47150325717 56550.40417063997"></path><path fill="#595959" fill-opacity="1" stroke="#595959" stroke-opacity="1" stroke-width="762" stroke-linecap="butt" stroke-linejoin="miter" stroke-miterlimit="10" d="M 285204.29022027046 55856.5432194337 L 284348.26009884436 59435.51758543859 287304.6527862439 57244.26512184625 Z"></path></g><g><path stroke="#000" stroke-opacity="0" stroke-width="2714.2480211081793" stroke-linecap="round" stroke-linejoin="round" stroke-miterlimit="10" pointer-events="visiblePainted" d="M 300582.1456 34865 L 286254.47150325717 56550.40417063997"></path></g></g></g><g id="editor-g3c5246b155_0_34"><g><g></g><g><path stroke="#595959" stroke-opacity="1" stroke-width="762" stroke-linecap="butt" stroke-linejoin="round" stroke-miterlimit="8" d="M 330219.9395 34864.9626 L 322087.40104078787 56095.48376194808"></path><path fill="#595959" fill-opacity="1" stroke="#595959" stroke-opacity="1" stroke-width="762" stroke-linecap="butt" stroke-linejoin="miter" stroke-miterlimit="10" d="M 320911.98771670175 55645.23131686285 L 320850.4437740702 59324.64124570121 323262.814364874 56545.73620703331 Z"></path></g><g><path stroke="#000" stroke-opacity="0" stroke-width="2714.2480211081793" stroke-linecap="round" stroke-linejoin="round" stroke-miterlimit="10" pointer-events="visiblePainted" d="M 330219.9395 34864.9626 L 322087.40104078787 56095.48376194808"></path></g></g></g><g id="editor-g3c5246b155_0_35"><g><g><path fill="#B4A7D6" fill-opacity="1" d="M 131156.404 106909.62396000001 L 145499.50564000002 106909.62396000001 145499.50564000002 121252.7256 131156.404 121252.7256 Z"></path><path fill="#9086ab" fill-opacity="1" d="M 145499.50564000002 106909.62396000001 L 151640.404 100768.7256 151640.404 115111.82724 145499.50564000002 121252.7256 Z"></path><path fill="#c3b9de" fill-opacity="1" d="M 131156.404 106909.62396000001 L 137297.30236 100768.7256 151640.404 100768.7256 145499.50564000002 106909.62396000001 Z"></path><path stroke="#434343" stroke-opacity="1" stroke-width="381" stroke-linecap="butt" stroke-linejoin="round" stroke-miterlimit="8" d="M 131156.404 106909.62396000001 L 137297.30236 100768.7256 151640.404 100768.7256 151640.404 115111.82724 145499.50564000002 121252.7256 131156.404 121252.7256 Z M 131156.404 106909.62396000001 L 145499.50564000002 106909.62396000001 151640.404 100768.7256 M 145499.50564000002 106909.62396000001 L 145499.50564000002 121252.7256"></path></g><g><path fill="#000" fill-opacity="0" pointer-events="visiblePainted" d="M 131156.404 106909.62396000001 L 145499.50564000002 106909.62396000001 145499.50564000002 121252.7256 131156.404 121252.7256 Z"></path><path fill="#000" fill-opacity="0" pointer-events="visiblePainted" d="M 145499.50564000002 106909.62396000001 L 151640.404 100768.7256 151640.404 115111.82724 145499.50564000002 121252.7256 Z"></path><path fill="#000" fill-opacity="0" pointer-events="visiblePainted" d="M 131156.404 106909.62396000001 L 137297.30236 100768.7256 151640.404 100768.7256 145499.50564000002 106909.62396000001 Z"></path><path stroke="#000" stroke-opacity="0" stroke-width="2714.2480211081793" stroke-linecap="round" stroke-linejoin="round" stroke-miterlimit="10" pointer-events="visiblePainted" d="M 131156.404 106909.62396000001 L 137297.30236 100768.7256 151640.404 100768.7256 151640.404 115111.82724 145499.50564000002 121252.7256 131156.404 121252.7256 Z M 131156.404 106909.62396000001 L 145499.50564000002 106909.62396000001 151640.404 100768.7256 M 145499.50564000002 106909.62396000001 L 145499.50564000002 121252.7256"></path></g></g></g><g id="editor-g3c5246b155_0_36"><g><g><path fill="#B4A7D6" fill-opacity="1" d="M 167376.3706 106909.62396000001 L 181719.47224 106909.62396000001 181719.47224 121252.7256 167376.3706 121252.7256 Z"></path><path fill="#9086ab" fill-opacity="1" d="M 181719.47224 106909.62396000001 L 187860.3706 100768.7256 187860.3706 115111.82724 181719.47224 121252.7256 Z"></path><path fill="#c3b9de" fill-opacity="1" d="M 167376.3706 106909.62396000001 L 173517.26896 100768.7256 187860.3706 100768.7256 181719.47224 106909.62396000001 Z"></path><path stroke="#434343" stroke-opacity="1" stroke-width="381" stroke-linecap="butt" stroke-linejoin="round" stroke-miterlimit="8" d="M 167376.3706 106909.62396000001 L 173517.26896 100768.7256 187860.3706 100768.7256 187860.3706 115111.82724 181719.47224 121252.7256 167376.3706 121252.7256 Z M 167376.3706 106909.62396000001 L 181719.47224 106909.62396000001 187860.3706 100768.7256 M 181719.47224 106909.62396000001 L 181719.47224 121252.7256"></path></g><g><path fill="#000" fill-opacity="0" pointer-events="visiblePainted" d="M 167376.3706 106909.62396000001 L 181719.47224 106909.62396000001 181719.47224 121252.7256 167376.3706 121252.7256 Z"></path><path fill="#000" fill-opacity="0" pointer-events="visiblePainted" d="M 181719.47224 106909.62396000001 L 187860.3706 100768.7256 187860.3706 115111.82724 181719.47224 121252.7256 Z"></path><path fill="#000" fill-opacity="0" pointer-events="visiblePainted" d="M 167376.3706 106909.62396000001 L 173517.26896 100768.7256 187860.3706 100768.7256 181719.47224 106909.62396000001 Z"></path><path stroke="#000" stroke-opacity="0" stroke-width="2714.2480211081793" stroke-linecap="round" stroke-linejoin="round" stroke-miterlimit="10" pointer-events="visiblePainted" d="M 167376.3706 106909.62396000001 L 173517.26896 100768.7256 187860.3706 100768.7256 187860.3706 115111.82724 181719.47224 121252.7256 167376.3706 121252.7256 Z M 167376.3706 106909.62396000001 L 181719.47224 106909.62396000001 187860.3706 100768.7256 M 181719.47224 106909.62396000001 L 181719.47224 121252.7256"></path></g></g></g><g id="editor-g3c5246b155_0_37"><g><g><path fill="#B4A7D6" fill-opacity="1" d="M 203596.3372 106909.62396000001 L 217939.43884000002 106909.62396000001 217939.43884000002 121252.7256 203596.3372 121252.7256 Z"></path><path fill="#9086ab" fill-opacity="1" d="M 217939.43884000002 106909.62396000001 L 224080.3372 100768.7256 224080.3372 115111.82724 217939.43884000002 121252.7256 Z"></path><path fill="#c3b9de" fill-opacity="1" d="M 203596.3372 106909.62396000001 L 209737.23556 100768.7256 224080.3372 100768.7256 217939.43884000002 106909.62396000001 Z"></path><path stroke="#434343" stroke-opacity="1" stroke-width="381" stroke-linecap="butt" stroke-linejoin="round" stroke-miterlimit="8" d="M 203596.3372 106909.62396000001 L 209737.23556 100768.7256 224080.3372 100768.7256 224080.3372 115111.82724 217939.43884000002 121252.7256 203596.3372 121252.7256 Z M 203596.3372 106909.62396000001 L 217939.43884000002 106909.62396000001 224080.3372 100768.7256 M 217939.43884000002 106909.62396000001 L 217939.43884000002 121252.7256"></path></g><g><path fill="#000" fill-opacity="0" pointer-events="visiblePainted" d="M 203596.3372 106909.62396000001 L 217939.43884000002 106909.62396000001 217939.43884000002 121252.7256 203596.3372 121252.7256 Z"></path><path fill="#000" fill-opacity="0" pointer-events="visiblePainted" d="M 217939.43884000002 106909.62396000001 L 224080.3372 100768.7256 224080.3372 115111.82724 217939.43884000002 121252.7256 Z"></path><path fill="#000" fill-opacity="0" pointer-events="visiblePainted" d="M 203596.3372 106909.62396000001 L 209737.23556 100768.7256 224080.3372 100768.7256 217939.43884000002 106909.62396000001 Z"></path><path stroke="#000" stroke-opacity="0" stroke-width="2714.2480211081793" stroke-linecap="round" stroke-linejoin="round" stroke-miterlimit="10" pointer-events="visiblePainted" d="M 203596.3372 106909.62396000001 L 209737.23556 100768.7256 224080.3372 100768.7256 224080.3372 115111.82724 217939.43884000002 121252.7256 203596.3372 121252.7256 Z M 203596.3372 106909.62396000001 L 217939.43884000002 106909.62396000001 224080.3372 100768.7256 M 217939.43884000002 106909.62396000001 L 217939.43884000002 121252.7256"></path></g></g></g><g id="editor-g3c5246b155_0_38"><g><g><path fill="#B4A7D6" fill-opacity="1" d="M 239816.304 106909.62396000001 L 254159.40564 106909.62396000001 254159.40564 121252.7256 239816.304 121252.7256 Z"></path><path fill="#9086ab" fill-opacity="1" d="M 254159.40564 106909.62396000001 L 260300.304 100768.7256 260300.304 115111.82724 254159.40564 121252.7256 Z"></path><path fill="#c3b9de" fill-opacity="1" d="M 239816.304 106909.62396000001 L 245957.20236 100768.7256 260300.304 100768.7256 254159.40564 106909.62396000001 Z"></path><path stroke="#434343" stroke-opacity="1" stroke-width="381" stroke-linecap="butt" stroke-linejoin="round" stroke-miterlimit="8" d="M 239816.304 106909.62396000001 L 245957.20236 100768.7256 260300.304 100768.7256 260300.304 115111.82724 254159.40564 121252.7256 239816.304 121252.7256 Z M 239816.304 106909.62396000001 L 254159.40564 106909.62396000001 260300.304 100768.7256 M 254159.40564 106909.62396000001 L 254159.40564 121252.7256"></path></g><g><path fill="#000" fill-opacity="0" pointer-events="visiblePainted" d="M 239816.304 106909.62396000001 L 254159.40564 106909.62396000001 254159.40564 121252.7256 239816.304 121252.7256 Z"></path><path fill="#000" fill-opacity="0" pointer-events="visiblePainted" d="M 254159.40564 106909.62396000001 L 260300.304 100768.7256 260300.304 115111.82724 254159.40564 121252.7256 Z"></path><path fill="#000" fill-opacity="0" pointer-events="visiblePainted" d="M 239816.304 106909.62396000001 L 245957.20236 100768.7256 260300.304 100768.7256 254159.40564 106909.62396000001 Z"></path><path stroke="#000" stroke-opacity="0" stroke-width="2714.2480211081793" stroke-linecap="round" stroke-linejoin="round" stroke-miterlimit="10" pointer-events="visiblePainted" d="M 239816.304 106909.62396000001 L 245957.20236 100768.7256 260300.304 100768.7256 260300.304 115111.82724 254159.40564 121252.7256 239816.304 121252.7256 Z M 239816.304 106909.62396000001 L 254159.40564 106909.62396000001 260300.304 100768.7256 M 254159.40564 106909.62396000001 L 254159.40564 121252.7256"></path></g></g></g><g id="editor-g3c5246b155_0_39"><g><g><path fill="#B4A7D6" fill-opacity="1" d="M 276036.2706 106909.62396000001 L 290379.37224 106909.62396000001 290379.37224 121252.7256 276036.2706 121252.7256 Z"></path><path fill="#9086ab" fill-opacity="1" d="M 290379.37224 106909.62396000001 L 296520.2706 100768.7256 296520.2706 115111.82724 290379.37224 121252.7256 Z"></path><path fill="#c3b9de" fill-opacity="1" d="M 276036.2706 106909.62396000001 L 282177.16896 100768.7256 296520.2706 100768.7256 290379.37224 106909.62396000001 Z"></path><path stroke="#434343" stroke-opacity="1" stroke-width="381" stroke-linecap="butt" stroke-linejoin="round" stroke-miterlimit="8" d="M 276036.2706 106909.62396000001 L 282177.16896 100768.7256 296520.2706 100768.7256 296520.2706 115111.82724 290379.37224 121252.7256 276036.2706 121252.7256 Z M 276036.2706 106909.62396000001 L 290379.37224 106909.62396000001 296520.2706 100768.7256 M 290379.37224 106909.62396000001 L 290379.37224 121252.7256"></path></g><g><path fill="#000" fill-opacity="0" pointer-events="visiblePainted" d="M 276036.2706 106909.62396000001 L 290379.37224 106909.62396000001 290379.37224 121252.7256 276036.2706 121252.7256 Z"></path><path fill="#000" fill-opacity="0" pointer-events="visiblePainted" d="M 290379.37224 106909.62396000001 L 296520.2706 100768.7256 296520.2706 115111.82724 290379.37224 121252.7256 Z"></path><path fill="#000" fill-opacity="0" pointer-events="visiblePainted" d="M 276036.2706 106909.62396000001 L 282177.16896 100768.7256 296520.2706 100768.7256 290379.37224 106909.62396000001 Z"></path><path stroke="#000" stroke-opacity="0" stroke-width="2714.2480211081793" stroke-linecap="round" stroke-linejoin="round" stroke-miterlimit="10" pointer-events="visiblePainted" d="M 276036.2706 106909.62396000001 L 282177.16896 100768.7256 296520.2706 100768.7256 296520.2706 115111.82724 290379.37224 121252.7256 276036.2706 121252.7256 Z M 276036.2706 106909.62396000001 L 290379.37224 106909.62396000001 296520.2706 100768.7256 M 290379.37224 106909.62396000001 L 290379.37224 121252.7256"></path></g></g></g><g id="editor-g3c5246b155_0_40"><g><g><path fill="#B4A7D6" fill-opacity="1" d="M 312256.2373 106909.62396000001 L 326599.33894 106909.62396000001 326599.33894 121252.7256 312256.2373 121252.7256 Z"></path><path fill="#9086ab" fill-opacity="1" d="M 326599.33894 106909.62396000001 L 332740.2373 100768.7256 332740.2373 115111.82724 326599.33894 121252.7256 Z"></path><path fill="#c3b9de" fill-opacity="1" d="M 312256.2373 106909.62396000001 L 318397.13565999997 100768.7256 332740.2373 100768.7256 326599.33894 106909.62396000001 Z"></path><path stroke="#434343" stroke-opacity="1" stroke-width="381" stroke-linecap="butt" stroke-linejoin="round" stroke-miterlimit="8" d="M 312256.2373 106909.62396000001 L 318397.13565999997 100768.7256 332740.2373 100768.7256 332740.2373 115111.82724 326599.33894 121252.7256 312256.2373 121252.7256 Z M 312256.2373 106909.62396000001 L 326599.33894 106909.62396000001 332740.2373 100768.7256 M 326599.33894 106909.62396000001 L 326599.33894 121252.7256"></path></g><g><path fill="#000" fill-opacity="0" pointer-events="visiblePainted" d="M 312256.2373 106909.62396000001 L 326599.33894 106909.62396000001 326599.33894 121252.7256 312256.2373 121252.7256 Z"></path><path fill="#000" fill-opacity="0" pointer-events="visiblePainted" d="M 326599.33894 106909.62396000001 L 332740.2373 100768.7256 332740.2373 115111.82724 326599.33894 121252.7256 Z"></path><path fill="#000" fill-opacity="0" pointer-events="visiblePainted" d="M 312256.2373 106909.62396000001 L 318397.13565999997 100768.7256 332740.2373 100768.7256 326599.33894 106909.62396000001 Z"></path><path stroke="#000" stroke-opacity="0" stroke-width="2714.2480211081793" stroke-linecap="round" stroke-linejoin="round" stroke-miterlimit="10" pointer-events="visiblePainted" d="M 312256.2373 106909.62396000001 L 318397.13565999997 100768.7256 332740.2373 100768.7256 332740.2373 115111.82724 326599.33894 121252.7256 312256.2373 121252.7256 Z M 312256.2373 106909.62396000001 L 326599.33894 106909.62396000001 332740.2373 100768.7256 M 326599.33894 106909.62396000001 L 326599.33894 121252.7256"></path></g></g></g><g id="editor-g3c5246b155_0_41"><g><g></g><g><path stroke="#595959" stroke-opacity="1" stroke-width="762" stroke-linecap="butt" stroke-linejoin="round" stroke-miterlimit="8" d="M 136850.0487 74816.9414 L 138115.96567513663 102337.77059931122"></path><path fill="#595959" fill-opacity="1" stroke="#595959" stroke-opacity="1" stroke-width="762" stroke-linecap="butt" stroke-linejoin="miter" stroke-miterlimit="10" d="M 136858.59595481912 102395.60772556366 L 138274.85887912687 105792.0830177659 139373.33539545414 102279.93347305877 Z"></path></g><g><path stroke="#000" stroke-opacity="0" stroke-width="2714.2480211081793" stroke-linecap="round" stroke-linejoin="round" stroke-miterlimit="10" pointer-events="visiblePainted" d="M 136850.0487 74816.9414 L 138115.96567513663 102337.77059931122"></path></g></g></g><g id="editor-g3c5246b155_0_42"><g><g></g><g><path stroke="#595959" stroke-opacity="1" stroke-width="762" stroke-linecap="butt" stroke-linejoin="round" stroke-miterlimit="8" d="M 173570.4154 74816.9414 L 141707.12873917207 103826.9613288573"></path><path fill="#595959" fill-opacity="1" stroke="#595959" stroke-opacity="1" stroke-width="762" stroke-linecap="butt" stroke-linejoin="miter" stroke-miterlimit="10" d="M 140859.74222570707 102896.2305173215 L 139150.17596022759 106154.94625595896 142554.51525263707 104757.6921403931 Z"></path></g><g><path stroke="#000" stroke-opacity="0" stroke-width="2714.2480211081793" stroke-linecap="round" stroke-linejoin="round" stroke-miterlimit="10" pointer-events="visiblePainted" d="M 173570.4154 74816.9414 L 141707.12873917207 103826.9613288573"></path></g></g></g><g id="editor-g3c5246b155_0_43"><g><g></g><g><path stroke="#666666" stroke-opacity="1" stroke-width="762" stroke-linecap="butt" stroke-linejoin="round" stroke-miterlimit="8" stroke-dasharray="3048,2286" d="M 109551.9548 77977.624 L 135103.8137402371 103668.00427727756"></path><path fill="#666666" fill-opacity="1" stroke="#666666" stroke-opacity="1" stroke-width="762" stroke-linecap="butt" stroke-linejoin="miter" stroke-miterlimit="10" d="M 134211.37624183626 104555.62979414407 L 137542.34537998025 106119.75564651059 135996.25123863792 102780.37876041105 Z"></path></g><g><path stroke="#000" stroke-opacity="0" stroke-width="2714.2480211081793" stroke-linecap="round" stroke-linejoin="round" stroke-miterlimit="10" pointer-events="visiblePainted" d="M 109551.9548 77977.624 L 135103.8137402371 103668.00427727756"></path></g></g></g><g id="editor-g3c5246b155_0_44"><g><g></g><g><path stroke="#595959" stroke-opacity="1" stroke-width="762" stroke-linecap="butt" stroke-linejoin="round" stroke-miterlimit="8" d="M 136850.0487 74816.9414 L 171060.7329400884 103941.22336688837"></path><path fill="#595959" fill-opacity="1" stroke="#595959" stroke-opacity="1" stroke-width="762" stroke-linecap="butt" stroke-linejoin="miter" stroke-miterlimit="10" d="M 170244.80345616557 104899.6506327828 L 173693.7748793588 106182.78788315994 171876.66242401124 102982.79610099395 Z"></path></g><g><path stroke="#000" stroke-opacity="0" stroke-width="2714.2480211081793" stroke-linecap="round" stroke-linejoin="round" stroke-miterlimit="10" pointer-events="visiblePainted" d="M 136850.0487 74816.9414 L 171060.7329400884 103941.22336688837"></path></g></g></g><g id="editor-g3c5246b155_0_45"><g><g></g><g><path stroke="#595959" stroke-opacity="1" stroke-width="762" stroke-linecap="butt" stroke-linejoin="round" stroke-miterlimit="8" d="M 173570.4154 74816.9414 L 174403.98525380262 102335.03756133566"></path><path fill="#595959" fill-opacity="1" stroke="#595959" stroke-opacity="1" stroke-width="762" stroke-linecap="butt" stroke-linejoin="miter" stroke-miterlimit="10" d="M 173145.86311161547 102373.14821710123 L 174508.6848575542 105791.41707283881 175662.10739598976 102296.92690557009 Z"></path></g><g><path stroke="#000" stroke-opacity="0" stroke-width="2714.2480211081793" stroke-linecap="round" stroke-linejoin="round" stroke-miterlimit="10" pointer-events="visiblePainted" d="M 173570.4154 74816.9414 L 174403.98525380262 102335.03756133566"></path></g></g></g><g id="editor-g3c5246b155_0_46"><g><g></g><g><path stroke="#595959" stroke-opacity="1" stroke-width="762" stroke-linecap="butt" stroke-linejoin="round" stroke-miterlimit="8" d="M 210290.7819 74816.9414 L 177945.1519023086 103850.917436867"></path><path fill="#595959" fill-opacity="1" stroke="#595959" stroke-opacity="1" stroke-width="762" stroke-linecap="butt" stroke-linejoin="miter" stroke-miterlimit="10" d="M 177104.3606501425 102914.22441510083 L 175371.81942492898 106160.78351424634 178785.9431544747 104787.61045863318 Z"></path></g><g><path stroke="#000" stroke-opacity="0" stroke-width="2714.2480211081793" stroke-linecap="round" stroke-linejoin="round" stroke-miterlimit="10" pointer-events="visiblePainted" d="M 210290.7819 74816.9414 L 177945.1519023086 103850.917436867"></path></g></g></g><g id="editor-g3c5246b155_0_47"><g><g></g><g><path stroke="#595959" stroke-opacity="1" stroke-width="762" stroke-linecap="butt" stroke-linejoin="round" stroke-miterlimit="8" d="M 173570.4154 74816.9414 L 207308.4132559126 103918.68535700331"></path><path fill="#595959" fill-opacity="1" stroke="#595959" stroke-opacity="1" stroke-width="762" stroke-linecap="butt" stroke-linejoin="miter" stroke-miterlimit="10" d="M 206486.2789216738 104871.79546775136 L 209926.84762609957 106177.29616535168 208130.5475901514 102965.57524625526 Z"></path></g><g><path stroke="#000" stroke-opacity="0" stroke-width="2714.2480211081793" stroke-linecap="round" stroke-linejoin="round" stroke-miterlimit="10" pointer-events="visiblePainted" d="M 173570.4154 74816.9414 L 207308.4132559126 103918.68535700331"></path></g></g></g><g id="editor-g3c5246b155_0_48"><g><g></g><g><path stroke="#595959" stroke-opacity="1" stroke-width="762" stroke-linecap="butt" stroke-linejoin="round" stroke-miterlimit="8" d="M 210290.7819 74816.9414 L 210702.3976284498 102333.45284686935"></path><path fill="#595959" fill-opacity="1" stroke="#595959" stroke-opacity="1" stroke-width="762" stroke-linecap="butt" stroke-linejoin="miter" stroke-miterlimit="10" d="M 209443.8392047934 102352.2794500654 L 210754.1190658016 105791.03093383755 211960.95605210622 102314.6262436733 Z"></path></g><g><path stroke="#000" stroke-opacity="0" stroke-width="2714.2480211081793" stroke-linecap="round" stroke-linejoin="round" stroke-miterlimit="10" pointer-events="visiblePainted" d="M 210290.7819 74816.9414 L 210702.3976284498 102333.45284686935"></path></g></g></g><g id="editor-g3c5246b155_0_49"><g><g></g><g><path stroke="#595959" stroke-opacity="1" stroke-width="762" stroke-linecap="butt" stroke-linejoin="round" stroke-miterlimit="8" d="M 247011.1486 74816.9414 L 214194.17592645178 103874.08872750594"></path><path fill="#595959" fill-opacity="1" stroke="#595959" stroke-opacity="1" stroke-width="762" stroke-linecap="butt" stroke-linejoin="miter" stroke-miterlimit="10" d="M 213359.76387062005 102931.70861957331 L 211605.21958597752 106166.42954023049 215028.5879822835 104816.46883543856 Z"></path></g><g><path stroke="#000" stroke-opacity="0" stroke-width="2714.2480211081793" stroke-linecap="round" stroke-linejoin="round" stroke-miterlimit="10" pointer-events="visiblePainted" d="M 247011.1486 74816.9414 L 214194.17592645178 103874.08872750594"></path></g></g></g><g id="editor-g3c5246b155_0_50"><g><g></g><g><path stroke="#595959" stroke-opacity="1" stroke-width="762" stroke-linecap="butt" stroke-linejoin="round" stroke-miterlimit="8" d="M 210290.7819 74816.9414 L 243545.02534165367 103895.3740236043"></path><path fill="#595959" fill-opacity="1" stroke="#595959" stroke-opacity="1" stroke-width="762" stroke-linecap="butt" stroke-linejoin="miter" stroke-miterlimit="10" d="M 242716.4732564621 104842.91040225641 L 246148.14726102763 106171.6160158888 244373.57742684524 102947.83764495217 Z"></path></g><g><path stroke="#000" stroke-opacity="0" stroke-width="2714.2480211081793" stroke-linecap="round" stroke-linejoin="round" stroke-miterlimit="10" pointer-events="visiblePainted" d="M 210290.7819 74816.9414 L 243545.02534165367 103895.3740236043"></path></g></g></g><g id="editor-g3c5246b155_0_51"><g><g></g><g><path stroke="#595959" stroke-opacity="1" stroke-width="762" stroke-linecap="butt" stroke-linejoin="round" stroke-miterlimit="8" d="M 247011.1486 74816.9414 L 246990.5681951542 102332.94267882788"></path><path fill="#595959" fill-opacity="1" stroke="#595959" stroke-opacity="1" stroke-width="762" stroke-linecap="butt" stroke-linejoin="miter" stroke-miterlimit="10" d="M 245731.86931915398 102332.0012436177 L 246987.98183468668 105790.9066238834 248249.2670711544 102333.88411403805 Z"></path></g><g><path stroke="#000" stroke-opacity="0" stroke-width="2714.2480211081793" stroke-linecap="round" stroke-linejoin="round" stroke-miterlimit="10" pointer-events="visiblePainted" d="M 247011.1486 74816.9414 L 246990.5681951542 102332.94267882788"></path></g></g></g><g id="editor-g3c5246b155_0_52"><g><g></g><g><path stroke="#595959" stroke-opacity="1" stroke-width="762" stroke-linecap="butt" stroke-linejoin="round" stroke-miterlimit="8" d="M 283731.5152 74816.9414 L 250431.22032644175 103897.60387285918"></path><path fill="#595959" fill-opacity="1" stroke="#595959" stroke-opacity="1" stroke-width="762" stroke-linecap="butt" stroke-linejoin="miter" stroke-miterlimit="10" d="M 249603.2821322257 102949.53104163645 L 247826.6246362694 106172.15935147475 251259.1585206578 104845.67670408191 Z"></path></g><g><path stroke="#000" stroke-opacity="0" stroke-width="2714.2480211081793" stroke-linecap="round" stroke-linejoin="round" stroke-miterlimit="10" pointer-events="visiblePainted" d="M 283731.5152 74816.9414 L 250431.22032644175 103897.60387285918"></path></g></g></g><g id="editor-g3c5246b155_0_53"><g><g></g><g><path stroke="#595959" stroke-opacity="1" stroke-width="762" stroke-linecap="butt" stroke-linejoin="round" stroke-miterlimit="8" d="M 247011.1486 74816.9414 L 279782.11591295485 103871.83748582273"></path><path fill="#595959" fill-opacity="1" stroke="#595959" stroke-opacity="1" stroke-width="762" stroke-linecap="butt" stroke-linejoin="miter" stroke-miterlimit="10" d="M 278947.0840766843 104813.66845747268 L 282369.5636372679 106165.8809920605 280617.1477492254 102930.00651417278 Z"></path></g><g><path stroke="#000" stroke-opacity="0" stroke-width="2714.2480211081793" stroke-linecap="round" stroke-linejoin="round" stroke-miterlimit="10" pointer-events="visiblePainted" d="M 247011.1486 74816.9414 L 279782.11591295485 103871.83748582273"></path></g></g></g><g id="editor-g3c5246b155_0_54"><g><g></g><g><path stroke="#595959" stroke-opacity="1" stroke-width="762" stroke-linecap="butt" stroke-linejoin="round" stroke-miterlimit="8" d="M 283731.5152 74816.9414 L 283278.73613176076 102333.56022890349"></path><path fill="#595959" fill-opacity="1" stroke="#595959" stroke-opacity="1" stroke-width="762" stroke-linecap="butt" stroke-linejoin="miter" stroke-miterlimit="10" d="M 282020.20727102814 102312.85145183833 L 283221.84388707625 105791.05709904802 284537.2649924934 102354.26900596864 Z"></path></g><g><path stroke="#000" stroke-opacity="0" stroke-width="2714.2480211081793" stroke-linecap="round" stroke-linejoin="round" stroke-miterlimit="10" pointer-events="visiblePainted" d="M 283731.5152 74816.9414 L 283278.73613176076 102333.56022890349"></path></g></g></g><g id="editor-g3c5246b155_0_55"><g><g></g><g><path stroke="#595959" stroke-opacity="1" stroke-width="762" stroke-linecap="butt" stroke-linejoin="round" stroke-miterlimit="8" d="M 320451.882 74816.9414 L 286667.7877867258 103920.89369584252"></path><path fill="#595959" fill-opacity="1" stroke="#595959" stroke-opacity="1" stroke-width="762" stroke-linecap="butt" stroke-linejoin="miter" stroke-miterlimit="10" d="M 285846.26142151415 102967.25950077262 L 284047.91362444585 106177.83425961074 287489.31415193743 104874.52789091242 Z"></path></g><g><path stroke="#000" stroke-opacity="0" stroke-width="2714.2480211081793" stroke-linecap="round" stroke-linejoin="round" stroke-miterlimit="10" pointer-events="visiblePainted" d="M 320451.882 74816.9414 L 286667.7877867258 103920.89369584252"></path></g></g></g><g id="editor-g3c5246b155_0_56"><g><g></g><g><path stroke="#595959" stroke-opacity="1" stroke-width="762" stroke-linecap="butt" stroke-linejoin="round" stroke-miterlimit="8" d="M 283731.5152 74816.9414 L 316031.1859391705 103848.6454526191"></path><path fill="#595959" fill-opacity="1" stroke="#595959" stroke-opacity="1" stroke-width="762" stroke-linecap="butt" stroke-linejoin="miter" stroke-miterlimit="10" d="M 315189.76919601223 104784.77664592344 L 318602.9749317648 106160.22991184506 316872.6026823287 102912.51425931475 Z"></path></g><g><path stroke="#000" stroke-opacity="0" stroke-width="2714.2480211081793" stroke-linecap="round" stroke-linejoin="round" stroke-miterlimit="10" pointer-events="visiblePainted" d="M 283731.5152 74816.9414 L 316031.1859391705 103848.6454526191"></path></g></g></g><g id="editor-g3c5246b155_0_57"><g><g></g><g><path stroke="#595959" stroke-opacity="1" stroke-width="762" stroke-linecap="butt" stroke-linejoin="round" stroke-miterlimit="8" d="M 320451.882 74816.9414 L 319577.14146448456 102335.24954080334"></path><path fill="#595959" fill-opacity="1" stroke="#595959" stroke-opacity="1" stroke-width="762" stroke-linecap="butt" stroke-linejoin="miter" stroke-miterlimit="10" d="M 318319.0776815263 102295.25873244453 L 319467.27660635597 105791.46872475462 320835.2052474428 102375.24034916215 Z"></path></g><g><path stroke="#000" stroke-opacity="0" stroke-width="2714.2480211081793" stroke-linecap="round" stroke-linejoin="round" stroke-miterlimit="10" pointer-events="visiblePainted" d="M 320451.882 74816.9414 L 319577.14146448456 102335.24954080334"></path></g></g></g><g id="editor-g3c5246b155_0_58"><g><g></g><g><path stroke="#666666" stroke-opacity="1" stroke-width="762" stroke-linecap="butt" stroke-linejoin="round" stroke-miterlimit="8" stroke-dasharray="3048,2286" d="M 350003.7881 74329.624 L 322556.5228642768 103575.82694936753"></path><path fill="#666666" fill-opacity="1" stroke="#666666" stroke-opacity="1" stroke-width="762" stroke-linecap="butt" stroke-linejoin="miter" stroke-miterlimit="10" d="M 321638.7083904855 102714.46736217779 L 320190.15037199727 106097.29528395896 323474.33733806806 104437.18653655727 Z"></path></g><g><path stroke="#000" stroke-opacity="0" stroke-width="2714.2480211081793" stroke-linecap="round" stroke-linejoin="round" stroke-miterlimit="10" pointer-events="visiblePainted" d="M 350003.7881 74329.624 L 322556.5228642768 103575.82694936753"></path></g></g></g><g id="editor-g3c5246b155_0_59"><g><g><path fill="#D5A6BD" fill-opacity="1" d="M 167376.5706 151976.77656 L 181719.67224 151976.77656 181719.67224 166319.8782 167376.5706 166319.8782 Z"></path><path fill="#aa8597" fill-opacity="1" d="M 181719.67224 151976.77656 L 187860.5706 145835.8782 187860.5706 160178.97984 181719.67224 166319.8782 Z"></path><path fill="#ddb8ca" fill-opacity="1" d="M 167376.5706 151976.77656 L 173517.46896 145835.8782 187860.5706 145835.8782 181719.67224 151976.77656 Z"></path><path stroke="#434343" stroke-opacity="1" stroke-width="381" stroke-linecap="butt" stroke-linejoin="round" stroke-miterlimit="8" d="M 167376.5706 151976.77656 L 173517.46896 145835.8782 187860.5706 145835.8782 187860.5706 160178.97984 181719.67224 166319.8782 167376.5706 166319.8782 Z M 167376.5706 151976.77656 L 181719.67224 151976.77656 187860.5706 145835.8782 M 181719.67224 151976.77656 L 181719.67224 166319.8782"></path></g><g><path fill="#000" fill-opacity="0" pointer-events="visiblePainted" d="M 167376.5706 151976.77656 L 181719.67224 151976.77656 181719.67224 166319.8782 167376.5706 166319.8782 Z"></path><path fill="#000" fill-opacity="0" pointer-events="visiblePainted" d="M 181719.67224 151976.77656 L 187860.5706 145835.8782 187860.5706 160178.97984 181719.67224 166319.8782 Z"></path><path fill="#000" fill-opacity="0" pointer-events="visiblePainted" d="M 167376.5706 151976.77656 L 173517.46896 145835.8782 187860.5706 145835.8782 181719.67224 151976.77656 Z"></path><path stroke="#000" stroke-opacity="0" stroke-width="2714.2480211081793" stroke-linecap="round" stroke-linejoin="round" stroke-miterlimit="10" pointer-events="visiblePainted" d="M 167376.5706 151976.77656 L 173517.46896 145835.8782 187860.5706 145835.8782 187860.5706 160178.97984 181719.67224 166319.8782 167376.5706 166319.8782 Z M 167376.5706 151976.77656 L 181719.67224 151976.77656 187860.5706 145835.8782 M 181719.67224 151976.77656 L 181719.67224 166319.8782"></path></g></g></g><g id="editor-g3c5246b155_0_60"><g><g><path fill="#D5A6BD" fill-opacity="1" d="M 276036.0707 151976.77656 L 290379.17234 151976.77656 290379.17234 166319.8782 276036.0707 166319.8782 Z"></path><path fill="#aa8597" fill-opacity="1" d="M 290379.17234 151976.77656 L 296520.0707 145835.8782 296520.0707 160178.97984 290379.17234 166319.8782 Z"></path><path fill="#ddb8ca" fill-opacity="1" d="M 276036.0707 151976.77656 L 282176.96906 145835.8782 296520.0707 145835.8782 290379.17234 151976.77656 Z"></path><path stroke="#434343" stroke-opacity="1" stroke-width="381" stroke-linecap="butt" stroke-linejoin="round" stroke-miterlimit="8" d="M 276036.0707 151976.77656 L 282176.96906 145835.8782 296520.0707 145835.8782 296520.0707 160178.97984 290379.17234 166319.8782 276036.0707 166319.8782 Z M 276036.0707 151976.77656 L 290379.17234 151976.77656 296520.0707 145835.8782 M 290379.17234 151976.77656 L 290379.17234 166319.8782"></path></g><g><path fill="#000" fill-opacity="0" pointer-events="visiblePainted" d="M 276036.0707 151976.77656 L 290379.17234 151976.77656 290379.17234 166319.8782 276036.0707 166319.8782 Z"></path><path fill="#000" fill-opacity="0" pointer-events="visiblePainted" d="M 290379.17234 151976.77656 L 296520.0707 145835.8782 296520.0707 160178.97984 290379.17234 166319.8782 Z"></path><path fill="#000" fill-opacity="0" pointer-events="visiblePainted" d="M 276036.0707 151976.77656 L 282176.96906 145835.8782 296520.0707 145835.8782 290379.17234 151976.77656 Z"></path><path stroke="#000" stroke-opacity="0" stroke-width="2714.2480211081793" stroke-linecap="round" stroke-linejoin="round" stroke-miterlimit="10" pointer-events="visiblePainted" d="M 276036.0707 151976.77656 L 282176.96906 145835.8782 296520.0707 145835.8782 296520.0707 160178.97984 290379.17234 166319.8782 276036.0707 166319.8782 Z M 276036.0707 151976.77656 L 290379.17234 151976.77656 296520.0707 145835.8782 M 290379.17234 151976.77656 L 290379.17234 166319.8782"></path></g></g></g><g id="editor-g3c5246b155_0_61"><g><g></g><g><path stroke="#595959" stroke-opacity="1" stroke-width="762" stroke-linecap="butt" stroke-linejoin="round" stroke-miterlimit="8" d="M 138327.9548 121252.7256 L 171057.34857624825 149015.23324320593"></path><path fill="#595959" fill-opacity="1" stroke="#595959" stroke-opacity="1" stroke-width="762" stroke-linecap="butt" stroke-linejoin="miter" stroke-miterlimit="10" d="M 170243.13305863665 149975.1170057652 L 173694.39187998252 151252.08906082017 171871.56409385984 148055.34948064666 Z"></path></g><g><path stroke="#000" stroke-opacity="0" stroke-width="2714.2480211081793" stroke-linecap="round" stroke-linejoin="round" stroke-miterlimit="10" pointer-events="visiblePainted" d="M 138327.9548 121252.7256 L 171057.34857624825 149015.23324320593"></path></g></g></g><g id="editor-g3c5246b155_0_62"><g><g></g><g><path stroke="#595959" stroke-opacity="1" stroke-width="762" stroke-linecap="butt" stroke-linejoin="round" stroke-miterlimit="8" d="M 174547.9214 121252.7256 L 174547.9214 147400.7256"></path><path fill="#595959" fill-opacity="1" stroke="#595959" stroke-opacity="1" stroke-width="762" stroke-linecap="butt" stroke-linejoin="miter" stroke-miterlimit="10" d="M 173289.2221719298 147400.7256 L 174547.9214 150858.6905122807 175806.62062807017 147400.7256 Z"></path></g><g><path stroke="#000" stroke-opacity="0" stroke-width="2714.2480211081793" stroke-linecap="round" stroke-linejoin="round" stroke-miterlimit="10" pointer-events="visiblePainted" d="M 174547.9214 121252.7256 L 174547.9214 147400.7256"></path></g></g></g><g id="editor-g3c5246b155_0_63"><g><g></g><g><path stroke="#595959" stroke-opacity="1" stroke-width="762" stroke-linecap="butt" stroke-linejoin="round" stroke-miterlimit="8" d="M 210767.888 121252.7256 L 178038.49422375308 149015.23324320483"></path><path fill="#595959" fill-opacity="1" stroke="#595959" stroke-opacity="1" stroke-width="762" stroke-linecap="butt" stroke-linejoin="miter" stroke-miterlimit="10" d="M 177224.2787061415 148055.34948064556 L 175401.4509200188 151252.08906081907 178852.70974136467 149975.1170057641 Z"></path></g><g><path stroke="#000" stroke-opacity="0" stroke-width="2714.2480211081793" stroke-linecap="round" stroke-linejoin="round" stroke-miterlimit="10" pointer-events="visiblePainted" d="M 210767.888 121252.7256 L 178038.49422375308 149015.23324320483"></path></g></g></g><g id="editor-g3c5246b155_0_64"><g><g></g><g><path stroke="#595959" stroke-opacity="1" stroke-width="762" stroke-linecap="butt" stroke-linejoin="round" stroke-miterlimit="8" d="M 246987.8548 121252.7256 L 279717.24857624836 149015.23324320605"></path><path fill="#595959" fill-opacity="1" stroke="#595959" stroke-opacity="1" stroke-width="762" stroke-linecap="butt" stroke-linejoin="miter" stroke-miterlimit="10" d="M 278903.03305863676 149975.11700576532 L 282354.29187998263 151252.0890608203 280531.46409385995 148055.34948064678 Z"></path></g><g><path stroke="#000" stroke-opacity="0" stroke-width="2714.2480211081793" stroke-linecap="round" stroke-linejoin="round" stroke-miterlimit="10" pointer-events="visiblePainted" d="M 246987.8548 121252.7256 L 279717.24857624836 149015.23324320605"></path></g></g></g><g id="editor-g3c5246b155_0_65"><g><g></g><g><path stroke="#595959" stroke-opacity="1" stroke-width="762" stroke-linecap="butt" stroke-linejoin="round" stroke-miterlimit="8" d="M 283207.8214 121252.7256 L 283207.8214 147400.7256"></path><path fill="#595959" fill-opacity="1" stroke="#595959" stroke-opacity="1" stroke-width="762" stroke-linecap="butt" stroke-linejoin="miter" stroke-miterlimit="10" d="M 281949.12217192986 147400.7256 L 283207.8214 150858.6905122807 284466.52062807017 147400.7256 Z"></path></g><g><path stroke="#000" stroke-opacity="0" stroke-width="2714.2480211081793" stroke-linecap="round" stroke-linejoin="round" stroke-miterlimit="10" pointer-events="visiblePainted" d="M 283207.8214 121252.7256 L 283207.8214 147400.7256"></path></g></g></g><g id="editor-g3c5246b155_0_66"><g><g></g><g><path stroke="#595959" stroke-opacity="1" stroke-width="762" stroke-linecap="butt" stroke-linejoin="round" stroke-miterlimit="8" d="M 319427.7881 121252.7256 L 286698.3943237518 149015.23324320593"></path><path fill="#595959" fill-opacity="1" stroke="#595959" stroke-opacity="1" stroke-width="762" stroke-linecap="butt" stroke-linejoin="miter" stroke-miterlimit="10" d="M 285884.1788061402 148055.34948064666 L 284061.3510200175 151252.08906082017 287512.6098413634 149975.1170057652 Z"></path></g><g><path stroke="#000" stroke-opacity="0" stroke-width="2714.2480211081793" stroke-linecap="round" stroke-linejoin="round" stroke-miterlimit="10" pointer-events="visiblePainted" d="M 319427.7881 121252.7256 L 286698.3943237518 149015.23324320593"></path></g></g></g></g></g></svg>
